<svg xmlns="http://www.w3.org/2000/svg" width="511.95" height="511.635" viewBox="0 0 511.95 511.635">
  <g id="fingerprint-svgrepo-com" transform="translate(0 -0.157)">
    <g id="Group_294" data-name="Group 294">
      <g id="Group_293" data-name="Group 293">
        <path id="Path_1240" data-name="Path 1240" d="M206.206,281.068a8.53,8.53,0,0,0-16.9,2.3,208.407,208.407,0,0,1-64.222,179.823,8.533,8.533,0,0,0,11.664,12.458A225.49,225.49,0,0,0,206.206,281.068Z" fill="#5d879e"/>
        <path id="Path_1241" data-name="Path 1241" d="M82.55,291.035a9.019,9.019,0,0,0-.333-1.169,180.3,180.3,0,0,1-3.149-26.786,8.532,8.532,0,0,0-17.05.7,198.442,198.442,0,0,0,3.7,30.652,7.753,7.753,0,0,0,.324,1.152A84.489,84.489,0,0,1,37.578,375.55a8.534,8.534,0,1,0,11.034,13.022A101.563,101.563,0,0,0,82.55,291.035Z" fill="#5d879e"/>
        <path id="Path_1242" data-name="Path 1242" d="M130.516,358.995a8.538,8.538,0,0,0-11.051,4.864,147.141,147.141,0,0,1-43.836,60.459,8.534,8.534,0,0,0,10.82,13.2,164.413,164.413,0,0,0,48.93-67.482A8.537,8.537,0,0,0,130.516,358.995Z" fill="#5d879e"/>
        <path id="Path_1243" data-name="Path 1243" d="M51.2,117.134a8.516,8.516,0,0,0,11.921-1.86A238.8,238.8,0,0,1,360.992,41.657a8.532,8.532,0,0,0,7.518-15.318A255.837,255.837,0,0,0,49.338,105.213,8.527,8.527,0,0,0,51.2,117.134Z" fill="#5d879e"/>
        <path id="Path_1244" data-name="Path 1244" d="M22.04,303.263c-.043-.2-.179-.358-.239-.563A236.224,236.224,0,0,1,43.339,147.385a8.531,8.531,0,1,0-15.189-7.774A253.1,253.1,0,0,0,5.161,306.643c.068.316.247.572.341.87.691,3.371,1.425,6.707,2.236,10.018a8.536,8.536,0,0,0,8.286,6.485,8.944,8.944,0,0,0,2.048-.239,8.548,8.548,0,0,0,6.246-10.334C23.49,310.09,22.722,306.694,22.04,303.263Z" fill="#5d879e"/>
        <path id="Path_1245" data-name="Path 1245" d="M217.59,65.857C138.529,81.8,78.514,143.434,64.7,222.879a8.536,8.536,0,1,0,16.819,2.927c12.6-72.465,67.337-128.674,139.452-143.224C316.645,63.322,410.153,125.436,429.43,221.1a7.434,7.434,0,0,0,.2.785c1.545,7.74,2.876,15.4,3.959,22.793a8.529,8.529,0,0,0,8.431,7.287,7.787,7.787,0,0,0,1.254-.094,8.532,8.532,0,0,0,7.2-9.677c-1.161-7.927-2.6-16.154-4.267-24.457-.06-.273-.128-.555-.213-.819C424.489,112.484,322.2,44.772,217.59,65.857Z" fill="#5d879e"/>
        <path id="Path_1246" data-name="Path 1246" d="M325.05,242.139a70.5,70.5,0,0,0-138.13-.453,8.534,8.534,0,1,0,16.708,3.49,53.427,53.427,0,0,1,104.474-.657c.034.341.077.683.145,1.024a333.354,333.354,0,0,1,6.605,64.947,8.538,8.538,0,0,0,8.533,8.516h.017a8.526,8.526,0,0,0,8.516-8.55,350.537,350.537,0,0,0-6.724-67.217A9.645,9.645,0,0,0,325.05,242.139Z" fill="#5d879e"/>
        <path id="Path_1247" data-name="Path 1247" d="M264.369,254.384a8.535,8.535,0,1,0-16.734,3.37c16.794,83.294-5.786,167.714-61.943,231.629a8.537,8.537,0,0,0,12.825,11.272C258.217,432.7,282.221,342.943,264.369,254.384Z" fill="#5d879e"/>
        <path id="Path_1248" data-name="Path 1248" d="M506.853,205.488c-.051-.256-.222-.452-.3-.708A254.674,254.674,0,0,0,402.934,46.691a8.533,8.533,0,0,0-9.8,13.969,237.741,237.741,0,0,1,96.862,148.224c.043.23.179.41.239.631a240.4,240.4,0,0,1,4.608,51.379,8.543,8.543,0,0,0,8.371,8.7h.171a8.535,8.535,0,0,0,8.525-8.371A258.39,258.39,0,0,0,506.853,205.488Z" fill="#5d879e"/>
        <path id="Path_1249" data-name="Path 1249" d="M385.611,229.936A132.271,132.271,0,0,0,229.8,126.41c-71.492,14.413-117.939,84.318-103.518,155.81a8.709,8.709,0,0,0,.427,1.442,145.041,145.041,0,0,1,1.8,43,8.535,8.535,0,1,0,16.973,1.826,162.8,162.8,0,0,0-2.33-49.673,8.488,8.488,0,0,0-.427-1.425,115.209,115.209,0,0,1,226.048-44.612c.026.179.051.367.085.546a391.571,391.571,0,0,1,2.645,141.6,8.545,8.545,0,0,0,7.04,9.813,9.679,9.679,0,0,0,1.391.111,8.544,8.544,0,0,0,8.414-7.151,408.937,408.937,0,0,0-2.645-147.2C385.679,230.312,385.654,230.124,385.611,229.936Z" fill="#5d879e"/>
        <path id="Path_1250" data-name="Path 1250" d="M445.609,273.857a8.536,8.536,0,0,0-7.979,9.054A452.4,452.4,0,0,1,423.243,428.08a8.534,8.534,0,1,0,16.495,4.386,469.245,469.245,0,0,0,14.925-150.63A8.465,8.465,0,0,0,445.609,273.857Z" fill="#5d879e"/>
        <path id="Path_1251" data-name="Path 1251" d="M373.818,406.568a8.492,8.492,0,0,0-10.445,6.033A394.5,394.5,0,0,1,337,483.189a8.534,8.534,0,0,0,15.343,7.475,410.966,410.966,0,0,0,27.511-73.651A8.512,8.512,0,0,0,373.818,406.568Z" fill="#5d879e"/>
        <path id="Path_1252" data-name="Path 1252" d="M322.191,341.211a8.55,8.55,0,0,0-9.446,7.509,333.142,333.142,0,0,1-55.936,149.726,8.531,8.531,0,0,0,14.081,9.634A350.1,350.1,0,0,0,329.7,350.657,8.539,8.539,0,0,0,322.191,341.211Z" fill="#5d879e"/>
      </g>
    </g>
  </g>
</svg>
