<svg id="svg" version="1.1" xmlns="http://www.w3.org/2000/svg" xmlns:xlink="http://www.w3.org/1999/xlink" width="400" height="400" viewBox="0, 0, 400,400"><g id="svgg"><path id="path0" d="M19.426 6.357 C 19.276 6.601,18.604 6.800,17.934 6.800 C 16.977 6.800,16.768 6.939,16.962 7.444 C 17.162 7.966,17.018 8.041,16.205 7.837 C 15.624 7.691,15.200 7.757,15.200 7.992 C 15.200 8.217,14.930 8.400,14.600 8.400 C 14.270 8.400,14.000 8.580,14.000 8.800 C 14.000 9.020,13.812 9.200,13.583 9.200 C 12.703 9.200,9.200 12.703,9.200 13.583 C 9.200 13.812,9.020 14.000,8.800 14.000 C 8.580 14.000,8.400 14.270,8.400 14.600 C 8.400 14.930,8.199 15.200,7.953 15.200 C 7.697 15.200,7.585 15.611,7.691 16.163 C 7.823 16.854,7.723 17.068,7.338 16.921 C 6.960 16.776,6.800 17.077,6.800 17.934 C 6.800 18.604,6.622 19.263,6.403 19.398 C 5.851 19.739,5.848 380.259,6.400 380.600 C 6.620 380.736,6.800 381.387,6.800 382.047 C 6.800 382.707,6.944 383.158,7.120 383.049 C 7.296 382.941,7.669 383.219,7.949 383.668 C 8.231 384.118,8.267 384.365,8.030 384.218 C 7.793 384.072,7.600 384.143,7.600 384.376 C 7.600 384.609,7.780 384.800,8.000 384.800 C 8.220 384.800,8.400 385.070,8.400 385.400 C 8.400 385.730,8.580 386.000,8.800 386.000 C 9.020 386.000,9.200 386.281,9.200 386.624 C 9.200 386.967,9.380 387.136,9.600 387.000 C 9.820 386.864,10.000 387.033,10.000 387.376 C 10.000 387.743,10.371 388.019,10.900 388.046 C 11.562 388.081,11.617 388.141,11.110 388.274 C 10.561 388.418,10.520 388.562,10.908 388.977 C 11.176 389.265,11.622 389.413,11.898 389.307 C 12.174 389.201,12.400 389.407,12.400 389.764 C 12.400 390.121,13.030 390.713,13.800 391.081 C 14.570 391.448,15.200 391.895,15.200 392.074 C 15.200 392.253,15.391 392.400,15.624 392.400 C 15.857 392.400,15.933 392.175,15.793 391.900 C 15.653 391.625,15.897 391.805,16.334 392.300 C 16.773 392.797,17.592 393.200,18.164 393.200 C 18.734 393.200,19.200 393.381,19.200 393.601 C 19.200 393.869,54.482 394.001,125.000 393.999 C 194.748 393.996,230.800 393.859,230.800 393.597 C 230.800 393.379,231.256 393.200,231.813 393.200 C 232.402 393.200,232.946 392.907,233.113 392.500 C 233.271 392.115,233.638 391.751,233.930 391.690 C 234.221 391.630,234.345 391.765,234.206 391.990 C 234.067 392.216,234.143 392.400,234.376 392.400 C 234.609 392.400,234.800 392.122,234.800 391.782 C 234.800 391.416,235.085 391.213,235.500 391.282 C 235.911 391.351,236.155 391.181,236.090 390.870 C 236.028 390.570,236.173 390.459,236.424 390.615 C 237.013 390.979,241.323 386.522,240.956 385.929 C 240.785 385.652,240.856 385.587,241.138 385.762 C 241.412 385.931,241.600 385.793,241.600 385.424 C 241.600 385.081,241.780 384.800,242.000 384.800 C 242.220 384.800,242.400 384.350,242.400 383.800 C 242.400 383.250,242.580 382.800,242.800 382.800 C 243.020 382.800,243.200 382.350,243.200 381.800 C 243.200 381.250,243.380 380.800,243.600 380.800 C 243.866 380.800,244.000 349.400,244.000 287.400 L 244.000 194.000 298.681 194.000 L 353.361 194.000 355.074 192.187 L 356.787 190.373 356.797 143.973 C 356.807 94.259,356.895 96.496,354.866 94.660 C 354.404 94.242,353.839 94.052,353.563 94.223 C 353.253 94.415,353.180 94.356,353.362 94.062 C 353.521 93.804,353.416 93.592,353.124 93.583 C 352.836 93.573,342.130 93.581,329.334 93.599 L 306.068 93.633 305.474 92.784 C 305.122 92.282,304.958 91.438,305.073 90.713 C 305.224 89.755,305.138 89.538,304.679 89.714 C 304.210 89.894,304.124 89.621,304.247 88.351 C 304.332 87.478,304.163 86.277,303.872 85.682 C 303.580 85.087,303.409 84.302,303.493 83.937 C 303.576 83.573,303.454 83.157,303.222 83.014 C 302.990 82.870,302.800 82.214,302.800 81.557 C 302.800 80.899,302.521 79.820,302.179 79.160 C 301.838 78.500,301.670 77.609,301.806 77.180 C 301.946 76.739,301.868 76.400,301.627 76.400 C 301.392 76.400,301.200 75.680,301.200 74.800 C 301.200 73.920,301.043 73.200,300.850 73.200 C 300.657 73.200,300.401 72.703,300.279 72.095 C 300.008 70.741,298.729 69.200,297.877 69.200 C 297.530 69.200,297.132 69.014,296.991 68.786 C 296.537 68.051,252.918 68.315,252.634 69.055 C 252.508 69.383,252.223 69.538,252.000 69.400 C 251.483 69.081,250.400 70.145,250.400 70.971 C 250.400 71.317,250.201 71.600,249.957 71.600 C 249.714 71.600,249.621 71.877,249.750 72.215 C 249.887 72.571,249.726 72.930,249.367 73.068 C 248.939 73.232,248.784 73.728,248.866 74.673 C 248.930 75.424,248.798 76.166,248.573 76.320 C 248.347 76.474,248.119 77.227,248.067 77.993 C 248.015 78.760,247.799 79.561,247.587 79.773 C 247.374 79.986,247.200 80.754,247.200 81.480 C 247.200 82.206,247.039 82.800,246.842 82.800 C 246.443 82.800,245.970 85.306,245.880 87.900 C 245.843 88.981,245.635 89.600,245.311 89.600 C 244.983 89.600,244.800 90.165,244.800 91.176 C 244.800 92.043,244.620 92.864,244.400 93.000 C 244.134 93.164,244.000 80.804,244.000 56.224 C 244.000 31.808,243.864 19.200,243.600 19.200 C 243.380 19.200,243.200 18.734,243.200 18.164 C 243.200 17.592,242.797 16.773,242.300 16.334 C 241.805 15.897,241.625 15.653,241.900 15.793 C 242.175 15.933,242.400 15.857,242.400 15.624 C 242.400 15.391,242.111 15.200,241.757 15.200 C 241.341 15.200,241.198 14.982,241.353 14.579 C 241.489 14.223,241.422 14.063,241.195 14.203 C 240.978 14.337,240.800 14.060,240.800 13.586 C 240.800 13.063,240.488 12.643,240.004 12.517 C 239.567 12.403,239.292 12.175,239.393 12.012 C 239.494 11.849,239.267 11.423,238.888 11.067 C 238.510 10.710,237.713 9.964,237.118 9.409 C 236.523 8.854,235.758 8.400,235.418 8.400 C 235.078 8.400,234.800 8.220,234.800 8.000 C 234.800 7.780,234.609 7.600,234.376 7.600 C 234.143 7.600,234.072 7.793,234.218 8.030 C 234.365 8.267,234.118 8.231,233.668 7.949 C 233.219 7.669,232.941 7.296,233.049 7.120 C 233.158 6.944,232.707 6.800,232.047 6.800 C 231.387 6.800,230.737 6.621,230.602 6.403 C 230.204 5.759,20.402 5.855,20.394 6.499 C 20.389 6.869,20.298 6.859,20.044 6.457 C 19.804 6.079,19.617 6.049,19.426 6.357 M224.800 19.600 C 224.800 19.820,225.295 20.006,225.900 20.013 C 226.505 20.020,227.342 20.284,227.759 20.600 C 228.176 20.916,228.699 21.062,228.921 20.925 C 229.142 20.788,229.212 20.858,229.075 21.079 C 228.938 21.301,229.084 21.824,229.400 22.241 C 229.716 22.658,229.980 23.315,229.987 23.700 C 229.994 24.085,230.176 24.400,230.391 24.400 C 230.643 24.400,230.787 36.717,230.796 59.000 L 230.808 93.600 225.004 93.600 L 219.200 93.600 219.170 74.900 C 219.154 64.615,219.139 55.167,219.138 53.903 C 219.136 52.640,218.969 51.505,218.767 51.380 C 218.565 51.255,218.400 50.881,218.400 50.548 C 218.400 49.798,217.392 48.741,217.026 49.107 C 216.879 49.255,216.862 49.105,216.989 48.774 C 217.424 47.640,213.031 44.002,211.498 44.227 C 211.128 44.281,210.864 44.163,210.912 43.964 C 210.964 43.749,176.607 43.561,126.500 43.501 C 80.025 43.445,42.000 43.546,42.000 43.724 C 42.000 43.902,41.779 43.911,41.509 43.744 C 40.761 43.282,38.987 43.413,39.095 43.922 C 39.148 44.169,38.945 44.277,38.644 44.162 C 37.951 43.896,35.501 45.358,35.901 45.799 C 36.066 45.980,36.009 46.020,35.775 45.887 C 35.541 45.754,34.838 46.085,34.213 46.623 C 33.587 47.160,33.239 47.605,33.438 47.612 C 33.637 47.619,33.485 47.808,33.100 48.032 C 32.715 48.256,32.400 48.701,32.400 49.020 C 32.400 49.339,32.201 49.600,31.957 49.600 C 31.714 49.600,31.613 49.857,31.733 50.171 C 31.854 50.485,31.696 50.955,31.382 51.215 C 30.671 51.805,30.487 322.959,31.197 323.398 C 31.419 323.535,31.600 323.997,31.600 324.424 C 31.600 324.851,31.759 325.200,31.953 325.200 C 32.148 325.200,32.406 325.578,32.526 326.040 C 32.647 326.502,32.926 326.769,33.145 326.634 C 33.365 326.498,33.675 326.598,33.834 326.855 C 34.015 327.148,33.950 327.216,33.662 327.038 C 32.996 326.626,33.094 327.151,33.819 327.876 C 34.160 328.217,34.548 328.385,34.682 328.251 C 35.044 327.889,36.030 328.827,35.755 329.272 C 35.626 329.482,35.898 329.753,36.360 329.874 C 36.822 329.994,37.200 330.252,37.200 330.447 C 37.200 330.641,37.560 330.800,38.000 330.800 C 38.440 330.800,38.800 330.978,38.800 331.195 C 38.800 331.453,68.441 331.591,124.600 331.595 C 192.958 331.599,210.401 331.498,210.406 331.100 C 210.410 330.767,210.542 330.800,210.800 331.200 C 211.058 331.600,211.190 331.633,211.194 331.300 C 211.197 331.025,211.560 330.800,212.000 330.800 C 212.440 330.800,212.800 330.641,212.800 330.447 C 212.800 330.252,213.183 329.993,213.652 329.871 C 214.221 329.722,214.424 329.441,214.265 329.024 C 214.133 328.681,214.199 328.400,214.413 328.400 C 214.626 328.400,214.800 328.593,214.800 328.829 C 214.800 329.552,216.045 328.057,216.105 327.262 C 216.136 326.852,216.440 326.535,216.781 326.558 C 217.121 326.581,217.400 326.330,217.400 326.000 C 217.400 325.670,217.625 325.256,217.900 325.080 C 218.175 324.904,218.400 324.499,218.400 324.180 C 218.400 323.861,218.574 323.600,218.788 323.600 C 219.001 323.600,219.156 322.745,219.133 321.700 C 219.110 320.655,219.116 291.495,219.146 256.900 L 219.200 194.000 225.000 194.000 L 230.800 194.000 230.800 284.226 C 230.800 347.515,230.672 374.691,230.372 375.252 C 230.058 375.839,230.076 376.210,230.440 376.648 C 230.712 376.976,230.770 377.191,230.568 377.124 C 230.365 377.057,229.432 377.749,228.492 378.662 C 227.350 379.772,226.538 380.256,226.038 380.126 C 225.627 380.018,225.169 380.126,225.022 380.365 C 224.659 380.951,25.362 380.986,25.000 380.400 C 24.864 380.180,24.319 380.000,23.790 380.000 C 22.380 380.000,20.000 377.480,20.000 375.987 C 20.000 375.334,19.820 374.800,19.600 374.800 C 19.334 374.800,19.200 316.267,19.200 200.000 C 19.200 83.733,19.334 25.200,19.600 25.200 C 19.820 25.200,20.000 24.694,20.000 24.075 C 20.000 23.457,20.360 22.564,20.800 22.092 C 21.704 21.122,21.848 20.613,21.100 21.035 C 20.704 21.258,20.702 21.207,21.090 20.788 C 21.360 20.497,22.350 20.189,23.290 20.103 C 24.231 20.017,25.060 19.778,25.133 19.573 C 25.323 19.043,224.800 19.070,224.800 19.600 M39.817 25.324 C 37.705 26.608,37.132 27.944,37.238 31.336 C 37.349 34.878,37.543 35.276,40.298 37.606 C 40.981 38.185,46.063 38.031,45.711 37.442 C 45.566 37.199,45.780 37.270,46.188 37.600 C 46.754 38.058,46.970 38.081,47.098 37.700 C 47.191 37.425,47.482 37.200,47.744 37.200 C 48.292 37.200,49.600 35.787,49.600 35.195 C 49.600 34.978,49.787 34.800,50.016 34.800 C 50.276 34.800,50.407 33.538,50.365 31.430 C 50.294 27.815,48.840 24.903,47.386 25.461 C 47.064 25.584,46.800 25.486,46.800 25.243 C 46.800 24.635,40.835 24.704,39.817 25.324 M58.617 25.324 C 57.444 26.037,56.800 26.692,56.800 27.171 C 56.800 27.407,56.620 27.600,56.400 27.600 C 56.163 27.600,56.000 29.067,56.000 31.200 C 56.000 33.333,56.163 34.800,56.400 34.800 C 56.620 34.800,56.800 35.061,56.800 35.380 C 56.800 37.426,63.381 38.896,66.138 37.466 C 66.870 37.086,67.074 36.813,66.728 36.674 C 66.438 36.558,66.599 36.449,67.087 36.432 C 67.721 36.409,67.906 36.222,67.735 35.776 C 67.579 35.369,67.768 35.081,68.277 34.948 C 69.155 34.718,69.670 27.600,68.809 27.600 C 68.584 27.600,68.400 27.407,68.400 27.171 C 68.400 26.408,67.283 25.600,66.229 25.600 C 65.663 25.600,65.200 25.420,65.200 25.200 C 65.200 24.635,59.576 24.740,58.617 25.324 M77.600 25.200 C 77.600 25.420,77.407 25.600,77.171 25.600 C 76.618 25.600,75.600 26.618,75.600 27.171 C 75.600 27.407,75.420 27.600,75.200 27.600 C 74.963 27.600,74.800 29.067,74.800 31.200 C 74.800 34.027,74.921 34.800,75.363 34.800 C 75.716 34.800,75.852 35.079,75.729 35.551 C 75.585 36.101,75.863 36.450,76.766 36.849 C 77.445 37.149,78.000 37.498,78.000 37.624 C 78.000 37.749,79.530 37.889,81.400 37.934 C 84.267 38.004,84.800 37.918,84.800 37.385 C 84.800 37.037,84.973 36.860,85.185 36.991 C 85.397 37.122,85.944 36.856,86.400 36.400 C 86.856 35.944,87.122 35.397,86.991 35.185 C 86.860 34.973,87.037 34.800,87.385 34.800 C 87.918 34.800,88.004 34.267,87.934 31.400 C 87.889 29.530,87.749 28.000,87.624 28.000 C 87.498 28.000,87.149 27.445,86.849 26.766 C 86.450 25.863,86.101 25.585,85.551 25.729 C 85.079 25.852,84.800 25.716,84.800 25.363 C 84.800 24.921,84.027 24.800,81.200 24.800 C 79.067 24.800,77.600 24.963,77.600 25.200 M206.000 75.241 L 206.000 93.681 201.300 93.541 C 197.768 93.435,196.624 93.521,196.695 93.886 C 196.748 94.153,196.540 94.275,196.234 94.158 C 195.913 94.034,195.233 94.504,194.622 95.272 L 193.565 96.600 193.580 143.399 C 193.590 174.601,193.730 190.243,194.000 190.333 C 194.223 190.408,194.298 190.641,194.168 190.852 C 193.782 191.476,195.151 193.200,196.033 193.200 C 196.508 193.200,196.737 193.378,196.583 193.627 C 196.438 193.861,196.563 194.020,196.860 193.979 C 197.157 193.939,199.335 193.927,201.700 193.953 L 206.000 194.000 206.000 256.200 L 206.000 318.400 125.000 318.400 L 44.000 318.400 44.000 187.600 L 44.000 56.800 125.000 56.800 L 206.000 56.800 206.000 75.241 M288.229 82.171 C 288.543 82.486,288.800 83.366,288.800 84.129 C 288.800 84.958,289.029 85.602,289.369 85.733 C 289.749 85.879,289.876 86.345,289.750 87.140 C 289.647 87.795,289.751 88.446,289.982 88.589 C 290.212 88.731,290.400 89.467,290.400 90.224 C 290.400 90.981,290.580 91.600,290.800 91.600 C 291.020 91.600,291.200 92.050,291.200 92.600 L 291.200 93.600 275.000 93.600 L 258.800 93.600 258.800 92.600 C 258.800 92.050,258.980 91.600,259.200 91.600 C 259.420 91.600,259.600 90.981,259.600 90.224 C 259.600 89.467,259.768 88.743,259.973 88.617 C 260.178 88.490,260.330 87.814,260.310 87.114 C 260.290 86.414,260.482 85.773,260.737 85.688 C 260.992 85.603,261.200 84.911,261.200 84.150 C 261.200 81.574,260.886 81.632,274.929 81.615 C 285.441 81.603,287.757 81.699,288.229 82.171 M118.400 87.600 C 118.400 87.820,117.860 88.000,117.200 88.000 C 116.540 88.000,116.000 88.180,116.000 88.400 C 116.000 88.620,115.550 88.800,115.000 88.800 C 114.450 88.800,114.000 88.980,114.000 89.200 C 114.000 89.420,113.662 89.600,113.249 89.600 C 112.504 89.600,111.442 90.509,111.786 90.853 C 111.885 90.952,111.568 91.062,111.083 91.098 C 110.597 91.134,109.885 91.552,109.500 92.026 C 109.115 92.501,108.795 92.734,108.788 92.544 C 108.781 92.355,108.592 92.515,108.368 92.900 C 108.144 93.285,107.776 93.600,107.552 93.600 C 107.115 93.600,106.000 94.588,106.000 94.975 C 106.000 95.103,105.460 95.772,104.800 96.463 C 104.140 97.154,103.600 98.069,103.600 98.497 C 103.600 98.938,103.254 99.365,102.800 99.484 C 102.360 99.599,102.000 100.022,102.000 100.423 C 102.000 100.824,101.820 101.264,101.600 101.400 C 101.380 101.536,101.200 102.087,101.200 102.624 C 101.200 103.161,101.020 103.600,100.800 103.600 C 100.580 103.600,100.400 104.129,100.400 104.776 C 100.400 105.423,100.215 106.067,99.989 106.207 C 99.764 106.346,99.605 106.672,99.637 106.930 C 99.669 107.189,99.673 111.315,99.647 116.100 L 99.600 124.800 88.995 124.800 C 78.450 124.800,77.529 124.902,76.215 126.215 C 75.478 126.953,74.800 128.369,74.800 129.171 C 74.800 129.601,74.601 130.076,74.357 130.226 C 74.049 130.417,74.079 130.604,74.457 130.844 C 74.804 131.064,74.832 131.190,74.533 131.194 C 74.248 131.198,74.067 131.899,74.067 133.003 C 74.067 134.260,74.208 134.727,74.533 134.544 C 74.835 134.375,74.823 134.473,74.500 134.821 C 74.211 135.133,74.000 136.413,74.000 137.856 C 74.000 139.229,73.820 140.464,73.600 140.600 C 72.999 140.972,73.090 144.799,73.700 144.806 C 74.048 144.810,74.066 144.902,73.758 145.106 C 73.514 145.268,73.283 146.563,73.243 147.985 C 73.201 149.498,72.969 150.702,72.685 150.885 C 72.319 151.123,72.347 151.296,72.800 151.594 C 73.201 151.857,73.234 151.990,72.900 151.994 C 72.612 151.997,72.400 152.510,72.400 153.200 C 72.400 153.860,72.580 154.400,72.800 154.400 C 73.020 154.400,73.200 154.591,73.200 154.824 C 73.200 155.057,73.020 155.136,72.800 155.000 C 72.477 154.800,72.116 160.201,72.353 161.700 C 72.379 161.865,72.250 162.000,72.066 162.000 C 71.883 162.000,71.697 163.928,71.654 166.284 C 71.610 168.640,71.406 170.673,71.199 170.801 C 70.992 170.928,70.826 173.136,70.831 175.707 C 70.835 178.278,70.672 180.701,70.468 181.091 C 70.265 181.481,70.087 183.866,70.075 186.392 C 70.060 189.260,69.891 191.036,69.625 191.125 C 69.391 191.203,69.203 192.197,69.206 193.333 C 69.211 194.815,69.322 195.230,69.600 194.800 C 69.931 194.287,69.989 194.302,69.994 194.900 C 69.997 195.285,69.865 195.600,69.700 195.601 C 69.535 195.601,69.340 196.905,69.267 198.499 C 69.194 200.094,68.996 201.578,68.828 201.799 C 68.275 202.524,68.307 206.805,68.870 207.500 C 69.183 207.886,69.209 208.039,68.933 207.874 C 68.589 207.667,68.459 208.729,68.438 211.897 C 68.423 214.264,68.549 215.982,68.719 215.716 C 68.942 215.367,69.164 215.450,69.517 216.016 C 69.881 216.598,69.887 216.800,69.541 216.800 C 69.274 216.800,69.384 217.140,69.800 217.600 C 70.198 218.040,70.766 218.400,71.062 218.400 C 71.358 218.400,71.600 218.577,71.600 218.794 C 71.600 219.051,90.198 219.192,125.044 219.197 C 173.284 219.205,178.464 219.145,178.248 218.582 C 178.111 218.224,178.177 218.062,178.405 218.203 C 178.622 218.337,178.800 218.262,178.800 218.036 C 178.800 217.810,179.067 217.728,179.394 217.853 C 179.784 218.003,180.125 217.723,180.385 217.041 C 180.602 216.468,180.955 216.000,181.169 216.000 C 181.669 216.000,181.665 202.087,181.164 201.778 C 180.964 201.654,180.800 200.318,180.800 198.810 C 180.800 196.990,180.632 195.999,180.300 195.865 C 179.900 195.704,179.900 195.657,180.300 195.632 C 180.621 195.611,180.800 194.956,180.800 193.800 C 180.800 192.630,180.625 191.998,180.300 191.994 C 179.934 191.989,179.946 191.895,180.345 191.642 C 180.686 191.426,180.729 191.241,180.461 191.148 C 180.191 191.055,180.010 189.214,179.975 186.200 C 179.944 183.560,179.757 181.201,179.559 180.958 C 179.361 180.715,179.175 179.496,179.147 178.249 C 179.118 177.002,178.929 175.880,178.728 175.755 C 178.515 175.624,178.546 175.307,178.801 174.999 C 179.299 174.399,179.230 170.734,178.726 171.045 C 178.387 171.255,178.241 168.420,178.368 164.066 C 178.408 162.672,178.245 161.295,178.005 161.006 C 177.745 160.693,177.569 158.580,177.569 155.763 C 177.569 153.168,177.390 150.829,177.171 150.565 C 176.951 150.301,176.770 148.049,176.768 145.561 C 176.766 143.074,176.590 140.829,176.378 140.573 C 176.166 140.318,175.963 137.916,175.928 135.236 C 175.892 132.555,175.714 130.270,175.532 130.158 C 175.349 130.045,175.200 129.601,175.200 129.171 C 175.200 127.879,173.687 125.600,172.829 125.600 C 172.593 125.600,172.400 125.420,172.400 125.200 C 172.400 124.943,168.467 124.800,161.400 124.800 L 150.400 124.800 150.351 117.100 C 150.291 107.487,150.255 106.829,149.731 105.600 C 149.497 105.050,149.391 104.375,149.495 104.100 C 149.600 103.825,149.486 103.600,149.243 103.600 C 148.999 103.600,148.800 103.330,148.800 103.000 C 148.800 102.670,148.620 102.400,148.400 102.400 C 148.180 102.400,148.000 102.209,148.000 101.976 C 148.000 101.743,148.180 101.664,148.400 101.800 C 148.620 101.936,148.800 101.876,148.800 101.666 C 148.800 101.457,148.533 101.183,148.207 101.058 C 147.880 100.933,147.703 100.597,147.812 100.312 C 147.922 100.027,147.604 99.616,147.105 99.397 C 146.607 99.179,146.198 98.689,146.196 98.308 C 146.193 97.927,145.878 97.250,145.496 96.803 C 145.113 96.356,144.800 95.813,144.800 95.595 C 144.800 95.378,144.395 95.197,143.900 95.194 C 143.172 95.189,143.115 95.114,143.600 94.800 C 144.193 94.417,143.735 94.189,142.700 94.353 C 142.535 94.379,142.421 94.265,142.447 94.100 C 142.580 93.263,142.320 92.828,141.538 92.580 C 141.063 92.430,140.268 91.867,139.771 91.331 C 139.274 90.794,138.500 90.328,138.051 90.294 C 137.602 90.260,137.314 90.153,137.411 90.056 C 137.684 89.783,135.603 88.800,134.754 88.800 C 134.339 88.800,134.000 88.620,134.000 88.400 C 134.000 88.180,133.460 88.000,132.800 88.000 C 132.140 88.000,131.600 87.820,131.600 87.600 C 131.600 87.349,129.133 87.200,125.000 87.200 C 120.867 87.200,118.400 87.349,118.400 87.600 M124.165 100.900 C 123.939 101.300,123.990 101.300,124.421 100.900 C 125.065 100.303,126.400 100.235,126.400 100.800 C 126.400 101.020,126.670 101.200,127.000 101.200 C 127.330 101.200,127.600 100.992,127.600 100.739 C 127.600 100.485,127.955 100.686,128.388 101.186 C 128.866 101.738,129.425 101.999,129.809 101.852 C 130.177 101.711,130.339 101.776,130.195 102.007 C 130.060 102.226,130.276 102.530,130.675 102.683 C 131.074 102.835,131.742 103.277,132.161 103.666 C 132.579 104.054,133.102 104.261,133.322 104.124 C 133.543 103.988,133.610 104.060,133.471 104.285 C 133.332 104.509,133.575 105.015,134.009 105.409 C 134.444 105.802,134.800 106.366,134.800 106.662 C 134.800 106.958,134.980 107.200,135.200 107.200 C 135.420 107.200,135.600 107.545,135.600 107.967 C 135.600 108.388,135.802 108.801,136.048 108.883 C 136.295 108.965,136.486 109.786,136.473 110.708 C 136.461 111.630,136.619 112.488,136.825 112.616 C 137.031 112.743,137.200 115.537,137.200 118.824 L 137.200 124.800 125.000 124.800 L 112.800 124.800 112.800 118.824 C 112.800 115.133,112.958 112.749,113.214 112.591 C 113.442 112.450,113.586 111.618,113.534 110.740 C 113.476 109.748,113.644 109.020,113.978 108.813 C 114.274 108.630,114.406 108.193,114.271 107.840 C 114.114 107.432,114.238 107.200,114.613 107.200 C 114.936 107.200,115.200 106.950,115.200 106.645 C 115.200 106.340,115.738 105.665,116.396 105.145 C 117.566 104.221,118.091 103.258,117.100 103.853 C 116.760 104.057,116.776 103.937,117.149 103.477 C 117.743 102.744,118.202 102.549,117.800 103.200 C 117.420 103.816,117.903 103.675,118.795 102.911 C 119.238 102.532,119.600 101.970,119.600 101.662 C 119.600 101.225,119.724 101.205,120.164 101.570 C 120.550 101.891,120.811 101.906,120.988 101.619 C 121.131 101.389,121.777 101.200,122.424 101.200 C 123.071 101.200,123.600 101.020,123.600 100.800 C 123.600 100.580,123.791 100.400,124.024 100.400 C 124.257 100.400,124.320 100.625,124.165 100.900 M343.600 143.800 L 343.600 180.800 275.200 180.800 L 206.800 180.800 206.800 143.800 L 206.800 106.800 275.200 106.800 L 343.600 106.800 343.600 143.800 M267.751 112.583 C 267.637 112.882,267.144 113.002,266.521 112.883 C 265.949 112.773,265.580 112.845,265.701 113.042 C 265.822 113.239,265.412 113.419,264.789 113.441 C 263.146 113.501,260.801 114.720,260.794 115.519 C 260.789 116.048,260.712 116.080,260.447 115.663 C 260.092 115.103,258.400 115.791,258.400 116.496 C 258.400 116.663,258.080 116.800,257.688 116.800 C 257.297 116.800,256.717 117.160,256.400 117.600 C 256.083 118.040,255.616 118.400,255.364 118.400 C 254.764 118.400,249.600 123.564,249.600 124.164 C 249.600 124.416,249.240 124.883,248.800 125.200 C 248.360 125.517,248.003 126.052,248.006 126.388 C 248.012 126.930,248.061 126.931,248.437 126.400 C 248.814 125.867,248.841 125.867,248.680 126.400 C 248.581 126.730,248.299 126.956,248.054 126.901 C 247.401 126.757,245.498 129.967,245.725 130.833 C 245.831 131.240,245.801 131.534,245.659 131.486 C 245.517 131.439,245.369 131.544,245.332 131.721 C 245.295 131.898,244.957 132.511,244.582 133.083 C 243.969 134.019,243.966 134.099,244.550 133.874 C 245.284 133.593,245.371 133.916,244.800 134.800 C 244.455 135.333,244.407 135.333,244.365 134.800 C 244.339 134.470,244.158 134.830,243.962 135.600 C 243.454 137.595,243.263 141.592,243.664 141.840 C 243.850 141.955,243.914 142.443,243.806 142.925 C 243.365 144.880,243.272 148.187,243.638 148.871 C 243.899 149.358,243.891 149.600,243.614 149.600 C 243.386 149.600,243.200 149.791,243.200 150.024 C 243.200 150.257,243.378 150.337,243.595 150.203 C 243.822 150.063,243.889 150.223,243.753 150.579 C 243.622 150.921,243.689 151.200,243.902 151.200 C 244.115 151.200,244.198 151.677,244.087 152.259 C 243.947 152.991,244.026 153.231,244.342 153.036 C 244.657 152.841,244.800 153.250,244.800 154.343 C 244.800 155.602,245.029 156.113,245.900 156.796 C 246.505 157.271,246.768 157.541,246.484 157.396 C 245.648 156.970,246.387 159.274,247.364 160.144 C 247.824 160.552,248.149 161.066,248.086 161.285 C 248.024 161.503,248.339 162.000,248.786 162.388 C 249.234 162.776,249.600 163.311,249.600 163.575 C 249.600 164.292,250.641 165.199,251.471 165.206 C 252.088 165.211,252.108 165.272,251.600 165.600 C 251.091 165.929,251.110 165.989,251.724 165.994 C 252.122 165.997,252.336 166.180,252.200 166.400 C 252.064 166.620,252.263 166.800,252.643 166.800 C 253.023 166.800,253.223 166.910,253.089 167.044 C 252.796 167.337,254.927 169.200,255.554 169.200 C 255.796 169.200,256.218 169.560,256.493 170.000 C 256.768 170.440,257.309 170.800,257.696 170.800 C 258.083 170.800,258.400 170.983,258.400 171.208 C 258.400 171.437,258.880 171.522,259.500 171.401 C 260.373 171.232,260.435 171.260,259.800 171.540 C 258.962 171.910,261.166 173.169,262.900 173.312 C 263.285 173.344,263.600 173.523,263.600 173.709 C 263.600 173.895,263.760 173.949,263.955 173.828 C 264.150 173.707,264.522 173.865,264.781 174.178 C 265.356 174.870,264.892 174.828,274.338 175.059 C 281.457 175.234,282.123 175.191,282.668 174.525 C 282.993 174.126,283.152 174.014,283.021 174.276 C 282.872 174.573,283.087 174.729,283.591 174.691 C 284.036 174.657,284.400 174.477,284.400 174.291 C 284.400 174.105,284.565 174.055,284.766 174.179 C 285.293 174.505,287.291 173.672,287.024 173.238 C 286.900 173.038,287.121 172.959,287.515 173.062 C 288.322 173.273,291.749 171.483,291.334 171.068 C 291.187 170.920,291.470 170.800,291.962 170.800 C 292.897 170.800,294.000 169.956,294.000 169.241 C 294.000 169.012,294.281 168.933,294.624 169.065 C 295.040 169.224,295.322 169.022,295.469 168.456 C 295.591 167.990,295.839 167.700,296.020 167.812 C 296.497 168.107,300.400 164.000,300.400 163.203 C 300.400 162.982,300.591 162.800,300.824 162.800 C 301.057 162.800,301.136 162.620,301.000 162.400 C 300.864 162.180,301.033 162.000,301.376 162.000 C 301.794 162.000,302.000 161.627,302.000 160.872 C 302.000 160.164,302.377 159.417,303.011 158.865 C 303.568 158.381,304.130 157.452,304.260 156.799 C 304.391 156.147,304.669 155.719,304.879 155.849 C 305.105 155.989,305.181 155.577,305.066 154.843 C 304.958 154.159,305.046 153.600,305.262 153.600 C 305.477 153.600,305.541 153.244,305.403 152.809 C 305.242 152.301,305.438 151.711,305.953 151.159 C 306.855 150.190,307.258 137.131,306.403 136.602 C 306.181 136.465,306.000 135.733,306.000 134.976 C 306.000 134.219,305.826 133.600,305.613 133.600 C 305.399 133.600,305.322 133.852,305.440 134.160 C 305.558 134.467,305.490 134.821,305.289 134.945 C 305.083 135.072,304.990 134.505,305.075 133.646 C 305.175 132.654,305.028 131.955,304.655 131.646 C 304.340 131.384,304.175 130.817,304.288 130.385 C 304.401 129.951,304.294 129.600,304.047 129.600 C 303.801 129.600,303.600 129.336,303.600 129.013 C 303.600 128.634,303.351 128.505,302.900 128.650 C 302.326 128.835,302.305 128.801,302.784 128.462 C 303.290 128.104,303.277 127.948,302.684 127.293 C 302.308 126.877,302.000 126.316,302.000 126.045 C 302.000 125.774,301.820 125.664,301.600 125.800 C 301.380 125.936,301.200 125.767,301.200 125.424 C 301.200 125.081,301.064 124.800,300.898 124.800 C 300.731 124.800,300.351 124.248,300.053 123.574 C 299.701 122.781,299.307 122.427,298.934 122.570 C 298.605 122.696,298.466 122.617,298.610 122.384 C 298.872 121.960,295.363 118.400,294.683 118.400 C 294.469 118.400,293.967 118.023,293.568 117.563 C 293.169 117.103,292.652 116.844,292.418 116.989 C 292.185 117.133,291.887 116.970,291.755 116.628 C 291.624 116.285,291.355 116.104,291.158 116.226 C 290.961 116.348,290.800 116.147,290.800 115.781 C 290.800 115.359,290.584 115.197,290.213 115.340 C 289.890 115.464,289.512 115.382,289.374 115.158 C 289.015 114.578,287.189 113.864,285.910 113.804 C 285.310 113.776,284.680 113.600,284.510 113.412 C 284.339 113.225,284.453 113.218,284.762 113.398 C 285.140 113.617,285.230 113.572,285.038 113.262 C 284.881 113.008,284.259 112.800,283.656 112.800 C 283.053 112.800,282.337 112.577,282.063 112.303 C 281.668 111.908,281.490 111.928,281.189 112.403 C 280.982 112.732,280.809 112.802,280.806 112.560 C 280.797 111.894,268.007 111.916,267.751 112.583 M318.400 118.600 L 318.400 125.200 325.000 125.200 L 331.600 125.200 331.600 118.600 L 331.600 112.000 325.000 112.000 L 318.400 112.000 318.400 118.600 M272.889 125.853 C 273.489 125.873,273.883 125.734,273.766 125.545 C 273.649 125.355,274.204 125.200,275.000 125.200 C 275.796 125.200,276.363 125.336,276.260 125.502 C 276.157 125.669,276.906 125.831,277.923 125.862 C 278.940 125.893,279.839 126.117,279.920 126.359 C 280.001 126.602,280.401 126.800,280.810 126.800 C 281.218 126.800,281.672 126.992,281.817 127.227 C 281.962 127.462,282.333 127.558,282.640 127.440 C 282.963 127.316,283.200 127.474,283.200 127.813 C 283.200 128.136,283.545 128.400,283.967 128.400 C 284.388 128.400,284.797 128.590,284.874 128.822 C 284.951 129.054,285.281 129.283,285.607 129.331 C 286.256 129.427,289.305 132.240,289.117 132.570 C 289.053 132.682,289.315 133.142,289.700 133.592 C 290.085 134.041,290.400 134.688,290.400 135.028 C 290.400 135.369,290.580 135.536,290.800 135.400 C 291.020 135.264,291.200 135.513,291.200 135.953 C 291.200 136.393,291.380 136.864,291.600 137.000 C 291.820 137.136,292.000 137.597,292.000 138.024 C 292.000 138.451,292.153 138.800,292.340 138.800 C 292.527 138.800,292.662 140.510,292.640 142.600 C 292.616 144.890,292.759 146.403,293.000 146.406 C 293.220 146.410,293.194 146.544,292.943 146.706 C 292.691 146.868,292.541 147.496,292.608 148.102 C 292.675 148.708,292.566 149.102,292.365 148.978 C 292.164 148.854,292.000 149.224,292.000 149.800 C 292.000 150.498,291.844 150.751,291.532 150.558 C 291.215 150.362,291.148 150.489,291.325 150.950 C 291.488 151.374,291.359 151.718,290.981 151.863 C 290.601 152.008,290.465 152.375,290.615 152.847 C 290.746 153.261,290.707 153.606,290.527 153.613 C 289.592 153.649,288.608 154.834,289.202 155.210 C 289.716 155.534,289.705 155.589,289.127 155.594 C 288.757 155.597,288.336 155.973,288.191 156.429 C 288.033 156.927,287.703 157.172,287.364 157.041 C 287.054 156.922,286.800 156.969,286.800 157.145 C 286.800 157.321,286.344 157.709,285.786 158.007 C 285.228 158.306,284.855 158.766,284.956 159.030 C 285.068 159.322,284.874 159.440,284.460 159.332 C 284.086 159.234,283.245 159.433,282.590 159.774 C 281.936 160.116,281.085 160.396,280.700 160.398 C 280.243 160.399,279.998 160.713,279.994 161.300 C 279.990 161.815,279.862 162.013,279.694 161.762 C 279.266 161.124,270.723 161.081,270.321 161.714 C 270.123 162.025,270.010 161.877,270.006 161.300 C 270.002 160.632,269.765 160.400,269.089 160.400 C 268.588 160.400,267.778 160.120,267.289 159.777 C 266.704 159.368,266.400 159.314,266.400 159.620 C 266.400 159.875,265.878 159.526,265.240 158.842 C 264.601 158.159,263.746 157.597,263.340 157.594 C 262.750 157.589,262.714 157.515,263.165 157.230 C 263.599 156.955,263.506 156.841,262.765 156.736 C 262.234 156.661,261.800 156.401,261.800 156.159 C 261.800 155.494,260.277 153.600,259.743 153.600 C 259.472 153.600,259.363 153.263,259.484 152.800 C 259.599 152.360,259.500 152.000,259.265 152.000 C 259.029 152.000,258.718 151.368,258.573 150.596 C 258.428 149.823,258.150 149.093,257.955 148.972 C 257.760 148.851,257.600 148.349,257.600 147.856 C 257.600 147.363,257.375 146.718,257.100 146.421 C 256.825 146.125,256.780 145.982,257.000 146.103 C 257.697 146.488,257.501 140.842,256.800 140.348 C 256.302 139.997,256.324 139.965,256.926 140.160 C 257.497 140.345,257.601 140.234,257.414 139.645 C 257.270 139.191,257.397 138.810,257.737 138.680 C 258.045 138.561,258.421 137.955,258.573 137.332 C 259.065 135.313,260.141 133.200,260.677 133.200 C 260.965 133.200,261.200 132.930,261.200 132.600 C 261.200 132.270,261.380 132.000,261.600 132.000 C 261.820 132.000,262.000 131.730,262.000 131.400 C 262.000 131.070,262.266 130.800,262.591 130.800 C 262.916 130.800,263.475 130.352,263.835 129.803 C 264.194 129.255,264.648 128.906,264.844 129.027 C 265.040 129.148,265.200 129.057,265.200 128.824 C 265.200 128.591,265.476 128.400,265.813 128.400 C 266.149 128.400,266.524 128.141,266.646 127.825 C 266.767 127.509,267.117 127.347,267.423 127.464 C 267.729 127.582,268.269 127.389,268.622 127.035 C 268.975 126.682,269.430 126.495,269.632 126.620 C 269.835 126.745,270.000 126.657,270.000 126.424 C 270.000 126.191,270.270 126.000,270.600 126.000 C 270.930 126.000,271.203 125.775,271.206 125.500 C 271.210 125.183,271.320 125.149,271.506 125.409 C 271.668 125.633,272.290 125.833,272.889 125.853 M99.600 147.400 L 99.600 156.800 105.567 156.800 C 113.660 156.800,112.800 157.947,112.800 147.157 L 112.800 138.000 125.000 138.000 L 137.200 138.000 137.247 147.100 C 137.273 152.105,137.279 156.319,137.259 156.465 C 137.239 156.611,140.188 156.753,143.812 156.780 L 150.400 156.831 150.400 147.415 L 150.400 138.000 156.200 138.000 L 162.000 138.000 162.046 139.100 C 162.071 139.705,162.058 140.526,162.017 140.924 C 161.975 141.322,162.163 141.915,162.434 142.241 C 162.705 142.567,162.914 143.636,162.899 144.617 C 162.883 145.673,163.053 146.400,163.316 146.400 C 163.621 146.400,163.610 146.550,163.280 146.880 C 162.746 147.414,162.606 152.167,163.133 151.841 C 163.554 151.581,163.594 152.022,163.634 157.399 C 163.654 160.022,163.849 162.018,164.117 162.341 C 164.404 162.686,164.540 164.563,164.492 167.510 C 164.447 170.275,164.586 172.342,164.837 172.645 C 165.075 172.932,165.267 175.164,165.279 177.784 C 165.291 180.331,165.458 182.512,165.650 182.631 C 165.843 182.750,166.000 184.108,166.000 185.650 C 166.000 187.191,166.198 188.822,166.440 189.275 C 166.760 189.872,166.760 190.022,166.440 189.825 C 165.837 189.452,165.861 191.701,166.467 192.307 C 166.774 192.614,166.931 194.490,166.926 197.787 C 166.922 200.544,167.072 202.800,167.259 202.800 C 167.447 202.800,167.600 203.520,167.600 204.400 L 167.600 206.000 125.000 206.000 L 82.400 206.000 82.400 204.400 C 82.400 203.520,82.580 202.800,82.800 202.800 C 83.020 202.800,83.200 202.440,83.200 202.000 C 83.200 201.560,82.975 201.197,82.700 201.194 C 82.332 201.189,82.343 201.097,82.743 200.844 C 83.122 200.603,83.152 200.417,82.842 200.226 C 82.526 200.030,82.519 199.725,82.820 199.163 C 83.052 198.730,83.204 197.103,83.159 195.549 C 83.106 193.717,83.244 192.620,83.552 192.430 C 83.878 192.228,84.010 190.751,83.972 187.719 C 83.942 185.289,84.089 182.963,84.297 182.551 C 84.506 182.138,84.689 179.845,84.704 177.455 C 84.719 174.896,84.909 172.931,85.165 172.675 C 85.759 172.081,85.715 169.484,85.100 168.821 C 84.825 168.525,84.801 168.395,85.046 168.531 C 85.354 168.703,85.514 167.832,85.563 165.711 C 85.602 164.022,85.800 162.441,86.003 162.196 C 86.207 161.951,86.352 159.539,86.325 156.837 C 86.297 153.960,86.443 151.814,86.676 151.661 C 87.206 151.314,87.327 147.874,86.798 148.201 C 86.579 148.337,86.400 148.257,86.400 148.024 C 86.400 147.791,86.594 147.600,86.832 147.600 C 87.106 147.600,87.216 146.749,87.133 145.260 C 87.050 143.783,87.189 142.696,87.508 142.311 C 87.786 141.976,87.985 141.184,87.950 140.551 C 87.802 137.839,87.432 138.000,93.800 138.000 L 99.600 138.000 99.600 147.400 M256.000 240.600 L 256.000 262.800 278.200 262.800 L 300.400 262.800 300.400 240.600 L 300.400 218.400 278.200 218.400 L 256.000 218.400 256.000 240.600 M349.690 224.900 L 349.800 231.400 365.300 231.505 L 380.800 231.609 380.800 247.215 L 380.800 262.820 387.300 262.710 L 393.800 262.600 393.903 240.500 L 394.007 218.400 371.793 218.400 L 349.580 218.400 349.690 224.900 M287.200 240.600 L 287.200 249.600 278.200 249.600 L 269.200 249.600 269.200 240.600 L 269.200 231.600 278.200 231.600 L 287.200 231.600 287.200 240.600 M318.667 237.467 C 318.520 237.613,318.400 240.583,318.400 244.067 L 318.400 250.400 325.000 250.400 L 331.600 250.400 331.600 243.800 L 331.600 237.200 325.267 237.200 C 321.783 237.200,318.813 237.320,318.667 237.467 M337.200 265.395 L 337.200 274.800 331.000 274.800 L 324.800 274.800 324.800 281.410 L 324.800 288.020 337.600 287.989 L 350.400 287.958 350.400 278.579 L 350.400 269.200 359.810 269.200 L 369.220 269.200 369.110 262.700 L 369.000 256.200 353.100 256.095 L 337.200 255.991 337.200 265.395 M287.467 268.667 C 287.320 268.813,287.200 271.783,287.200 275.267 L 287.200 281.600 293.400 281.600 L 299.600 281.600 299.600 287.810 L 299.600 294.020 306.100 293.910 L 312.600 293.800 312.710 287.300 L 312.820 280.800 306.610 280.800 L 300.400 280.800 300.400 274.600 L 300.400 268.400 294.067 268.400 C 290.583 268.400,287.613 268.520,287.467 268.667 M256.000 300.000 L 256.000 312.800 265.400 312.800 L 274.800 312.800 274.800 318.800 L 274.800 324.800 268.400 324.800 L 262.000 324.800 262.000 331.400 L 262.000 338.000 268.600 338.000 L 275.200 338.000 275.200 331.600 L 275.200 325.200 281.600 325.200 L 288.000 325.200 288.000 312.400 L 288.000 299.600 278.600 299.600 L 269.200 299.600 269.200 294.033 C 269.200 286.508,269.893 287.200,262.357 287.200 L 256.000 287.200 256.000 300.000 M349.600 315.561 L 349.600 338.007 371.700 337.903 L 393.800 337.800 393.903 315.700 L 394.007 293.600 372.436 293.600 C 360.572 293.600,350.581 293.491,350.233 293.357 C 349.660 293.138,349.600 295.257,349.600 315.561 M312.000 312.200 L 312.000 324.800 305.800 324.800 L 299.600 324.800 299.600 331.400 L 299.600 338.000 312.400 338.000 L 325.200 338.000 325.200 331.600 L 325.200 325.200 331.600 325.200 L 338.000 325.200 338.000 318.600 L 338.000 312.000 331.600 312.000 L 325.200 312.000 325.200 305.800 L 325.200 299.600 318.600 299.600 L 312.000 299.600 312.000 312.200 M380.800 315.800 L 380.800 324.800 371.800 324.800 L 362.800 324.800 362.800 315.800 L 362.800 306.800 371.800 306.800 L 380.800 306.800 380.800 315.800 M90.400 337.501 C 90.400 337.671,89.995 337.988,89.500 338.205 C 89.005 338.422,88.422 339.005,88.205 339.500 C 87.988 339.995,87.673 340.400,87.505 340.400 C 86.994 340.400,87.130 370.710,87.643 371.026 C 87.951 371.217,87.921 371.404,87.543 371.644 C 87.143 371.897,87.132 371.989,87.500 371.994 C 87.775 371.997,88.000 372.294,88.000 372.653 C 88.000 373.512,89.604 374.884,90.297 374.618 C 90.597 374.503,90.730 374.589,90.595 374.809 C 90.158 375.516,159.425 375.318,160.132 374.611 C 160.447 374.296,160.816 374.150,160.952 374.286 C 161.089 374.422,161.200 374.223,161.200 373.843 C 161.200 373.432,161.383 373.266,161.652 373.432 C 161.926 373.601,162.031 373.494,161.920 373.159 C 161.819 372.856,161.967 372.376,162.250 372.093 C 162.910 371.433,163.065 340.800,162.408 340.800 C 162.184 340.800,162.000 340.468,162.000 340.062 C 162.000 339.311,161.303 338.592,159.719 337.709 C 158.715 337.148,90.400 336.944,90.400 337.501 M149.600 356.200 L 149.600 362.000 125.000 362.000 L 100.400 362.000 100.400 356.200 L 100.400 350.400 125.000 350.400 L 149.600 350.400 149.600 356.200 " stroke="none" fill="#248cbc" fill-rule="evenodd"></path><path id="path1" d="M84.332 43.500 C 106.844 43.557,143.564 43.557,165.932 43.500 C 188.299 43.443,169.880 43.396,125.000 43.396 C 80.120 43.396,61.819 43.443,84.332 43.500 M305.943 93.303 C 306.110 93.470,316.136 93.560,328.223 93.503 L 350.200 93.400 327.920 93.200 C 315.666 93.090,305.776 93.137,305.943 93.303 M201.511 93.493 C 202.451 93.578,203.891 93.577,204.711 93.491 C 205.530 93.405,204.760 93.336,203.000 93.337 C 201.240 93.339,200.570 93.409,201.511 93.493 M222.118 93.498 C 223.833 93.573,226.533 93.572,228.118 93.497 C 229.703 93.421,228.300 93.359,225.000 93.360 C 221.700 93.361,220.403 93.422,222.118 93.498 M266.927 93.500 C 271.507 93.564,278.887 93.564,283.327 93.499 C 287.767 93.435,284.020 93.383,275.000 93.383 C 265.980 93.383,262.347 93.435,266.927 93.500 M146.000 98.302 C 146.000 98.522,146.270 98.926,146.600 99.200 C 146.935 99.478,147.200 99.521,147.200 99.298 C 147.200 99.078,146.930 98.674,146.600 98.400 C 146.265 98.122,146.000 98.079,146.000 98.302 M193.393 143.600 C 193.393 167.690,193.441 177.545,193.500 165.500 C 193.559 153.455,193.559 133.745,193.500 121.700 C 193.441 109.655,193.393 119.510,193.393 143.600 M123.600 100.798 C 123.600 100.946,124.230 101.067,125.000 101.067 C 125.770 101.067,126.400 100.922,126.400 100.746 C 126.400 100.569,125.770 100.448,125.000 100.477 C 124.230 100.506,123.600 100.650,123.600 100.798 M343.392 143.800 C 343.392 164.260,343.441 172.571,343.500 162.270 C 343.559 151.968,343.559 135.228,343.500 125.070 C 343.440 114.911,343.392 123.340,343.392 143.800 M273.439 125.537 C 273.324 125.722,274.149 125.883,275.270 125.895 C 276.590 125.908,277.114 125.791,276.755 125.564 C 276.045 125.114,273.712 125.095,273.439 125.537 M285.849 129.520 C 285.741 129.696,286.011 130.064,286.450 130.338 C 287.181 130.795,287.211 130.768,286.810 130.018 C 286.332 129.126,286.151 129.032,285.849 129.520 M244.510 133.932 C 244.239 134.099,244.178 134.441,244.365 134.744 C 244.616 135.150,244.748 135.112,244.954 134.576 C 245.273 133.744,245.136 133.545,244.510 133.932 M305.364 152.600 C 305.502 153.150,305.462 153.600,305.274 153.600 C 305.087 153.600,304.933 153.894,304.933 154.253 C 304.933 154.819,305.005 154.808,305.467 154.176 C 306.113 153.293,306.172 151.600,305.557 151.600 C 305.283 151.600,305.210 151.984,305.364 152.600 M287.837 156.200 C 287.476 156.750,287.354 157.200,287.564 157.200 C 287.774 157.200,288.057 156.852,288.192 156.426 C 288.327 156.000,288.744 155.571,289.119 155.472 C 289.718 155.314,289.722 155.287,289.146 155.246 C 288.786 155.221,288.197 155.650,287.837 156.200 M302.392 159.410 C 301.644 160.311,302.078 160.415,302.970 159.548 C 303.393 159.137,303.551 158.800,303.319 158.800 C 303.087 158.800,302.670 159.074,302.392 159.410 M193.200 190.161 C 193.200 190.840,193.853 191.364,194.130 190.907 C 194.232 190.738,194.065 190.368,193.758 190.084 C 193.300 189.661,193.200 189.674,193.200 190.161 M360.872 293.500 C 366.741 293.562,376.461 293.562,382.472 293.500 C 388.482 293.438,383.680 293.387,371.800 293.386 C 359.920 293.386,355.002 293.437,360.872 293.500 " stroke="none" fill="#248cc4" fill-rule="evenodd"></path><path id="path2" d="M243.324 143.800 C 243.326 145.120,243.401 145.612,243.490 144.893 C 243.579 144.174,243.577 143.094,243.486 142.493 C 243.395 141.892,243.322 142.480,243.324 143.800 " stroke="none" fill="#288cbc" fill-rule="evenodd"></path><path id="path3" d="M243.324 143.800 C 243.326 145.120,243.401 145.612,243.490 144.893 C 243.579 144.174,243.577 143.094,243.486 142.493 C 243.395 141.892,243.322 142.480,243.324 143.800 " stroke="none" fill="#288cbc" fill-rule="evenodd"></path><path id="path4" d="M243.324 143.800 C 243.326 145.120,243.401 145.612,243.490 144.893 C 243.579 144.174,243.577 143.094,243.486 142.493 C 243.395 141.892,243.322 142.480,243.324 143.800 " stroke="none" fill="#288cbc" fill-rule="evenodd"></path></g></svg>