<svg id="svg" version="1.1" xmlns="http://www.w3.org/2000/svg" xmlns:xlink="http://www.w3.org/1999/xlink" width="400" height="400" viewBox="0, 0, 400,400"><g id="svgg"><path id="path0" d="M44.324 38.427 C 44.247 38.659,43.609 38.865,42.906 38.885 C 42.203 38.905,41.722 39.074,41.837 39.260 C 42.045 39.596,41.651 39.712,40.309 39.708 C 39.929 39.707,39.715 39.862,39.833 40.053 C 40.021 40.358,39.152 40.582,38.300 40.447 C 38.135 40.421,38.000 40.580,38.000 40.800 C 38.000 41.020,37.640 41.200,37.200 41.200 C 36.760 41.200,36.400 41.380,36.400 41.600 C 36.400 41.820,36.152 42.000,35.849 42.000 C 35.547 42.000,34.561 42.695,33.660 43.544 C 32.758 44.393,31.887 44.978,31.724 44.844 C 31.560 44.710,31.690 44.949,32.013 45.375 C 32.544 46.075,32.533 46.125,31.900 45.887 C 31.436 45.714,31.200 45.819,31.200 46.200 C 31.200 46.573,30.965 46.685,30.531 46.518 C 30.023 46.323,29.923 46.423,30.118 46.931 C 30.289 47.376,30.171 47.600,29.764 47.600 C 29.428 47.600,29.264 47.780,29.400 48.000 C 29.536 48.220,29.367 48.400,29.024 48.400 C 28.681 48.400,28.400 48.586,28.400 48.814 C 28.400 49.042,28.092 49.699,27.715 50.274 C 27.338 50.849,26.995 51.518,26.953 51.760 C 26.911 52.002,26.753 52.560,26.601 53.000 C 26.378 53.644,26.408 53.683,26.756 53.200 C 27.024 52.828,27.190 52.781,27.194 53.077 C 27.197 53.340,26.840 53.807,26.401 54.114 C 25.961 54.422,25.562 55.153,25.513 55.737 C 25.465 56.322,25.285 56.800,25.113 56.800 C 24.941 56.800,24.802 104.050,24.804 161.800 C 24.807 219.550,24.958 266.800,25.140 266.800 C 25.322 266.800,25.495 267.462,25.526 268.271 C 25.556 269.079,25.810 269.887,26.090 270.064 C 26.371 270.242,26.459 270.391,26.286 270.394 C 26.113 270.397,26.197 270.805,26.472 271.300 C 26.747 271.795,26.978 272.329,26.986 272.487 C 26.994 272.645,27.315 273.142,27.700 273.592 C 28.085 274.041,28.400 274.587,28.400 274.805 C 28.400 275.022,28.559 275.200,28.753 275.200 C 28.948 275.200,29.206 275.578,29.326 276.040 C 29.466 276.575,29.724 276.771,30.035 276.578 C 30.351 276.383,30.421 276.443,30.231 276.749 C 29.835 277.390,33.494 280.800,34.578 280.800 C 34.890 280.800,35.264 281.173,35.409 281.629 C 35.571 282.139,35.895 282.372,36.251 282.236 C 36.570 282.113,36.930 282.274,37.052 282.592 C 37.258 283.129,38.231 283.617,39.560 283.849 C 39.868 283.903,40.235 284.133,40.376 284.361 C 40.516 284.588,41.209 284.818,41.916 284.872 C 42.622 284.926,43.200 285.093,43.200 285.244 C 43.200 285.395,43.816 285.489,44.568 285.453 C 45.321 285.418,45.906 285.531,45.868 285.704 C 45.794 286.047,155.578 286.155,155.922 285.811 C 156.038 285.695,156.607 285.600,157.187 285.600 C 157.766 285.600,158.482 285.375,158.779 285.100 C 159.210 284.700,159.261 284.700,159.035 285.100 C 158.880 285.375,158.943 285.600,159.176 285.600 C 159.409 285.600,159.600 285.420,159.600 285.200 C 159.600 284.980,160.140 284.800,160.800 284.800 C 161.460 284.800,162.000 284.620,162.000 284.400 C 162.000 284.180,162.248 284.000,162.551 284.000 C 162.854 284.000,163.317 283.741,163.580 283.424 C 163.843 283.107,164.315 282.946,164.629 283.067 C 164.943 283.187,165.200 283.086,165.200 282.843 C 165.200 282.599,165.483 282.400,165.829 282.400 C 166.559 282.400,167.600 281.462,167.600 280.805 C 167.600 280.556,167.780 280.464,168.000 280.600 C 168.220 280.736,168.400 280.687,168.400 280.491 C 168.400 280.295,168.850 279.894,169.400 279.600 C 169.950 279.306,170.400 278.815,170.400 278.509 C 170.400 278.203,170.580 278.064,170.800 278.200 C 171.020 278.336,171.200 278.077,171.200 277.624 C 171.200 277.171,171.393 276.800,171.629 276.800 C 172.313 276.800,173.081 275.843,172.880 275.241 C 172.757 274.871,172.868 274.795,173.216 275.010 C 173.593 275.243,173.663 275.142,173.473 274.645 C 173.328 274.267,173.367 274.056,173.559 274.175 C 174.043 274.474,174.928 273.331,174.611 272.818 C 174.469 272.588,174.543 272.400,174.776 272.400 C 175.009 272.400,175.200 271.939,175.200 271.376 C 175.200 270.697,175.357 270.450,175.668 270.642 C 175.985 270.838,176.052 270.711,175.875 270.250 C 175.713 269.829,175.839 269.483,176.207 269.342 C 176.608 269.188,176.800 268.539,176.800 267.334 C 176.800 266.248,176.956 265.649,177.200 265.800 C 177.466 265.965,177.600 231.337,177.600 162.224 C 177.600 93.275,177.466 58.400,177.200 58.400 C 176.980 58.400,176.800 57.986,176.800 57.480 C 176.800 56.974,176.575 56.318,176.300 56.021 C 175.900 55.590,175.900 55.539,176.300 55.765 C 176.575 55.920,176.800 55.872,176.800 55.657 C 176.800 55.442,176.597 55.199,176.350 55.117 C 176.102 55.034,175.900 54.479,175.900 53.883 C 175.900 53.288,175.755 52.800,175.578 52.800 C 175.401 52.800,175.194 52.395,175.118 51.900 C 175.043 51.405,174.747 51.049,174.461 51.110 C 174.175 51.170,174.044 51.052,174.172 50.846 C 174.528 50.270,173.983 49.200,173.334 49.200 C 173.014 49.200,172.872 49.008,173.017 48.773 C 173.163 48.536,172.891 48.244,172.406 48.118 C 171.804 47.960,171.686 47.794,172.025 47.585 C 172.575 47.245,169.801 44.115,169.123 44.310 C 168.912 44.370,168.847 44.248,168.976 44.039 C 169.106 43.829,168.489 43.252,167.606 42.755 C 166.723 42.259,166.000 41.706,166.000 41.526 C 166.000 41.347,165.565 41.200,165.033 41.200 C 163.652 41.200,162.800 40.802,162.800 40.157 C 162.800 39.805,162.359 39.600,161.600 39.600 C 160.940 39.600,160.400 39.420,160.400 39.200 C 160.400 38.980,159.770 38.800,159.000 38.800 C 158.230 38.800,157.600 38.621,157.600 38.403 C 157.600 37.832,44.515 37.856,44.324 38.427 M239.600 38.400 C 239.600 38.620,239.283 38.800,238.895 38.800 C 238.507 38.800,237.854 39.247,237.445 39.792 C 237.035 40.338,236.544 40.689,236.355 40.572 C 236.165 40.455,235.614 40.728,235.130 41.180 C 234.645 41.631,234.079 42.000,233.871 42.000 C 233.664 42.000,233.200 42.315,232.841 42.700 C 232.061 43.537,230.862 44.335,229.900 44.658 C 229.515 44.788,229.200 45.063,229.200 45.270 C 229.200 45.478,229.408 45.519,229.662 45.362 C 229.941 45.189,230.015 45.252,229.849 45.521 C 229.698 45.765,229.305 45.862,228.977 45.736 C 228.634 45.604,227.999 45.916,227.489 46.466 C 227.000 46.994,226.467 47.470,226.304 47.524 C 225.128 47.914,224.800 48.150,224.800 48.605 C 224.800 48.901,224.498 49.049,224.100 48.948 C 223.645 48.833,223.120 49.196,222.600 49.985 C 222.160 50.652,221.519 51.198,221.175 51.199 C 220.832 51.199,220.164 51.560,219.692 52.000 C 219.220 52.440,218.628 52.800,218.377 52.800 C 218.126 52.800,217.417 53.340,216.800 54.000 C 216.183 54.660,215.457 55.200,215.186 55.200 C 214.417 55.200,212.801 57.300,212.800 58.300 C 212.800 58.795,212.649 59.200,212.463 59.200 C 212.278 59.200,212.114 60.011,212.099 61.001 C 212.084 61.992,212.191 62.730,212.336 62.640 C 212.481 62.551,212.638 62.999,212.684 63.636 C 212.775 64.907,215.155 67.600,216.187 67.600 C 216.524 67.600,216.800 67.741,216.800 67.914 C 216.800 68.298,219.282 69.819,219.700 69.692 C 219.865 69.641,220.000 69.793,220.000 70.029 C 220.000 70.725,220.963 71.482,221.708 71.372 C 222.089 71.316,222.400 71.482,222.400 71.739 C 222.400 72.419,223.863 73.227,224.589 72.949 C 225.038 72.777,225.141 72.889,224.962 73.355 C 224.757 73.888,225.282 74.264,225.721 73.900 C 225.787 73.845,226.552 74.473,227.421 75.297 C 228.289 76.120,229.225 76.795,229.500 76.797 C 229.775 76.798,230.000 76.980,230.000 77.200 C 230.000 77.420,230.281 77.600,230.624 77.600 C 230.967 77.600,231.136 77.780,231.000 78.000 C 230.864 78.220,231.091 78.400,231.504 78.400 C 231.918 78.400,232.668 78.874,233.171 79.453 C 233.675 80.032,234.203 80.337,234.344 80.131 C 234.486 79.922,234.910 80.076,235.300 80.478 C 235.685 80.875,235.897 81.200,235.771 81.200 C 235.646 81.200,235.813 81.470,236.143 81.800 C 236.473 82.130,236.986 82.400,237.283 82.400 C 237.580 82.400,238.067 82.737,238.364 83.150 C 239.143 84.232,245.737 84.421,245.326 83.350 C 245.149 82.891,245.216 82.762,245.529 82.956 C 246.080 83.297,248.149 81.364,247.813 80.821 C 247.687 80.617,247.885 80.280,248.253 80.074 C 248.666 79.843,248.826 79.444,248.669 79.034 C 248.513 78.630,248.646 78.280,249.007 78.142 C 249.333 78.017,249.600 77.563,249.600 77.134 C 249.600 76.704,249.420 76.464,249.200 76.600 C 248.851 76.816,248.606 75.490,248.752 74.178 C 248.826 73.517,246.166 70.800,245.446 70.800 C 245.091 70.800,244.800 70.620,244.800 70.400 C 244.800 70.180,244.519 70.000,244.176 70.000 C 243.833 70.000,243.664 69.820,243.800 69.600 C 243.940 69.374,243.612 69.200,243.047 69.200 C 242.497 69.200,241.936 69.020,241.800 68.800 C 241.636 68.535,249.663 68.400,265.576 68.400 L 289.600 68.400 289.646 80.500 C 289.671 87.155,289.660 92.915,289.621 93.300 C 289.582 93.685,289.741 94.000,289.975 94.000 C 290.209 94.000,290.400 94.360,290.400 94.800 C 290.400 95.240,290.580 95.600,290.800 95.600 C 291.020 95.600,291.200 95.830,291.200 96.111 C 291.200 96.730,292.639 98.028,292.964 97.703 C 293.091 97.576,293.511 97.756,293.898 98.104 C 294.645 98.777,298.426 99.004,298.801 98.399 C 298.915 98.215,299.273 98.005,299.597 97.932 C 300.449 97.741,302.800 95.290,302.800 94.593 C 302.800 94.267,302.935 94.000,303.100 94.000 C 303.443 94.000,303.370 58.836,303.026 58.492 C 302.902 58.368,302.800 57.937,302.800 57.533 C 302.800 57.130,302.609 56.800,302.376 56.800 C 302.143 56.800,302.081 57.008,302.238 57.262 C 302.416 57.550,302.348 57.615,302.055 57.434 C 301.798 57.275,301.691 56.976,301.819 56.769 C 302.161 56.215,300.988 55.200,300.005 55.200 C 299.536 55.200,299.264 55.020,299.400 54.800 C 299.564 54.535,289.796 54.400,270.400 54.400 C 251.004 54.400,241.236 54.265,241.400 54.000 C 241.536 53.780,241.919 53.600,242.252 53.600 C 243.086 53.600,243.903 52.709,243.680 52.041 C 243.575 51.724,243.677 51.601,243.920 51.751 C 244.154 51.895,244.458 51.830,244.596 51.607 C 244.734 51.383,245.124 51.200,245.463 51.200 C 246.460 51.200,248.780 48.337,248.791 47.095 C 248.796 46.487,249.020 45.636,249.290 45.205 C 249.677 44.585,249.677 44.317,249.290 43.930 C 249.020 43.660,248.800 43.013,248.800 42.491 C 248.800 41.404,247.949 40.400,247.029 40.400 C 246.683 40.400,246.421 40.265,246.447 40.100 C 246.587 39.216,246.316 38.800,245.600 38.800 C 245.160 38.800,244.800 38.620,244.800 38.400 C 244.800 38.174,243.667 38.000,242.200 38.000 C 240.733 38.000,239.600 38.174,239.600 38.400 M153.600 51.600 C 153.600 51.820,153.960 52.000,154.400 52.000 C 154.840 52.000,155.200 52.180,155.200 52.400 C 155.200 52.620,155.560 52.800,156.000 52.800 C 156.440 52.800,156.800 52.991,156.800 53.224 C 156.800 53.457,156.964 53.546,157.164 53.422 C 157.725 53.075,158.829 53.630,158.532 54.110 C 158.365 54.380,158.521 54.439,158.955 54.273 C 159.366 54.115,159.543 54.169,159.395 54.408 C 159.260 54.627,159.565 54.974,160.074 55.178 C 160.583 55.382,160.856 55.561,160.681 55.575 C 160.505 55.589,160.953 56.455,161.676 57.500 C 162.398 58.545,162.938 59.564,162.874 59.763 C 162.810 59.963,162.902 60.233,163.079 60.363 C 163.543 60.706,164.404 63.249,163.963 62.977 C 163.736 62.837,163.597 101.613,163.604 162.846 C 163.612 230.309,163.482 263.078,163.208 263.352 C 162.983 263.577,162.800 264.084,162.800 264.480 C 162.800 264.876,162.599 265.200,162.353 265.200 C 162.093 265.200,161.986 265.616,162.097 266.197 C 162.206 266.765,162.054 267.390,161.744 267.646 C 161.445 267.895,161.200 267.964,161.200 267.800 C 161.200 267.635,160.501 268.243,159.647 269.151 C 158.792 270.058,157.802 270.800,157.447 270.800 C 157.091 270.800,156.800 270.980,156.800 271.200 C 156.800 271.420,156.275 271.600,155.633 271.600 C 154.992 271.600,154.407 271.764,154.333 271.963 C 154.130 272.517,156.266 272.498,100.276 272.447 C 61.839 272.413,47.627 272.280,47.826 271.957 C 48.009 271.663,47.830 271.600,47.292 271.771 C 46.802 271.926,46.243 271.786,45.871 271.414 C 45.533 271.076,44.974 270.800,44.629 270.800 C 44.283 270.800,44.000 270.620,44.000 270.400 C 44.000 270.180,43.629 270.000,43.176 270.000 C 42.723 270.000,42.464 269.820,42.600 269.600 C 42.736 269.380,42.567 269.200,42.224 269.200 C 41.881 269.200,41.600 268.949,41.600 268.642 C 41.600 268.335,41.153 267.660,40.607 267.142 C 40.061 266.624,39.611 265.921,39.607 265.580 C 39.603 265.239,39.383 264.743,39.119 264.479 C 38.308 263.668,38.302 263.060,38.047 162.029 C 37.843 80.767,37.891 63.766,38.330 63.327 C 38.622 63.035,38.808 62.187,38.744 61.443 C 38.680 60.698,38.862 59.807,39.148 59.462 C 39.435 59.117,39.550 58.643,39.405 58.408 C 39.259 58.173,39.379 58.030,39.670 58.090 C 39.988 58.156,40.188 57.850,40.171 57.324 C 40.155 56.842,40.256 56.482,40.395 56.524 C 40.535 56.566,41.445 55.822,42.417 54.871 C 43.390 53.921,44.681 53.044,45.286 52.923 C 45.892 52.802,46.289 52.545,46.170 52.351 C 46.050 52.158,46.128 52.000,46.343 52.000 C 46.558 52.000,46.824 52.225,46.935 52.500 C 47.062 52.814,47.149 52.753,47.168 52.337 C 47.190 51.877,47.444 51.739,48.000 51.884 C 48.764 52.084,48.800 52.430,48.800 59.623 C 48.800 64.211,48.956 67.249,49.200 67.400 C 49.420 67.536,49.603 68.402,49.606 69.324 C 49.611 70.553,49.716 70.840,50.000 70.400 C 50.288 69.954,50.389 70.184,50.394 71.300 C 50.397 72.125,50.580 72.800,50.800 72.800 C 51.020 72.800,51.200 73.094,51.200 73.453 C 51.200 73.813,51.687 74.526,52.283 75.037 C 52.878 75.549,53.251 76.082,53.111 76.222 C 52.741 76.592,56.262 80.000,57.013 80.000 C 57.362 80.000,57.536 80.180,57.400 80.400 C 57.264 80.620,57.351 80.800,57.593 80.800 C 57.835 80.800,58.420 81.160,58.893 81.601 C 59.386 82.060,59.855 82.234,59.994 82.009 C 60.128 81.792,60.490 81.970,60.806 82.409 C 61.139 82.870,61.840 83.200,62.488 83.200 C 63.100 83.200,63.600 83.384,63.600 83.609 C 63.600 83.886,75.555 84.009,100.411 83.990 C 126.018 83.969,137.144 83.833,136.963 83.540 C 136.798 83.273,137.011 83.285,137.552 83.574 C 138.111 83.873,138.400 83.887,138.400 83.614 C 138.400 83.386,138.852 83.200,139.405 83.200 C 140.354 83.200,141.954 82.523,142.404 81.932 C 142.516 81.785,142.872 81.605,143.194 81.532 C 143.971 81.357,144.800 80.569,144.800 80.005 C 144.800 79.756,144.973 79.660,145.184 79.790 C 145.616 80.057,147.200 79.185,147.200 78.680 C 147.200 78.500,146.992 78.481,146.738 78.638 C 146.444 78.820,146.385 78.747,146.577 78.437 C 146.742 78.170,147.310 77.786,147.839 77.585 C 148.367 77.384,148.800 76.945,148.800 76.610 C 148.800 76.274,148.991 76.000,149.224 76.000 C 149.457 76.000,149.536 75.820,149.400 75.600 C 149.264 75.380,149.388 75.197,149.676 75.193 C 150.308 75.184,152.000 71.742,152.000 70.464 C 152.000 69.963,152.178 69.662,152.394 69.797 C 152.635 69.945,152.769 69.292,152.739 68.120 C 152.567 61.569,152.849 51.200,153.200 51.200 C 153.420 51.200,153.600 51.380,153.600 51.600 M139.117 59.265 C 138.939 66.037,138.870 66.576,138.088 67.209 C 137.485 67.697,137.371 68.011,137.682 68.322 C 137.993 68.633,137.889 68.696,137.313 68.545 C 136.734 68.394,136.449 68.569,136.291 69.172 L 136.073 70.008 101.018 69.996 C 78.263 69.987,66.048 69.846,66.205 69.591 C 66.338 69.376,66.167 69.200,65.824 69.200 C 65.481 69.200,65.200 69.009,65.200 68.776 C 65.200 68.543,65.020 68.464,64.800 68.600 C 64.573 68.740,64.400 68.404,64.400 67.824 C 64.400 67.261,64.220 66.800,64.000 66.800 C 63.780 66.800,63.600 66.440,63.600 66.000 C 63.600 65.560,63.420 65.200,63.200 65.200 C 62.949 65.200,62.800 62.733,62.800 58.600 L 62.800 52.000 101.054 52.000 L 139.308 52.000 139.117 59.265 M244.220 114.109 C 244.360 114.472,243.928 114.568,242.617 114.464 C 241.393 114.367,240.629 114.513,240.218 114.925 C 239.862 115.280,239.256 115.435,238.744 115.301 C 238.148 115.145,237.965 115.219,238.161 115.537 C 238.436 115.982,237.962 116.168,236.900 116.030 C 236.625 115.994,236.400 116.153,236.400 116.382 C 236.400 116.612,236.040 116.800,235.600 116.800 C 235.160 116.800,234.800 116.958,234.800 117.151 C 234.800 117.345,234.260 117.727,233.600 118.000 C 232.869 118.303,232.400 118.791,232.400 119.249 C 232.400 119.759,232.111 120.002,231.500 120.007 C 230.999 120.011,230.156 120.541,229.600 121.203 C 229.050 121.856,228.206 122.824,227.724 123.353 C 227.243 123.882,226.958 124.424,227.091 124.558 C 227.224 124.691,227.145 124.800,226.915 124.800 C 226.685 124.800,226.273 125.340,226.000 126.000 C 225.727 126.660,225.345 127.200,225.151 127.200 C 224.958 127.200,224.800 127.650,224.800 128.200 C 224.800 128.750,224.620 129.200,224.400 129.200 C 224.180 129.200,224.021 129.335,224.047 129.500 C 224.192 130.417,223.945 131.213,223.585 130.991 C 223.321 130.828,223.207 131.281,223.272 132.238 C 223.332 133.130,223.179 133.807,222.895 133.902 C 222.266 134.111,222.167 341.600,222.796 341.600 C 223.018 341.600,223.200 342.014,223.200 342.520 C 223.200 343.026,223.425 343.682,223.700 343.979 C 224.100 344.410,224.100 344.461,223.700 344.235 C 223.425 344.080,223.200 344.143,223.200 344.376 C 223.200 344.609,223.380 344.800,223.600 344.800 C 223.820 344.800,224.003 345.115,224.006 345.500 C 224.011 346.098,224.069 346.113,224.400 345.600 C 224.731 345.087,224.789 345.102,224.794 345.700 C 224.797 346.085,224.620 346.400,224.400 346.400 C 224.180 346.400,224.000 346.580,224.000 346.800 C 224.000 347.020,224.282 347.200,224.627 347.200 C 225.072 347.200,225.180 347.432,225.000 348.000 C 224.854 348.459,224.928 348.800,225.173 348.800 C 225.408 348.800,225.600 349.043,225.600 349.341 C 225.600 349.638,226.126 350.432,226.769 351.105 C 227.412 351.778,227.857 352.410,227.757 352.509 C 227.369 352.897,229.990 355.254,230.489 354.966 C 230.770 354.804,230.871 354.814,230.714 354.988 C 230.259 355.492,231.199 356.886,231.830 356.644 C 232.160 356.517,232.671 356.842,233.048 357.418 C 233.406 357.963,234.126 358.517,234.649 358.648 C 235.172 358.779,235.600 359.047,235.600 359.243 C 235.600 359.440,235.960 359.600,236.400 359.600 C 236.840 359.600,237.200 359.780,237.200 360.000 C 237.200 360.220,237.740 360.400,238.400 360.400 C 239.060 360.400,239.600 360.580,239.600 360.800 C 239.600 361.020,240.320 361.200,241.200 361.200 C 242.080 361.200,242.800 361.380,242.800 361.600 C 242.800 361.820,243.081 362.000,243.424 362.000 C 243.775 362.000,243.929 361.808,243.775 361.560 C 243.578 361.240,243.728 361.240,244.325 361.560 C 245.373 362.121,354.844 362.190,355.420 361.631 C 355.629 361.428,356.340 361.203,357.000 361.131 C 357.660 361.059,358.161 360.793,358.114 360.541 C 358.064 360.276,358.343 360.165,358.773 360.277 C 359.183 360.384,359.956 360.185,360.491 359.835 C 361.026 359.484,361.613 359.333,361.796 359.499 C 361.979 359.664,361.999 359.575,361.841 359.300 C 361.642 358.955,361.871 358.800,362.576 358.800 C 363.139 358.800,363.600 358.609,363.600 358.376 C 363.600 358.143,363.784 358.067,364.010 358.206 C 364.235 358.345,364.394 358.311,364.363 358.130 C 364.181 357.084,364.415 356.714,364.968 357.173 C 365.416 357.545,365.624 357.493,365.956 356.922 C 366.187 356.525,366.381 356.339,366.388 356.509 C 366.405 356.955,370.634 352.658,371.178 351.641 C 371.431 351.169,371.525 350.603,371.389 350.382 C 371.252 350.161,371.379 350.030,371.670 350.090 C 371.962 350.151,372.200 349.930,372.200 349.600 C 372.200 349.270,372.429 348.854,372.708 348.675 C 372.988 348.497,373.100 348.162,372.957 347.931 C 372.814 347.700,372.860 347.396,373.058 347.255 C 375.157 345.769,374.990 354.589,375.104 238.900 C 375.162 180.765,375.058 133.200,374.874 133.200 C 374.689 133.200,374.614 132.689,374.705 132.065 C 374.814 131.322,374.617 130.674,374.136 130.193 C 373.731 129.788,373.422 129.354,373.449 129.229 C 373.626 128.404,372.246 125.603,371.917 126.120 C 371.725 126.423,371.610 126.268,371.606 125.700 C 371.603 125.205,371.432 124.800,371.227 124.800 C 371.022 124.800,370.734 124.421,370.587 123.959 C 370.270 122.961,366.525 119.200,365.848 119.200 C 365.589 119.200,365.117 118.840,364.800 118.400 C 364.483 117.960,363.803 117.600,363.288 117.600 C 362.766 117.600,362.462 117.423,362.600 117.200 C 362.736 116.980,362.567 116.800,362.224 116.800 C 361.881 116.800,361.600 116.620,361.600 116.400 C 361.600 116.180,361.049 116.000,360.376 116.000 C 359.663 116.000,359.256 115.833,359.400 115.600 C 359.536 115.380,359.313 115.200,358.904 115.200 C 358.495 115.200,357.989 115.038,357.780 114.841 C 356.873 113.984,350.939 113.873,298.915 113.746 C 255.241 113.638,244.068 113.712,244.220 114.109 M349.939 114.194 C 349.678 114.456,248.340 114.474,248.079 114.212 C 247.969 114.102,270.887 114.008,299.009 114.003 C 327.131 113.998,350.049 114.084,349.939 114.194 M95.010 125.184 C 94.893 125.374,94.032 125.489,93.098 125.440 C 92.164 125.391,91.040 125.531,90.600 125.751 C 90.160 125.971,89.101 126.190,88.248 126.237 C 87.394 126.284,86.564 126.535,86.403 126.795 C 86.242 127.055,85.991 127.231,85.846 127.186 C 85.169 126.976,83.174 127.635,83.397 127.995 C 83.535 128.218,83.356 128.400,83.000 128.400 C 82.631 128.400,82.470 128.211,82.625 127.960 C 82.786 127.700,82.510 127.735,81.948 128.046 C 81.427 128.335,80.910 128.591,80.800 128.614 C 80.166 128.750,78.155 129.846,77.906 130.192 C 77.744 130.416,77.609 130.459,77.606 130.286 C 77.603 130.113,77.195 130.197,76.700 130.472 C 76.205 130.747,75.710 130.994,75.600 131.020 C 74.820 131.210,74.033 131.731,74.176 131.962 C 74.271 132.115,73.981 132.469,73.532 132.749 C 72.996 133.085,72.813 133.102,73.000 132.800 C 73.179 132.510,72.973 132.535,72.442 132.867 C 71.979 133.156,71.600 133.529,71.600 133.696 C 71.600 133.863,71.280 134.000,70.888 134.000 C 70.497 134.000,69.917 134.360,69.600 134.800 C 69.283 135.240,68.831 135.600,68.595 135.600 C 68.359 135.600,67.499 136.230,66.683 136.999 C 65.238 138.362,64.732 139.136,65.662 138.562 C 65.957 138.379,66.015 138.453,65.821 138.765 C 65.655 139.034,65.267 139.158,64.960 139.040 C 64.597 138.901,64.400 139.102,64.400 139.613 C 64.400 140.057,64.130 140.400,63.781 140.400 C 63.161 140.400,59.600 143.886,59.600 144.492 C 59.600 144.669,58.952 145.444,58.160 146.213 C 57.287 147.060,56.809 147.846,56.947 148.206 C 57.072 148.533,56.988 148.800,56.759 148.800 C 56.132 148.800,55.200 149.859,55.200 150.571 C 55.200 150.917,55.020 151.200,54.800 151.200 C 54.580 151.200,54.400 151.560,54.400 152.000 C 54.400 152.440,54.220 152.800,54.000 152.800 C 53.780 152.800,53.600 153.160,53.600 153.600 C 53.600 154.040,53.420 154.400,53.200 154.400 C 52.980 154.400,52.800 154.745,52.800 155.167 C 52.800 155.588,52.622 155.993,52.403 156.067 C 52.185 156.140,51.966 156.740,51.917 157.400 C 51.868 158.060,51.594 158.780,51.309 159.000 C 51.024 159.220,50.707 159.837,50.605 160.371 C 50.502 160.904,50.235 161.525,50.009 161.751 C 49.784 161.976,49.600 162.653,49.600 163.256 C 49.600 163.859,49.414 164.468,49.186 164.609 C 48.958 164.750,48.809 165.525,48.855 166.332 C 48.901 167.140,48.683 168.210,48.370 168.712 C 47.873 169.507,47.877 169.673,48.400 170.006 C 48.730 170.216,48.807 170.391,48.571 170.394 C 48.335 170.397,48.101 171.328,48.049 172.469 C 47.997 173.607,47.802 174.822,47.616 175.170 C 47.146 176.048,47.160 180.128,47.634 180.421 C 47.848 180.553,48.079 181.652,48.146 182.863 C 48.214 184.074,48.416 185.303,48.596 185.594 C 48.828 185.969,48.770 186.029,48.399 185.799 C 47.995 185.550,47.943 185.697,48.174 186.437 C 48.340 186.967,48.568 187.893,48.682 188.496 C 48.796 189.099,49.019 189.512,49.178 189.414 C 49.337 189.315,49.467 189.489,49.467 189.800 C 49.467 190.111,49.317 190.272,49.133 190.159 C 48.950 190.045,48.800 190.223,48.800 190.553 C 48.800 190.883,48.980 191.264,49.200 191.400 C 49.420 191.536,49.600 192.162,49.600 192.790 C 49.600 193.419,49.788 193.996,50.017 194.072 C 50.246 194.149,50.489 194.659,50.557 195.206 C 50.798 197.136,51.304 198.800,51.650 198.800 C 51.843 198.800,52.000 199.250,52.000 199.800 C 52.000 200.350,52.180 200.800,52.400 200.800 C 52.620 200.800,52.800 201.235,52.800 201.767 C 52.800 202.298,52.935 202.793,53.100 202.867 C 53.265 202.940,53.831 203.850,54.357 204.888 C 54.883 205.927,55.468 206.681,55.657 206.565 C 55.846 206.448,56.000 206.636,56.000 206.982 C 56.000 208.219,58.128 211.015,58.769 210.619 C 58.915 210.529,59.063 210.845,59.099 211.322 C 59.135 211.798,59.354 212.251,59.585 212.328 C 59.816 212.405,59.921 212.603,59.819 212.769 C 59.717 212.934,60.245 213.717,60.992 214.509 C 61.815 215.382,62.426 215.762,62.544 215.475 C 62.650 215.214,62.751 215.339,62.768 215.753 C 62.805 216.624,64.332 218.089,64.862 217.762 C 65.059 217.640,65.194 217.689,65.163 217.870 C 65.016 218.712,65.251 219.200,65.800 219.200 C 66.130 219.200,66.400 219.380,66.400 219.600 C 66.400 219.820,66.625 220.000,66.900 220.001 C 67.175 220.001,68.030 220.542,68.800 221.203 C 69.570 221.863,70.416 222.322,70.680 222.222 C 70.966 222.114,71.070 222.274,70.937 222.620 C 70.814 222.939,70.931 223.200,71.195 223.200 C 71.460 223.200,72.195 223.569,72.828 224.020 C 73.461 224.471,74.209 224.805,74.490 224.763 C 75.408 224.625,77.600 225.665,77.600 226.239 C 77.600 226.548,77.780 226.800,78.000 226.800 C 78.220 226.800,78.400 226.592,78.400 226.339 C 78.400 226.085,78.736 226.265,79.147 226.739 C 79.558 227.212,80.278 227.600,80.747 227.600 C 81.216 227.600,81.600 227.780,81.600 228.000 C 81.600 228.220,82.140 228.400,82.800 228.400 C 83.460 228.400,84.000 228.580,84.000 228.800 C 84.000 229.020,84.709 229.200,85.576 229.200 C 86.443 229.200,87.264 229.380,87.400 229.600 C 87.536 229.820,88.342 230.000,89.190 230.000 C 90.050 230.000,90.823 230.221,90.936 230.500 C 91.089 230.876,91.244 230.852,91.563 230.400 C 91.851 229.993,91.990 229.961,91.994 230.300 C 91.998 230.655,92.870 230.800,95.000 230.800 C 96.733 230.800,98.000 230.969,98.000 231.200 C 98.000 231.747,103.327 231.713,103.878 231.162 C 104.132 230.908,105.715 230.739,107.636 230.759 C 109.462 230.779,111.065 230.619,111.198 230.404 C 111.331 230.189,112.286 229.981,113.320 229.941 C 114.354 229.902,115.200 229.719,115.200 229.535 C 115.200 229.351,115.740 229.200,116.400 229.200 C 117.060 229.200,117.600 229.020,117.600 228.800 C 117.600 228.580,118.236 228.400,119.013 228.400 C 119.821 228.400,120.513 228.172,120.630 227.867 C 120.742 227.573,121.052 227.306,121.317 227.273 C 123.063 227.056,124.400 226.658,124.400 226.355 C 124.400 226.160,124.760 226.000,125.200 226.000 C 125.937 226.000,126.201 225.561,126.025 224.632 C 125.986 224.430,126.219 224.484,126.542 224.752 C 126.998 225.131,127.195 225.132,127.426 224.758 C 127.615 224.453,127.555 224.381,127.262 224.562 C 127.008 224.719,126.800 224.741,126.800 224.611 C 126.800 224.156,128.597 223.696,128.846 224.086 C 128.982 224.300,129.525 224.054,130.064 223.536 C 130.599 223.021,131.265 222.551,131.544 222.491 C 131.824 222.432,132.434 222.027,132.901 221.591 C 133.369 221.156,133.908 220.800,134.099 220.800 C 134.291 220.800,134.319 220.592,134.162 220.338 C 133.991 220.061,134.052 219.985,134.314 220.147 C 134.752 220.418,136.400 218.959,136.400 218.301 C 136.400 218.109,136.581 218.065,136.803 218.202 C 137.302 218.510,138.453 217.415,138.307 216.771 C 138.248 216.512,138.450 216.209,138.756 216.098 C 139.136 215.960,139.212 216.070,138.997 216.448 C 138.823 216.752,139.251 216.379,139.948 215.620 C 140.644 214.862,141.153 214.060,141.080 213.840 C 140.927 213.381,142.006 212.000,142.517 212.000 C 143.046 212.000,144.000 210.917,144.000 210.317 C 144.000 210.020,144.350 209.524,144.779 209.215 C 145.207 208.907,145.473 208.519,145.371 208.353 C 145.269 208.187,145.593 207.625,146.092 207.104 C 147.351 205.789,147.999 204.571,148.006 203.505 C 148.011 202.774,148.087 202.715,148.400 203.200 C 148.714 203.685,148.789 203.628,148.794 202.900 C 148.797 202.405,148.980 202.000,149.200 202.000 C 149.420 202.000,149.600 201.651,149.600 201.224 C 149.600 200.797,149.780 200.336,150.000 200.200 C 150.220 200.064,150.400 199.513,150.400 198.976 C 150.400 198.439,150.558 198.000,150.750 198.000 C 150.942 198.000,151.100 197.530,151.100 196.955 C 151.100 196.379,151.264 195.794,151.464 195.655 C 151.663 195.515,151.847 194.776,151.870 194.014 C 151.894 193.252,152.113 192.562,152.357 192.481 C 152.601 192.400,152.800 191.808,152.800 191.167 C 152.800 190.525,152.996 190.000,153.236 190.000 C 153.516 190.000,153.623 189.156,153.536 187.632 C 153.454 186.202,153.558 185.292,153.800 185.332 C 154.405 185.435,154.446 170.392,153.841 170.160 C 153.557 170.051,153.405 169.204,153.452 167.993 C 153.495 166.899,153.366 165.902,153.165 165.778 C 152.964 165.654,152.800 165.023,152.800 164.376 C 152.800 163.729,152.620 163.200,152.400 163.200 C 152.180 163.200,152.000 162.551,152.000 161.757 C 152.000 160.714,151.851 160.371,151.462 160.521 C 151.077 160.668,150.977 160.454,151.109 159.763 C 151.215 159.211,151.103 158.800,150.847 158.800 C 150.601 158.800,150.400 158.421,150.400 157.958 C 150.400 157.495,149.965 156.250,149.433 155.191 C 148.902 154.133,148.555 153.178,148.663 153.070 C 148.772 152.962,148.487 152.754,148.030 152.610 C 147.490 152.438,147.200 152.007,147.200 151.373 C 147.200 150.838,147.020 150.400,146.800 150.400 C 146.580 150.400,146.400 150.117,146.400 149.771 C 146.400 148.976,145.325 147.876,144.840 148.175 C 144.639 148.299,144.557 148.085,144.658 147.699 C 144.843 146.991,143.500 145.200,142.784 145.200 C 142.573 145.200,142.400 144.930,142.400 144.601 C 142.400 144.271,141.770 143.334,141.000 142.518 C 140.230 141.701,139.600 140.891,139.600 140.717 C 139.600 140.542,139.319 140.400,138.976 140.400 C 138.633 140.400,138.464 140.220,138.600 140.000 C 138.737 139.778,138.436 139.597,137.924 139.594 C 137.240 139.589,137.144 139.497,137.553 139.238 C 137.991 138.960,137.938 138.834,137.299 138.632 C 136.856 138.491,135.934 137.841,135.250 137.188 C 134.567 136.535,133.826 136.000,133.604 136.000 C 133.382 136.000,133.200 135.719,133.200 135.376 C 133.200 135.033,133.059 134.840,132.886 134.947 C 132.714 135.053,131.977 134.621,131.250 133.986 C 130.522 133.350,129.583 132.722,129.163 132.588 C 128.744 132.455,128.400 132.178,128.400 131.973 C 128.400 131.768,128.051 131.600,127.624 131.600 C 127.197 131.600,126.728 131.408,126.583 131.173 C 126.438 130.938,126.067 130.842,125.760 130.960 C 125.426 131.088,125.200 130.920,125.200 130.545 C 125.200 130.142,124.978 130.000,124.585 130.150 C 124.235 130.285,123.872 130.131,123.742 129.793 C 123.617 129.467,123.184 129.200,122.781 129.200 C 122.377 129.200,121.936 129.020,121.800 128.800 C 121.664 128.580,121.113 128.400,120.576 128.400 C 120.039 128.400,119.600 128.199,119.600 127.953 C 119.600 127.694,119.186 127.586,118.612 127.696 C 118.069 127.799,117.719 127.730,117.836 127.542 C 118.049 127.196,117.638 127.083,116.225 127.099 C 115.800 127.104,115.196 126.853,114.883 126.540 C 114.571 126.228,114.002 126.072,113.618 126.194 C 113.235 126.316,112.399 126.143,111.761 125.809 C 110.723 125.267,110.552 125.268,110.147 125.813 C 109.762 126.332,109.662 126.338,109.475 125.852 C 109.326 125.463,108.727 125.307,107.605 125.365 C 106.697 125.411,105.873 125.318,105.773 125.157 C 105.516 124.741,95.268 124.767,95.010 125.184 M247.242 135.500 C 247.266 139.845,247.252 143.895,247.212 144.500 C 247.172 145.105,247.333 145.600,247.570 145.600 C 247.806 145.600,248.000 146.140,248.000 146.800 C 248.000 147.460,248.180 148.000,248.400 148.000 C 248.620 148.000,248.800 148.234,248.800 148.520 C 248.800 149.256,249.741 151.193,250.100 151.197 C 250.265 151.199,250.400 151.470,250.400 151.800 C 250.400 152.130,250.584 152.400,250.809 152.400 C 251.033 152.400,251.425 152.857,251.680 153.415 C 251.955 154.019,252.365 154.345,252.692 154.220 C 252.994 154.104,253.132 154.187,252.998 154.404 C 252.756 154.795,254.688 156.763,255.337 156.787 C 255.522 156.794,256.128 157.158,256.684 157.595 C 257.239 158.032,257.853 158.291,258.047 158.171 C 258.241 158.051,258.400 158.155,258.400 158.402 C 258.400 158.648,258.732 158.794,259.139 158.725 C 259.545 158.656,260.130 158.806,260.439 159.057 C 260.747 159.308,261.900 159.605,263.000 159.716 C 266.249 160.045,333.967 160.227,333.462 159.906 C 333.208 159.744,333.956 159.609,335.124 159.606 C 336.436 159.602,337.153 159.447,337.000 159.200 C 336.853 158.962,337.321 158.800,338.153 158.800 C 338.923 158.800,339.666 158.617,339.804 158.393 C 339.942 158.170,340.223 158.091,340.428 158.218 C 340.634 158.344,341.003 157.942,341.248 157.324 C 341.494 156.706,341.777 156.420,341.877 156.688 C 342.020 157.073,342.186 157.073,342.658 156.688 C 344.076 155.532,346.400 153.073,346.400 152.728 C 346.400 152.522,346.580 152.464,346.800 152.600 C 347.020 152.736,347.200 152.556,347.200 152.200 C 347.200 151.844,347.380 151.664,347.600 151.800 C 347.820 151.936,348.000 151.677,348.000 151.224 C 348.000 150.771,348.180 150.400,348.400 150.400 C 348.620 150.400,348.800 150.040,348.800 149.600 C 348.800 149.160,348.980 148.800,349.200 148.800 C 349.420 148.800,349.600 148.005,349.600 147.033 C 349.600 146.062,349.774 145.207,349.987 145.133 C 350.200 145.060,350.419 144.415,350.472 143.700 C 350.526 142.985,350.734 142.400,350.934 142.400 C 351.134 142.400,351.051 142.095,350.749 141.723 C 350.376 141.263,350.360 141.143,350.700 141.347 C 351.348 141.736,351.364 140.724,350.720 140.080 C 350.347 139.707,350.347 139.600,350.720 139.600 C 351.072 139.600,351.200 138.000,351.200 133.600 C 351.200 129.867,351.351 127.600,351.600 127.600 C 351.820 127.600,352.000 127.780,352.000 128.000 C 352.000 128.220,352.540 128.400,353.200 128.400 C 353.860 128.400,354.400 128.580,354.400 128.800 C 354.400 129.020,354.760 129.200,355.200 129.200 C 355.640 129.200,356.000 129.380,356.000 129.600 C 356.000 129.820,356.371 130.000,356.824 130.000 C 357.277 130.000,357.536 130.180,357.400 130.400 C 357.264 130.620,357.433 130.800,357.776 130.800 C 358.119 130.800,358.400 131.043,358.400 131.341 C 358.400 131.638,358.898 132.403,359.506 133.041 C 360.131 133.695,360.550 134.526,360.468 134.947 C 360.378 135.412,360.489 135.592,360.762 135.424 C 361.029 135.259,361.213 135.514,361.232 136.076 C 361.250 136.584,361.367 137.540,361.491 138.200 C 361.890 140.324,362.024 337.200,361.626 337.200 C 361.422 337.200,361.308 337.695,361.372 338.300 C 361.497 339.466,360.491 342.000,359.902 342.000 C 359.710 342.000,359.666 342.182,359.803 342.405 C 360.180 343.016,354.995 347.768,354.373 347.383 C 354.177 347.262,353.608 347.388,353.108 347.663 C 352.609 347.939,351.840 348.119,351.400 348.064 C 350.723 347.980,350.692 348.034,351.200 348.420 C 351.686 348.789,351.648 348.811,351.000 348.538 C 350.560 348.352,326.544 348.160,297.630 348.111 C 257.919 348.044,244.990 347.907,244.771 347.553 C 244.611 347.295,244.193 347.194,243.840 347.329 C 243.432 347.486,243.200 347.362,243.200 346.987 C 243.200 346.664,242.840 346.400,242.400 346.400 C 241.960 346.400,241.600 346.209,241.600 345.976 C 241.600 345.743,241.420 345.664,241.200 345.800 C 240.980 345.936,240.800 345.747,240.800 345.381 C 240.800 344.974,240.582 344.798,240.239 344.930 C 239.930 345.048,239.573 344.843,239.442 344.472 C 239.312 344.103,238.684 343.088,238.047 342.217 C 237.410 341.347,236.978 340.402,237.087 340.117 C 237.196 339.833,237.041 339.600,236.743 339.600 C 236.158 339.600,236.072 136.160,236.656 135.641 C 236.806 135.509,236.799 135.625,236.641 135.900 C 236.482 136.175,236.543 136.400,236.776 136.400 C 237.009 136.400,237.200 136.040,237.200 135.600 C 237.200 135.160,237.400 134.800,237.643 134.800 C 237.920 134.800,237.989 134.412,237.827 133.766 C 237.672 133.148,237.721 132.828,237.950 132.969 C 238.341 133.211,241.600 130.146,241.600 129.536 C 241.600 129.351,241.960 129.200,242.400 129.200 C 242.840 129.200,243.200 129.020,243.200 128.800 C 243.200 128.580,243.740 128.400,244.400 128.400 C 245.060 128.400,245.600 128.220,245.600 128.000 C 245.600 127.780,245.960 127.600,246.400 127.600 C 247.172 127.600,247.202 127.881,247.242 135.500 M337.200 134.376 C 337.200 138.751,337.049 141.246,336.773 141.417 C 336.538 141.562,336.438 141.922,336.551 142.218 C 336.665 142.513,336.131 143.305,335.365 143.977 C 334.599 144.650,334.113 145.218,334.286 145.241 C 334.459 145.263,333.970 145.481,333.200 145.724 C 331.195 146.356,265.200 146.587,265.200 145.962 C 265.200 145.716,264.921 145.622,264.579 145.753 C 264.223 145.889,264.063 145.822,264.203 145.595 C 264.337 145.378,264.207 145.200,263.913 145.200 C 263.320 145.200,262.000 143.816,262.000 143.195 C 262.000 142.978,261.820 142.800,261.600 142.800 C 261.380 142.800,261.200 142.440,261.200 142.000 C 261.200 141.560,260.975 141.186,260.700 141.168 C 260.300 141.143,260.300 141.096,260.700 140.935 C 261.072 140.785,261.200 139.046,261.200 134.167 L 261.200 127.600 299.200 127.600 L 337.200 127.600 337.200 134.376 M101.400 138.800 C 101.536 139.020,101.377 139.200,101.047 139.200 C 100.717 139.200,100.336 139.020,100.200 138.800 C 100.064 138.580,100.223 138.400,100.553 138.400 C 100.883 138.400,101.264 138.580,101.400 138.800 M108.000 139.400 C 108.601 139.209,108.812 139.258,108.634 139.545 C 108.353 140.000,110.260 140.673,110.669 140.264 C 110.797 140.136,111.435 140.308,112.087 140.645 C 112.739 140.982,113.526 141.161,113.836 141.041 C 114.146 140.922,114.400 140.999,114.400 141.213 C 114.400 141.426,114.760 141.600,115.200 141.600 C 115.640 141.600,116.000 141.780,116.000 142.000 C 116.000 142.220,116.540 142.400,117.200 142.400 C 117.860 142.400,118.400 142.580,118.400 142.800 C 118.400 143.020,118.760 143.200,119.200 143.200 C 119.640 143.200,120.000 143.380,120.000 143.600 C 120.000 143.820,120.320 144.000,120.712 144.000 C 121.103 144.000,121.683 144.360,122.000 144.800 C 122.317 145.240,122.997 145.600,123.512 145.600 C 124.034 145.600,124.338 145.777,124.200 146.000 C 124.064 146.220,124.250 146.400,124.614 146.400 C 124.977 146.400,125.369 146.760,125.484 147.200 C 125.603 147.654,126.030 148.000,126.470 148.000 C 126.962 148.000,127.141 148.172,126.958 148.468 C 126.762 148.785,126.889 148.851,127.355 148.673 C 127.766 148.515,127.943 148.569,127.795 148.808 C 127.535 149.228,128.118 149.895,129.417 150.663 C 129.848 150.917,130.155 151.322,130.100 151.563 C 130.045 151.803,130.258 152.000,130.573 152.000 C 130.888 152.000,131.261 152.363,131.402 152.806 C 131.543 153.249,131.787 153.531,131.946 153.434 C 132.104 153.336,132.261 153.618,132.295 154.061 C 132.328 154.505,132.725 155.188,133.178 155.581 C 133.630 155.973,134.000 156.498,134.000 156.747 C 134.000 156.996,134.180 157.200,134.400 157.200 C 134.620 157.200,134.800 157.560,134.800 158.000 C 134.800 158.440,134.938 158.800,135.106 158.800 C 135.274 158.800,135.723 159.520,136.104 160.400 C 136.486 161.280,136.961 162.000,137.161 162.000 C 137.361 162.000,137.436 162.343,137.326 162.761 C 137.189 163.285,137.385 163.605,137.952 163.785 C 138.666 164.011,138.711 164.159,138.289 164.876 C 137.902 165.532,137.904 165.742,138.300 165.886 C 138.575 165.985,138.800 166.577,138.800 167.200 C 138.800 167.823,138.965 168.393,139.166 168.467 C 139.367 168.540,139.583 169.410,139.646 170.400 C 139.709 171.390,139.925 172.313,140.125 172.451 C 140.325 172.589,140.468 174.074,140.443 175.751 C 140.410 177.949,140.537 178.802,140.899 178.806 C 141.264 178.811,141.275 178.892,140.940 179.106 C 140.670 179.278,140.479 180.472,140.480 181.987 C 140.480 183.659,140.308 184.631,139.995 184.735 C 139.635 184.855,139.650 184.986,140.055 185.242 C 140.454 185.495,140.466 185.589,140.100 185.594 C 139.815 185.597,139.600 186.105,139.600 186.776 C 139.600 187.423,139.420 188.064,139.200 188.200 C 138.980 188.336,138.800 188.876,138.800 189.400 C 138.800 189.924,138.620 190.464,138.400 190.600 C 138.180 190.736,138.000 191.287,138.000 191.824 C 138.000 192.361,137.820 192.800,137.600 192.800 C 137.380 192.800,137.200 193.124,137.200 193.520 C 137.200 193.916,136.975 194.482,136.700 194.779 C 136.292 195.218,136.326 195.274,136.880 195.079 C 137.356 194.912,137.494 195.010,137.342 195.408 C 137.222 195.720,137.006 195.959,136.862 195.940 C 136.045 195.832,135.694 196.140,135.200 197.400 C 134.898 198.170,134.525 198.800,134.372 198.800 C 134.108 198.800,133.486 200.323,133.538 200.843 C 133.551 200.976,133.165 201.302,132.681 201.567 C 132.196 201.832,131.421 202.796,130.958 203.708 C 130.494 204.620,129.785 205.554,129.381 205.783 C 128.157 206.479,126.720 207.999,127.282 208.006 C 127.662 208.011,127.645 208.110,127.219 208.380 C 126.900 208.582,126.467 208.642,126.258 208.512 C 126.050 208.383,125.681 208.546,125.439 208.873 C 124.545 210.086,119.045 213.296,118.580 212.877 C 118.411 212.725,118.375 212.887,118.500 213.238 C 118.677 213.734,118.514 213.834,117.763 213.691 C 117.211 213.585,116.800 213.697,116.800 213.953 C 116.800 214.199,116.459 214.400,116.043 214.400 C 115.626 214.400,115.187 214.656,115.067 214.969 C 114.932 215.322,114.529 215.454,114.006 215.318 C 113.466 215.176,112.977 215.353,112.642 215.810 C 112.356 216.202,111.946 216.414,111.732 216.282 C 111.519 216.150,110.757 216.398,110.040 216.834 C 109.323 217.270,108.851 217.441,108.992 217.214 C 109.146 216.964,108.775 216.800,108.057 216.800 C 107.402 216.800,106.800 217.000,106.719 217.244 C 106.621 217.538,104.666 217.708,100.936 217.744 C 96.575 217.787,95.345 217.687,95.494 217.300 C 95.606 217.008,95.369 216.800,94.923 216.800 C 94.503 216.800,93.918 217.025,93.621 217.300 C 93.190 217.700,93.139 217.700,93.365 217.300 C 93.559 216.957,93.326 216.800,92.624 216.800 C 92.061 216.800,91.600 216.620,91.600 216.400 C 91.600 216.180,91.409 216.000,91.176 216.000 C 90.943 216.000,90.867 216.184,91.006 216.410 C 91.145 216.635,90.611 216.455,89.818 216.010 C 89.025 215.564,88.021 215.200,87.588 215.200 C 87.155 215.200,86.800 215.026,86.800 214.813 C 86.800 214.599,86.559 214.518,86.264 214.631 C 85.969 214.744,85.506 214.569,85.235 214.242 C 84.964 213.915,84.486 213.746,84.174 213.865 C 83.862 213.985,83.502 213.811,83.375 213.478 C 83.247 213.145,82.615 212.655,81.971 212.388 C 81.327 212.121,80.800 211.724,80.800 211.505 C 80.800 211.286,80.366 211.190,79.837 211.291 C 79.113 211.429,78.929 211.329,79.097 210.891 C 79.270 210.440,79.104 210.369,78.361 210.580 C 77.832 210.730,77.605 210.706,77.856 210.526 C 78.183 210.292,78.130 210.031,77.666 209.600 C 77.310 209.270,76.970 209.045,76.910 209.100 C 76.409 209.556,75.484 208.985,75.144 208.012 C 74.916 207.358,74.611 206.839,74.465 206.859 C 73.693 206.963,73.200 206.745,73.200 206.300 C 73.199 205.623,71.424 203.600,70.830 203.600 C 70.567 203.600,70.464 203.420,70.600 203.200 C 70.736 202.980,70.678 202.800,70.470 202.800 C 70.263 202.800,69.991 202.410,69.867 201.934 C 69.667 201.171,69.555 201.133,68.920 201.615 C 68.305 202.082,68.273 202.080,68.700 201.601 C 69.362 200.859,69.333 200.400,68.624 200.400 C 68.307 200.400,67.919 200.192,67.762 199.938 C 67.594 199.667,67.651 199.584,67.901 199.739 C 68.180 199.911,68.169 199.670,67.869 199.035 C 67.618 198.503,67.275 198.154,67.107 198.258 C 66.938 198.362,66.800 197.987,66.800 197.424 C 66.800 196.861,66.620 196.400,66.400 196.400 C 66.180 196.400,66.000 196.040,66.000 195.600 C 66.000 195.160,65.820 194.800,65.600 194.800 C 65.380 194.800,65.200 194.519,65.200 194.176 C 65.200 193.833,65.020 193.664,64.800 193.800 C 64.580 193.936,64.400 193.767,64.400 193.424 C 64.400 193.081,64.211 192.800,63.980 192.800 C 63.704 192.800,63.689 192.569,63.936 192.128 C 64.194 191.667,64.143 191.286,63.773 190.916 C 63.477 190.620,63.321 190.151,63.427 189.874 C 63.533 189.598,63.248 188.973,62.794 188.486 C 62.340 187.999,62.156 187.600,62.384 187.600 C 62.953 187.600,62.912 186.504,62.336 186.312 C 62.043 186.214,61.899 185.306,61.947 183.848 C 62.005 182.066,61.906 181.609,61.511 181.846 C 61.143 182.068,61.153 181.964,61.549 181.477 C 61.973 180.954,61.991 180.671,61.629 180.235 C 61.146 179.652,61.137 176.000,61.619 176.000 C 61.768 176.000,61.897 174.896,61.907 173.547 C 61.916 172.198,62.095 170.983,62.304 170.847 C 62.513 170.711,62.698 169.990,62.717 169.245 C 62.735 168.500,62.941 167.699,63.175 167.465 C 63.409 167.231,63.600 166.626,63.600 166.120 C 63.600 165.614,63.780 165.200,64.000 165.200 C 64.220 165.200,64.400 164.671,64.400 164.024 C 64.400 163.377,64.580 162.736,64.800 162.600 C 65.020 162.464,65.200 161.993,65.200 161.553 C 65.200 161.113,65.380 160.864,65.600 161.000 C 65.820 161.136,66.000 160.877,66.000 160.424 C 66.000 159.971,66.138 159.600,66.306 159.600 C 66.645 159.600,68.186 156.373,68.072 155.900 C 68.032 155.735,68.215 155.645,68.478 155.700 C 68.741 155.755,69.079 155.260,69.230 154.600 C 69.382 153.940,69.527 153.632,69.553 153.916 C 69.591 154.337,69.703 154.337,70.160 153.916 C 70.467 153.632,70.669 153.346,70.607 153.281 C 70.379 153.039,77.343 146.204,77.706 146.314 C 77.913 146.376,78.381 146.106,78.745 145.714 C 79.576 144.819,81.014 144.000,81.752 144.000 C 82.061 144.000,82.417 143.733,82.542 143.407 C 82.672 143.069,83.035 142.915,83.385 143.050 C 83.723 143.179,84.000 143.086,84.000 142.843 C 84.000 142.599,84.360 142.400,84.800 142.400 C 85.240 142.400,85.600 142.220,85.600 142.000 C 85.600 141.780,86.050 141.600,86.600 141.600 C 87.150 141.600,87.600 141.437,87.600 141.237 C 87.600 141.038,87.942 140.964,88.359 141.073 C 88.777 141.183,89.542 141.040,90.059 140.756 C 90.577 140.473,91.429 140.293,91.954 140.356 C 92.479 140.420,93.055 140.234,93.234 139.945 C 93.485 139.539,95.031 139.437,99.980 139.501 C 104.835 139.563,106.401 139.464,106.406 139.092 C 106.410 138.741,106.511 138.756,106.756 139.143 C 106.980 139.496,107.414 139.586,108.000 139.400 M116.478 160.130 C 115.995 160.346,115.600 160.675,115.600 160.861 C 115.600 161.048,115.370 161.200,115.088 161.200 C 114.807 161.200,114.317 161.560,114.000 162.000 C 113.683 162.440,113.281 162.800,113.108 162.800 C 112.611 162.800,110.189 165.258,110.300 165.649 C 110.355 165.842,110.119 166.000,109.776 166.000 C 109.433 166.000,109.247 166.153,109.363 166.340 C 109.478 166.527,109.129 166.917,108.586 167.207 C 108.044 167.498,107.600 167.885,107.600 168.068 C 107.600 168.250,107.375 168.403,107.100 168.406 C 106.520 168.412,101.138 173.405,101.414 173.681 C 101.516 173.782,101.104 174.121,100.499 174.433 C 99.895 174.745,99.205 175.180,98.966 175.400 C 98.727 175.620,98.030 176.160,97.417 176.600 C 95.784 177.772,94.798 178.874,95.037 179.261 C 95.153 179.447,94.967 179.600,94.624 179.600 C 94.281 179.600,93.994 179.285,93.987 178.900 C 93.981 178.515,93.501 177.854,92.922 177.432 C 92.342 177.009,92.016 176.902,92.196 177.193 C 92.414 177.546,92.369 177.628,92.062 177.438 C 91.808 177.281,91.600 176.636,91.600 176.005 C 91.600 175.374,91.375 174.619,91.100 174.329 C 90.825 174.038,90.345 173.305,90.032 172.700 C 89.720 172.095,89.337 171.600,89.181 171.600 C 89.025 171.600,88.674 171.062,88.402 170.405 C 88.130 169.748,87.748 169.309,87.554 169.429 C 87.359 169.549,87.200 169.367,87.200 169.024 C 87.200 168.681,86.930 168.400,86.600 168.400 C 86.270 168.400,86.000 168.199,86.000 167.953 C 86.000 167.693,85.584 167.586,85.003 167.697 C 84.435 167.806,83.810 167.654,83.554 167.344 C 83.034 166.718,80.800 166.601,80.800 167.200 C 80.800 167.420,80.359 167.600,79.820 167.600 C 79.281 167.600,78.656 167.915,78.432 168.300 C 78.208 168.685,78.019 168.843,78.012 168.651 C 78.005 168.459,77.741 168.517,77.424 168.780 C 77.107 169.043,76.957 169.545,77.092 169.895 C 77.247 170.299,77.175 170.432,76.895 170.259 C 76.214 169.838,75.120 171.622,75.660 172.273 C 75.935 172.603,75.948 172.800,75.695 172.800 C 75.470 172.800,75.345 173.549,75.410 174.500 C 75.571 176.829,75.695 177.250,76.486 178.145 C 76.864 178.572,77.095 179.047,77.000 179.200 C 76.905 179.353,77.226 179.907,77.714 180.430 C 78.201 180.953,78.600 181.515,78.600 181.678 C 78.600 181.841,78.925 182.354,79.323 182.818 C 79.720 183.282,80.243 184.095,80.483 184.623 C 80.724 185.152,81.254 185.690,81.661 185.819 C 82.067 185.948,82.400 186.362,82.400 186.738 C 82.400 187.114,82.760 187.730,83.200 188.107 C 83.640 188.484,84.000 189.064,84.000 189.396 C 84.000 189.728,84.289 190.000,84.643 190.000 C 85.050 190.000,85.201 190.220,85.055 190.600 C 84.929 190.930,84.999 191.200,85.213 191.200 C 85.426 191.200,85.600 191.393,85.600 191.629 C 85.600 192.221,86.649 193.218,86.952 192.914 C 87.089 192.778,87.206 193.012,87.213 193.433 C 87.230 194.453,88.134 195.600,88.920 195.600 C 89.268 195.600,89.664 195.780,89.800 196.000 C 89.936 196.220,90.407 196.400,90.847 196.400 C 91.287 196.400,91.563 196.536,91.460 196.702 C 91.108 197.272,95.129 197.168,95.604 196.595 C 95.854 196.294,96.345 196.157,96.695 196.292 C 97.117 196.454,97.234 196.378,97.042 196.068 C 96.877 195.801,96.979 195.600,97.280 195.600 C 97.570 195.600,98.032 195.240,98.307 194.800 C 98.582 194.360,99.075 194.000,99.403 194.000 C 99.732 194.000,100.000 193.820,100.000 193.600 C 100.000 193.380,100.188 193.200,100.418 193.200 C 100.982 193.200,103.028 191.119,102.890 190.685 C 102.830 190.496,102.944 190.442,103.145 190.566 C 103.627 190.864,104.478 189.820,104.097 189.399 C 103.933 189.219,103.982 189.175,104.204 189.300 C 104.746 189.606,106.144 188.556,105.843 188.069 C 105.712 187.858,106.070 187.569,106.637 187.426 C 107.825 187.128,109.150 185.885,109.968 184.300 C 110.280 183.695,110.865 183.200,111.268 183.200 C 111.670 183.200,112.000 182.936,112.000 182.614 C 112.000 181.948,113.356 181.089,113.763 181.497 C 113.911 181.644,114.136 181.368,114.263 180.883 C 114.389 180.397,114.748 180.000,115.060 180.000 C 115.724 180.000,118.400 177.428,118.400 176.790 C 118.400 176.549,118.580 176.464,118.800 176.600 C 119.020 176.736,119.200 176.477,119.200 176.024 C 119.200 175.283,119.828 174.971,120.930 175.163 C 121.111 175.194,121.145 175.035,121.006 174.810 C 120.867 174.584,121.033 174.400,121.376 174.400 C 122.020 174.400,125.568 171.209,124.948 171.188 C 124.757 171.181,124.915 170.992,125.300 170.768 C 125.733 170.516,126.002 169.872,126.006 169.080 C 126.011 168.106,126.105 167.944,126.400 168.400 C 126.674 168.823,126.790 168.277,126.794 166.543 C 126.799 164.679,126.649 164.028,126.175 163.846 C 125.831 163.714,125.658 163.429,125.791 163.214 C 127.118 161.067,119.805 158.646,116.478 160.130 M295.600 185.200 C 295.600 185.420,295.407 185.600,295.171 185.600 C 294.618 185.600,293.600 186.618,293.600 187.171 C 293.600 187.407,293.409 187.600,293.176 187.600 C 292.943 187.600,292.864 187.780,293.000 188.000 C 293.136 188.220,293.062 188.400,292.836 188.400 C 292.610 188.400,292.529 188.670,292.655 189.000 C 292.782 189.330,292.678 189.600,292.425 189.600 C 292.172 189.600,291.994 189.825,292.030 190.100 C 292.485 193.608,291.924 202.000,291.233 202.000 C 290.812 202.000,290.399 202.203,290.317 202.450 C 290.234 202.697,289.679 202.900,289.083 202.900 C 288.488 202.900,288.000 203.058,288.000 203.250 C 288.000 203.442,287.640 203.600,287.200 203.600 C 286.760 203.600,286.400 203.780,286.400 204.000 C 286.400 204.220,286.040 204.400,285.600 204.400 C 285.160 204.400,284.800 204.580,284.800 204.800 C 284.800 205.020,284.440 205.200,284.000 205.200 C 283.263 205.200,282.999 205.639,283.175 206.568 C 283.214 206.770,282.965 206.703,282.623 206.419 C 282.280 206.135,282.000 206.074,282.000 206.283 C 282.000 206.493,281.553 206.904,281.007 207.196 C 280.460 207.489,279.907 208.062,279.778 208.470 C 279.648 208.878,279.374 209.107,279.168 208.980 C 278.962 208.853,278.626 209.165,278.422 209.674 C 278.218 210.183,278.039 210.368,278.025 210.084 C 278.005 209.663,277.897 209.663,277.440 210.084 C 277.012 210.479,276.989 210.733,277.340 211.165 C 277.701 211.609,277.674 211.688,277.211 211.536 C 276.573 211.325,274.800 212.868,274.800 213.635 C 274.800 213.894,274.423 214.433,273.963 214.832 C 273.503 215.231,273.244 215.748,273.389 215.982 C 273.533 216.215,273.370 216.513,273.028 216.645 C 272.685 216.776,272.495 217.030,272.606 217.210 C 272.717 217.389,272.536 217.807,272.204 218.139 C 271.872 218.471,271.600 219.126,271.600 219.595 C 271.600 220.064,271.420 220.336,271.200 220.200 C 270.967 220.056,270.800 220.455,270.800 221.153 C 270.800 221.813,270.631 222.457,270.425 222.584 C 270.219 222.712,270.061 223.554,270.073 224.455 C 270.085 225.356,269.918 226.208,269.702 226.347 C 269.153 226.700,269.160 235.662,269.709 236.328 C 269.949 236.619,270.134 237.564,270.122 238.428 C 270.109 239.293,270.257 240.000,270.449 240.000 C 270.642 240.000,270.800 240.540,270.800 241.200 C 270.800 241.860,270.980 242.400,271.200 242.400 C 271.420 242.400,271.600 242.683,271.600 243.029 C 271.600 243.374,271.872 243.929,272.204 244.261 C 272.536 244.593,272.705 245.030,272.580 245.232 C 272.455 245.435,272.543 245.600,272.776 245.600 C 273.009 245.600,273.200 245.883,273.200 246.229 C 273.200 247.132,274.273 248.149,274.536 247.496 C 274.647 247.223,274.751 247.585,274.768 248.300 C 274.786 249.015,274.991 249.600,275.224 249.600 C 275.457 249.600,275.519 249.392,275.362 249.138 C 275.184 248.850,275.252 248.785,275.545 248.966 C 275.802 249.125,275.920 249.407,275.805 249.592 C 275.481 250.116,276.027 251.200,276.616 251.200 C 276.907 251.200,277.264 251.573,277.409 252.029 C 277.573 252.544,277.894 252.773,278.257 252.634 C 278.587 252.507,278.734 252.583,278.595 252.808 C 278.314 253.262,279.314 254.400,279.995 254.400 C 280.244 254.400,280.336 254.580,280.200 254.800 C 280.064 255.020,280.323 255.200,280.776 255.200 C 281.229 255.200,281.600 255.391,281.600 255.624 C 281.600 255.857,281.780 255.936,282.000 255.800 C 282.220 255.664,282.400 255.741,282.400 255.971 C 282.400 256.559,285.383 258.377,286.820 258.664 C 287.478 258.796,288.114 259.060,288.232 259.252 C 288.350 259.443,289.056 259.600,289.800 259.600 C 290.544 259.600,291.264 259.780,291.400 260.000 C 291.536 260.220,292.267 260.400,293.024 260.400 C 293.781 260.400,294.400 260.573,294.400 260.784 C 294.400 261.001,295.985 261.165,298.058 261.162 C 300.099 261.159,301.903 261.343,302.138 261.578 C 302.370 261.810,303.075 262.000,303.704 262.000 C 304.364 262.000,304.743 262.169,304.600 262.400 C 304.456 262.633,304.855 262.800,305.554 262.800 C 306.255 262.800,306.972 263.102,307.277 263.526 C 307.795 264.245,309.127 264.984,309.693 264.866 C 309.854 264.832,310.103 265.271,310.246 265.840 C 310.438 266.606,310.595 266.736,310.847 266.338 C 311.034 266.042,311.204 265.980,311.224 266.200 C 311.329 267.334,311.584 268.145,311.905 268.360 C 312.387 268.683,313.600 271.189,313.600 271.861 C 313.600 272.158,313.761 272.400,313.958 272.400 C 314.295 272.400,314.507 273.392,315.057 277.551 C 315.224 278.814,315.161 279.223,314.830 279.018 C 314.513 278.823,314.399 279.151,314.461 280.073 C 314.555 281.477,313.653 284.000,313.056 284.000 C 312.864 284.000,312.801 284.360,312.916 284.800 C 313.052 285.320,312.928 285.600,312.563 285.600 C 312.065 285.600,311.948 285.820,312.020 286.621 C 312.031 286.743,311.500 287.346,310.841 287.962 C 309.908 288.833,309.748 289.189,310.121 289.565 C 310.494 289.941,310.445 289.988,309.900 289.781 C 309.481 289.621,309.200 289.702,309.200 289.981 C 309.200 290.237,309.035 290.345,308.832 290.220 C 308.630 290.095,308.193 290.264,307.861 290.596 C 307.529 290.928,306.974 291.200,306.629 291.200 C 306.283 291.200,306.000 291.380,306.000 291.600 C 306.000 291.820,305.640 292.000,305.200 292.000 C 304.760 292.000,304.400 292.174,304.400 292.387 C 304.400 292.601,304.128 292.670,303.795 292.543 C 303.462 292.415,302.915 292.539,302.578 292.818 C 301.921 293.364,296.072 293.614,295.900 293.103 C 295.845 292.940,295.260 292.768,294.600 292.720 C 293.940 292.673,293.310 292.536,293.200 292.417 C 292.671 291.844,291.125 291.199,290.784 291.410 C 290.573 291.540,290.400 291.444,290.400 291.195 C 290.400 290.585,289.358 289.576,289.048 289.886 C 288.911 290.022,288.800 289.864,288.800 289.534 C 288.800 289.205,288.350 288.694,287.800 288.400 C 287.250 288.106,286.800 287.743,286.800 287.594 C 286.800 287.198,285.347 285.586,285.159 285.773 C 285.072 285.860,284.962 285.400,284.915 284.752 C 284.868 284.103,284.552 283.295,284.211 282.954 C 283.871 282.614,283.687 282.182,283.803 281.995 C 283.918 281.808,283.830 281.542,283.607 281.404 C 283.383 281.266,283.200 279.903,283.200 278.376 C 283.200 276.792,283.028 275.600,282.800 275.600 C 282.580 275.600,282.400 275.330,282.400 275.000 C 282.400 274.670,282.226 274.400,282.013 274.400 C 281.799 274.400,281.715 274.164,281.826 273.877 C 282.117 273.117,280.654 271.600,279.629 271.600 C 279.147 271.600,278.864 271.420,279.000 271.200 C 279.143 270.969,278.760 270.800,278.090 270.800 C 277.454 270.800,276.810 270.676,276.659 270.525 C 276.256 270.123,274.800 270.077,274.800 270.467 C 274.800 270.650,274.321 270.800,273.736 270.800 C 272.615 270.800,270.234 273.008,270.642 273.668 C 270.762 273.862,270.711 273.994,270.530 273.963 C 269.513 273.786,269.200 274.116,269.200 275.367 C 269.200 276.118,269.425 276.824,269.700 276.935 C 270.100 277.096,270.100 277.143,269.700 277.168 C 269.098 277.206,268.978 283.854,269.575 284.067 C 269.782 284.140,270.015 284.688,270.094 285.285 C 270.172 285.882,270.363 286.497,270.518 286.652 C 270.673 286.807,270.800 287.269,270.800 287.679 C 270.800 288.089,271.050 288.521,271.356 288.638 C 271.689 288.766,271.826 289.178,271.698 289.667 C 271.581 290.115,271.646 290.598,271.843 290.741 C 272.540 291.246,274.000 293.577,274.000 294.184 C 274.000 294.547,274.370 294.813,274.900 294.832 C 275.395 294.849,275.568 294.956,275.284 295.070 C 274.913 295.219,275.016 295.493,275.645 296.039 C 276.127 296.457,276.377 296.800,276.199 296.800 C 276.021 296.800,276.198 297.156,276.591 297.591 C 276.985 298.025,277.491 298.268,277.715 298.129 C 277.950 297.983,278.002 298.074,277.836 298.342 C 277.661 298.624,278.029 299.081,278.772 299.504 C 279.444 299.887,279.996 300.348,279.997 300.529 C 280.003 301.236,282.099 302.633,282.900 302.464 C 283.065 302.429,283.200 302.670,283.200 303.000 C 283.200 303.333,283.556 303.600,284.000 303.600 C 284.440 303.600,284.800 303.780,284.800 304.000 C 284.800 304.220,285.036 304.400,285.325 304.400 C 285.614 304.400,286.621 304.773,287.564 305.228 C 288.506 305.683,289.373 305.961,289.489 305.844 C 289.606 305.727,290.219 305.899,290.851 306.226 L 292.000 306.821 292.000 312.330 C 292.000 316.184,292.150 318.002,292.500 318.379 C 292.900 318.810,292.900 318.861,292.500 318.635 C 292.225 318.480,292.000 318.543,292.000 318.776 C 292.000 319.009,292.180 319.200,292.400 319.200 C 292.620 319.200,292.800 319.469,292.800 319.797 C 292.800 320.570,294.419 322.436,294.856 322.166 C 295.040 322.052,295.072 322.267,294.927 322.645 C 294.756 323.091,294.818 323.236,295.104 323.059 C 295.347 322.909,295.660 322.973,295.800 323.200 C 295.940 323.427,296.223 323.509,296.428 323.383 C 296.632 323.256,296.800 323.323,296.800 323.532 C 296.800 324.051,300.767 323.985,302.000 323.444 C 303.168 322.932,304.723 321.606,304.175 321.588 C 303.969 321.581,304.123 321.388,304.518 321.158 C 305.010 320.872,305.159 320.468,304.991 319.870 C 304.799 319.182,304.836 319.126,305.168 319.600 C 305.717 320.385,305.715 320.410,305.623 313.200 L 305.543 307.000 306.651 306.500 C 307.261 306.225,308.073 306.000,308.456 306.000 C 308.839 306.000,309.264 305.820,309.400 305.600 C 309.536 305.380,309.969 305.200,310.362 305.200 C 310.755 305.200,311.391 304.852,311.776 304.427 C 312.160 304.002,312.705 303.742,312.986 303.850 C 313.267 303.958,313.745 303.811,314.048 303.523 C 314.352 303.235,315.095 302.745,315.700 302.432 C 316.305 302.120,316.800 301.715,316.800 301.532 C 316.800 301.350,317.070 301.200,317.400 301.200 C 317.730 301.200,318.000 301.020,318.000 300.800 C 318.000 300.580,318.193 300.400,318.429 300.400 C 319.091 300.400,320.081 299.254,319.805 298.808 C 319.662 298.577,319.821 298.510,320.179 298.647 C 320.745 298.865,321.000 298.408,320.837 297.470 C 320.806 297.289,320.928 297.232,321.109 297.344 C 321.677 297.695,322.437 296.967,322.510 296.003 C 322.548 295.494,322.863 295.004,323.210 294.913 C 323.556 294.823,324.074 294.374,324.359 293.916 C 324.825 293.171,324.802 293.114,324.140 293.367 C 323.465 293.625,323.470 293.579,324.200 292.844 C 325.683 291.351,326.057 290.800,325.587 290.800 C 325.337 290.800,325.413 290.530,325.762 290.181 C 326.747 289.196,327.711 286.868,327.488 286.013 C 327.375 285.582,327.532 285.022,327.837 284.770 C 328.157 284.504,328.365 283.661,328.331 282.774 C 328.297 281.929,328.467 281.001,328.707 280.712 C 329.244 280.065,329.307 274.514,328.781 274.188 C 328.571 274.059,328.400 272.995,328.400 271.825 C 328.400 270.492,328.191 269.525,327.841 269.234 C 327.534 268.979,327.372 268.429,327.481 268.011 C 327.597 267.570,327.328 266.875,326.840 266.351 C 326.371 265.847,325.997 264.909,325.994 264.225 C 325.990 263.531,325.858 263.203,325.689 263.470 C 325.489 263.784,325.239 263.618,324.933 262.969 C 324.596 262.257,324.595 262.073,324.926 262.278 C 325.175 262.432,324.965 261.937,324.460 261.179 C 323.955 260.420,323.444 259.485,323.324 259.100 C 323.205 258.715,322.852 258.400,322.541 258.400 C 322.230 258.400,321.854 258.085,321.707 257.701 C 321.354 256.781,319.600 255.037,319.600 255.605 C 319.600 255.848,319.417 255.934,319.193 255.796 C 318.970 255.658,318.891 255.376,319.019 255.169 C 319.295 254.722,318.205 253.528,317.848 253.886 C 317.711 254.022,317.600 253.849,317.600 253.502 C 317.600 253.131,317.315 252.913,316.908 252.972 C 316.527 253.028,315.884 252.652,315.479 252.137 C 315.074 251.622,314.485 251.200,314.171 251.200 C 313.857 251.200,313.600 251.001,313.600 250.757 C 313.600 250.514,313.323 250.421,312.985 250.550 C 312.635 250.685,312.272 250.531,312.142 250.193 C 312.017 249.867,311.574 249.600,311.157 249.600 C 310.741 249.600,310.400 249.400,310.400 249.156 C 310.400 248.886,309.862 248.775,309.028 248.873 C 308.215 248.968,307.685 248.863,307.728 248.616 C 307.768 248.387,307.170 248.197,306.400 248.193 C 305.630 248.188,304.775 248.043,304.500 247.869 C 304.225 247.695,303.792 247.681,303.538 247.838 C 303.270 248.004,303.184 247.949,303.334 247.707 C 303.505 247.430,302.424 247.294,300.114 247.300 C 297.864 247.306,296.583 247.149,296.485 246.855 C 296.402 246.605,295.729 246.400,294.990 246.400 C 294.252 246.400,293.526 246.204,293.378 245.965 C 293.231 245.726,292.770 245.619,292.355 245.728 C 291.937 245.837,291.599 245.719,291.597 245.463 C 291.596 245.208,291.067 244.700,290.423 244.333 C 289.328 243.711,289.263 243.711,289.438 244.333 C 289.541 244.700,289.397 244.550,289.119 244.000 C 288.375 242.527,287.671 241.912,287.103 242.239 C 286.826 242.398,286.730 242.385,286.888 242.209 C 287.047 242.034,286.822 241.392,286.388 240.783 C 285.955 240.175,285.600 239.479,285.600 239.238 C 285.600 238.997,285.420 238.800,285.200 238.800 C 284.980 238.800,284.800 238.440,284.800 238.000 C 284.800 237.560,284.620 237.200,284.400 237.200 C 284.180 237.200,283.997 236.615,283.994 235.900 C 283.989 234.914,283.894 234.745,283.600 235.200 C 283.307 235.653,283.203 235.457,283.175 234.400 C 283.057 229.908,283.196 227.850,283.635 227.578 C 283.900 227.415,284.008 226.998,283.875 226.652 C 283.743 226.306,283.896 225.761,284.217 225.440 C 284.538 225.119,284.800 224.574,284.800 224.229 C 284.800 223.883,284.980 223.600,285.200 223.600 C 285.420 223.600,285.600 223.330,285.600 223.000 C 285.600 222.670,285.780 222.400,286.000 222.400 C 286.220 222.400,286.400 222.209,286.400 221.976 C 286.400 221.743,286.192 221.681,285.938 221.838 C 285.650 222.016,285.585 221.948,285.766 221.655 C 285.925 221.398,286.205 221.280,286.388 221.393 C 286.744 221.613,289.609 218.943,289.324 218.657 C 289.230 218.564,289.704 218.244,290.377 217.946 C 291.050 217.648,291.600 217.269,291.600 217.102 C 291.600 216.936,291.971 216.800,292.424 216.800 C 292.877 216.800,293.136 216.620,293.000 216.400 C 292.853 216.163,293.318 216.000,294.143 216.000 C 294.908 216.000,295.595 215.816,295.670 215.591 C 295.872 214.983,301.505 215.023,302.246 215.638 C 302.749 216.055,302.927 216.044,303.224 215.574 C 303.477 215.176,303.590 215.153,303.594 215.500 C 303.597 215.775,303.960 216.000,304.400 216.000 C 304.840 216.000,305.200 216.151,305.200 216.336 C 305.200 216.845,307.199 217.648,307.698 217.339 C 307.982 217.164,308.043 217.312,307.870 217.761 C 307.663 218.303,307.767 218.401,308.353 218.215 C 308.891 218.044,309.163 218.215,309.322 218.825 C 309.491 219.468,309.743 219.609,310.372 219.409 C 310.978 219.217,311.200 219.321,311.200 219.797 C 311.200 220.154,311.020 220.336,310.800 220.200 C 310.580 220.064,310.400 220.143,310.400 220.376 C 310.400 220.609,310.631 220.800,310.912 220.800 C 311.194 220.800,311.628 221.340,311.878 222.000 C 312.128 222.664,312.625 223.200,312.989 223.200 C 313.351 223.200,313.537 223.378,313.403 223.596 C 313.268 223.813,313.435 224.578,313.774 225.296 C 314.113 226.013,314.449 227.148,314.521 227.818 C 314.593 228.488,314.789 229.258,314.957 229.530 C 315.125 229.802,315.278 230.985,315.298 232.159 C 315.336 234.447,316.024 235.880,316.841 235.374 C 317.185 235.162,317.259 235.270,317.082 235.730 C 316.926 236.137,317.015 236.354,317.314 236.295 C 317.581 236.243,317.750 236.439,317.690 236.730 C 317.614 237.094,317.834 237.180,318.390 237.003 C 318.835 236.862,319.200 236.923,319.200 237.140 C 319.200 237.356,318.978 237.607,318.706 237.698 C 318.434 237.789,319.784 237.880,321.706 237.900 C 324.592 237.932,325.200 237.832,325.200 237.326 C 325.200 236.934,325.426 236.801,325.830 236.956 C 326.553 237.234,327.600 236.345,327.600 235.452 C 327.600 235.119,327.780 234.736,328.000 234.600 C 328.220 234.464,328.400 233.993,328.400 233.553 C 328.400 233.113,328.561 232.852,328.757 232.973 C 328.953 233.095,329.129 232.123,329.148 230.815 C 329.166 229.506,329.005 228.327,328.791 228.194 C 328.576 228.061,328.400 226.984,328.400 225.800 C 328.400 224.616,328.220 223.536,328.000 223.400 C 327.780 223.264,327.600 222.623,327.600 221.976 C 327.600 221.329,327.420 220.800,327.200 220.800 C 326.980 220.800,326.800 220.440,326.800 220.000 C 326.800 219.560,326.665 219.199,326.500 219.197 C 326.183 219.194,325.200 217.291,325.200 216.681 C 325.200 215.599,323.885 213.669,323.301 213.893 C 322.890 214.051,322.767 213.976,322.951 213.679 C 323.321 213.081,322.037 211.130,321.494 211.465 C 321.265 211.607,321.190 211.540,321.328 211.317 C 321.612 210.858,319.013 208.321,318.640 208.693 C 318.508 208.825,318.400 208.633,318.400 208.267 C 318.400 207.900,318.130 207.600,317.800 207.600 C 317.470 207.600,317.200 207.420,317.200 207.200 C 317.200 206.980,317.012 206.800,316.783 206.800 C 316.554 206.800,315.980 206.440,315.508 206.000 C 315.035 205.560,314.368 205.245,314.024 205.300 C 313.673 205.356,313.451 205.160,313.516 204.851 C 313.591 204.497,313.409 204.388,313.001 204.544 C 312.633 204.685,312.275 204.539,312.142 204.193 C 312.017 203.867,311.743 203.600,311.534 203.600 C 311.324 203.600,311.255 203.765,311.379 203.966 C 311.504 204.168,311.075 204.133,310.428 203.888 C 309.780 203.643,309.354 203.274,309.482 203.068 C 309.615 202.852,309.197 202.768,308.498 202.871 C 307.611 203.001,307.337 202.908,307.484 202.525 C 307.620 202.171,307.332 202.000,306.602 202.000 L 305.519 202.000 305.667 195.407 C 305.784 190.181,305.704 188.772,305.282 188.610 C 304.989 188.498,304.860 188.226,304.996 188.006 C 305.270 187.564,303.808 185.954,302.496 185.251 C 301.446 184.689,295.600 184.646,295.600 185.200 M97.756 304.170 C 97.624 304.514,97.354 304.695,97.155 304.572 C 96.956 304.449,96.527 304.616,96.201 304.942 C 95.750 305.393,95.727 305.584,96.104 305.736 C 96.377 305.847,96.195 305.951,95.700 305.968 C 95.077 305.990,94.800 306.246,94.800 306.800 C 94.800 307.240,94.665 307.600,94.500 307.600 C 94.335 307.600,94.200 315.790,94.200 325.800 C 94.200 335.810,94.313 344.000,94.451 344.000 C 94.590 344.000,94.920 344.523,95.184 345.162 C 95.630 346.238,96.579 346.851,97.967 346.959 C 98.279 346.983,98.609 347.228,98.701 347.502 C 98.917 348.150,100.664 348.148,100.967 347.500 C 101.153 347.100,101.247 347.100,101.433 347.500 C 101.617 347.893,107.411 348.000,128.433 348.000 C 146.011 348.000,155.200 348.137,155.200 348.400 C 155.200 348.620,154.818 348.800,154.351 348.800 C 153.636 348.800,153.582 348.896,154.008 349.409 C 154.431 349.920,154.405 349.977,153.845 349.762 C 153.424 349.600,152.903 349.820,152.441 350.353 C 152.037 350.819,151.494 351.200,151.235 351.200 C 150.385 351.200,148.800 353.141,148.800 354.182 C 148.800 354.742,148.620 355.200,148.400 355.200 C 147.778 355.200,147.930 358.387,148.583 359.040 C 148.904 359.361,149.083 359.843,148.981 360.112 C 148.574 361.185,151.606 363.600,153.361 363.600 C 153.896 363.600,154.415 363.825,154.514 364.100 C 154.659 364.500,154.865 364.500,155.542 364.100 C 156.008 363.825,156.932 363.600,157.595 363.600 C 158.258 363.600,158.800 363.420,158.800 363.200 C 158.800 362.980,159.043 362.800,159.341 362.800 C 159.638 362.800,160.446 362.260,161.137 361.600 C 161.828 360.940,162.587 360.400,162.825 360.400 C 163.368 360.400,164.431 359.364,164.162 359.096 C 164.053 358.986,164.460 358.771,165.069 358.619 C 166.509 358.257,169.275 356.218,168.895 355.798 C 168.733 355.618,168.834 355.607,169.121 355.772 C 169.444 355.959,170.013 355.671,170.622 355.014 C 171.162 354.431,171.783 354.066,172.002 354.201 C 172.221 354.336,172.400 354.156,172.400 353.800 C 172.400 353.444,172.578 353.263,172.795 353.397 C 173.031 353.543,173.084 353.362,172.926 352.951 C 172.721 352.418,172.817 352.321,173.346 352.524 C 174.295 352.888,176.787 351.211,176.801 350.200 C 176.809 349.608,176.900 349.539,177.150 349.934 C 177.421 350.360,177.539 350.335,177.742 349.808 C 177.881 349.446,178.177 349.262,178.400 349.400 C 178.868 349.689,180.087 348.620,179.714 348.248 C 179.578 348.111,179.777 348.000,180.157 348.000 C 180.537 348.000,180.736 347.820,180.600 347.600 C 180.464 347.380,180.543 347.200,180.776 347.200 C 181.009 347.200,181.200 347.393,181.200 347.629 C 181.200 347.864,181.470 347.787,181.800 347.457 C 182.130 347.127,182.400 346.634,182.400 346.362 C 182.400 346.090,182.511 345.978,182.648 346.114 C 183.024 346.491,183.999 345.353,184.006 344.529 C 184.011 343.904,184.073 343.885,184.441 344.400 C 184.787 344.884,184.832 344.830,184.677 344.119 C 184.571 343.634,184.730 342.914,185.030 342.519 C 185.662 341.685,185.790 339.200,185.200 339.200 C 184.980 339.200,184.800 338.750,184.800 338.200 C 184.800 337.578,184.573 337.200,184.200 337.200 C 183.870 337.200,183.643 337.065,183.695 336.900 C 183.876 336.327,180.332 333.200,179.502 333.200 C 179.042 333.200,178.778 333.089,178.914 332.952 C 179.269 332.597,178.174 331.600,177.429 331.600 C 177.083 331.600,176.800 331.409,176.800 331.176 C 176.800 330.943,176.620 330.864,176.400 331.000 C 176.180 331.136,176.000 330.952,176.000 330.590 C 176.000 330.229,175.791 330.003,175.536 330.088 C 175.281 330.173,174.426 329.648,173.636 328.921 C 172.813 328.163,171.949 327.693,171.612 327.821 C 171.289 327.942,171.145 327.921,171.293 327.774 C 171.642 327.424,170.616 326.400,169.917 326.400 C 169.620 326.400,169.117 326.040,168.800 325.600 C 168.483 325.160,167.991 324.800,167.708 324.800 C 167.425 324.800,166.628 324.260,165.937 323.600 C 165.246 322.940,164.504 322.400,164.288 322.400 C 164.071 322.400,163.563 322.019,163.159 321.553 C 162.735 321.063,162.165 320.804,161.812 320.940 C 161.475 321.069,161.200 320.988,161.200 320.759 C 161.200 320.132,160.141 319.200,159.429 319.200 C 159.083 319.200,158.800 319.001,158.800 318.757 C 158.800 318.514,158.545 318.412,158.233 318.532 C 157.921 318.652,157.574 318.510,157.462 318.216 C 157.222 317.593,152.800 317.402,152.800 318.015 C 152.800 318.227,152.517 318.400,152.171 318.400 C 151.426 318.400,150.331 319.397,150.686 319.752 C 150.822 319.889,150.710 320.000,150.438 320.000 C 149.666 320.000,148.800 321.055,148.800 321.995 C 148.800 322.464,148.620 322.736,148.400 322.600 C 147.823 322.243,147.907 323.740,148.500 324.379 C 148.900 324.810,148.900 324.861,148.500 324.635 C 148.157 324.441,148.000 324.674,148.000 325.376 C 148.000 325.939,148.180 326.400,148.400 326.400 C 148.620 326.400,148.800 326.850,148.800 327.400 C 148.800 327.950,148.980 328.400,149.200 328.400 C 149.420 328.400,149.600 328.630,149.600 328.911 C 149.600 329.485,150.996 330.800,151.605 330.800 C 151.822 330.800,152.000 330.950,152.000 331.132 C 152.000 331.315,152.495 331.720,153.100 332.032 C 154.283 332.643,155.200 333.402,155.200 333.771 C 155.200 333.897,144.670 334.000,131.800 334.000 L 108.400 334.000 108.400 321.200 C 108.400 314.152,108.243 308.400,108.050 308.400 C 107.858 308.400,107.582 307.815,107.438 307.100 C 107.226 306.046,107.096 305.913,106.753 306.400 C 106.407 306.891,106.362 306.853,106.505 306.188 C 106.926 304.223,98.483 302.276,97.756 304.170 M107.499 328.325 C 107.432 331.556,107.377 328.800,107.377 322.200 C 107.377 315.600,107.432 312.956,107.499 316.325 C 107.566 319.693,107.566 325.093,107.499 328.325 M142.729 347.500 C 135.320 347.561,123.080 347.561,115.529 347.500 C 107.978 347.439,114.040 347.389,129.000 347.389 C 143.960 347.389,150.138 347.439,142.729 347.500 " stroke="none" fill="#248cbc" fill-rule="evenodd"></path><path id="path1" d="M138.960 57.800 C 138.961 61.100,139.022 62.397,139.098 60.682 C 139.173 58.967,139.172 56.267,139.097 54.682 C 139.021 53.097,138.959 54.500,138.960 57.800 M303.381 76.200 C 303.381 84.560,303.434 88.037,303.499 83.926 C 303.564 79.816,303.564 72.976,303.500 68.726 C 303.435 64.477,303.382 67.840,303.381 76.200 M248.079 114.212 C 248.340 114.474,349.678 114.456,349.939 114.194 C 350.049 114.084,327.131 113.998,299.009 114.003 C 270.887 114.008,247.969 114.102,248.079 114.212 M100.200 138.800 C 100.336 139.020,100.717 139.200,101.047 139.200 C 101.377 139.200,101.536 139.020,101.400 138.800 C 101.264 138.580,100.883 138.400,100.553 138.400 C 100.223 138.400,100.064 138.580,100.200 138.800 M59.202 144.397 C 58.726 145.066,58.581 145.504,58.875 145.390 C 59.335 145.211,60.542 143.200,60.190 143.200 C 60.115 143.200,59.671 143.739,59.202 144.397 M349.628 146.300 C 349.653 147.275,349.695 147.309,350.000 146.600 C 350.469 145.507,350.469 145.200,350.000 145.200 C 349.780 145.200,349.613 145.695,349.628 146.300 M283.130 160.300 C 292.001 160.360,306.401 160.360,315.130 160.300 C 323.858 160.240,316.600 160.191,299.000 160.191 C 281.400 160.191,274.258 160.240,283.130 160.300 M120.100 174.944 C 119.605 175.189,119.200 175.527,119.200 175.695 C 119.200 176.187,119.607 176.052,120.691 175.200 C 121.788 174.337,121.541 174.230,120.100 174.944 M91.666 176.419 C 91.796 177.299,93.200 177.942,93.200 177.122 C 93.200 176.898,92.939 176.814,92.620 176.937 C 92.247 177.080,92.115 176.967,92.248 176.620 C 92.361 176.324,92.247 175.953,91.994 175.796 C 91.686 175.606,91.577 175.813,91.666 176.419 M110.087 184.009 C 109.619 184.759,109.641 184.781,110.391 184.313 C 110.836 184.035,111.200 183.671,111.200 183.504 C 111.200 182.926,110.591 183.203,110.087 184.009 M305.757 196.800 C 305.757 199.770,305.820 200.985,305.897 199.500 C 305.974 198.015,305.974 195.585,305.897 194.100 C 305.820 192.615,305.757 193.830,305.757 196.800 M75.370 208.752 C 75.490 208.945,75.995 209.206,76.494 209.332 C 77.368 209.552,77.373 209.540,76.624 208.980 C 75.764 208.338,75.032 208.204,75.370 208.752 M310.066 219.551 C 309.660 219.808,309.732 219.941,310.366 220.107 C 310.919 220.252,311.200 220.136,311.200 219.763 C 311.200 219.125,310.844 219.058,310.066 219.551 M127.510 224.177 C 126.931 224.477,126.325 224.605,126.164 224.462 C 126.003 224.318,125.994 224.414,126.144 224.675 C 126.446 225.202,127.917 225.043,128.544 224.416 C 129.222 223.738,128.623 223.599,127.510 224.177 M270.650 272.579 C 270.245 273.198,270.158 273.650,270.414 273.809 C 270.637 273.947,270.777 273.911,270.725 273.730 C 270.673 273.548,270.855 272.995,271.129 272.500 C 271.798 271.294,271.455 271.351,270.650 272.579 M75.731 286.300 C 89.773 286.358,112.633 286.358,126.531 286.300 C 140.429 286.242,128.940 286.194,101.000 286.194 C 73.060 286.194,61.689 286.242,75.731 286.300 M305.755 311.800 C 305.756 314.660,305.820 315.778,305.897 314.283 C 305.974 312.789,305.974 310.449,305.896 309.083 C 305.818 307.718,305.755 308.940,305.755 311.800 M94.181 325.400 C 94.181 333.760,94.234 337.237,94.299 333.126 C 94.364 329.016,94.364 322.176,94.300 317.926 C 94.235 313.677,94.182 317.040,94.181 325.400 M107.377 322.200 C 107.377 328.800,107.432 331.556,107.499 328.325 C 107.566 325.093,107.566 319.693,107.499 316.325 C 107.432 312.956,107.377 315.600,107.377 322.200 M115.529 347.500 C 123.080 347.561,135.320 347.561,142.729 347.500 C 150.138 347.439,143.960 347.389,129.000 347.389 C 114.040 347.389,107.978 347.439,115.529 347.500 M172.681 352.933 C 172.568 353.227,172.729 353.467,173.038 353.467 C 173.347 353.467,173.600 353.227,173.600 352.933 C 173.600 352.640,173.439 352.400,173.243 352.400 C 173.046 352.400,172.793 352.640,172.681 352.933 M364.039 357.686 C 363.588 358.408,363.610 358.412,364.585 357.773 C 365.755 357.006,365.796 356.933,365.055 356.933 C 364.755 356.933,364.298 357.272,364.039 357.686 " stroke="none" fill="#248cc4" fill-rule="evenodd"></path><path id="path2" d="" stroke="none" fill="#288cbc" fill-rule="evenodd"></path><path id="path3" d="" stroke="none" fill="#288cbc" fill-rule="evenodd"></path><path id="path4" d="" stroke="none" fill="#288cbc" fill-rule="evenodd"></path></g></svg>