<svg id="Layer_1" data-name="Layer 1" xmlns="http://www.w3.org/2000/svg" viewBox="0 0 1132.01 611.6"><defs><style>.cls-1{fill:none;stroke:#d1d1d1;stroke-miterlimit:10;stroke-width:10px;opacity:0.6;}.cls-2{fill:#e5e1ff;}</style></defs><path class="cls-1" d="M938.15,395.3S828,539,607,512s-273-87-391-57S0,609,0,609" transform="translate(3.92 -0.5)"/><path class="cls-2" d="M1125.5.5h-301s-145,186-154,246,455,285,455,285Z" transform="translate(3.92 -0.5)"/><path class="cls-1" d="M1125,166s-106-83-188-40S665,305,563,290c-67.34-9.9-165.19-75.6-270.25-99A237.71,237.71,0,0,0,75.86,252.51L0,326" transform="translate(3.92 -0.5)"/><path class="cls-1" d="M1125,299s-106-83-188-40S665,438,563,423c-67.34-9.9-165.19-75.6-270.25-99A237.71,237.71,0,0,0,75.86,385.51L0,459" transform="translate(3.92 -0.5)"/><path class="cls-1" d="M1125,60S1019-23,937,20,665,199,563,184c-67.34-9.9-165.19-75.6-270.25-99A237.71,237.71,0,0,0,75.86,146.51L0,220" transform="translate(3.92 -0.5)"/><path class="cls-1" d="M655,8S634,96,428,62,163-14,0,89" transform="translate(3.92 -0.5)"/></svg>