<svg id="svg" version="1.1" xmlns="http://www.w3.org/2000/svg" xmlns:xlink="http://www.w3.org/1999/xlink" width="400" height="400" viewBox="0, 0, 400,400"><g id="svgg"><path id="path0" d="M50.000 10.209 C 50.000 10.483,49.258 10.592,48.000 10.504 C 46.505 10.400,46.000 10.503,46.000 10.913 C 46.000 11.295,45.635 11.408,44.800 11.285 C 43.905 11.154,43.600 11.268,43.600 11.732 C 43.600 12.130,43.324 12.301,42.832 12.206 C 42.409 12.125,41.970 12.301,41.856 12.598 C 41.738 12.907,41.315 13.051,40.870 12.934 C 40.441 12.822,39.969 12.926,39.822 13.165 C 39.674 13.404,39.281 13.600,38.948 13.600 C 38.221 13.600,37.136 14.603,37.486 14.952 C 37.622 15.089,37.342 15.200,36.863 15.200 C 36.384 15.200,35.409 15.770,34.696 16.466 C 33.983 17.162,33.670 17.584,34.000 17.404 C 34.330 17.224,34.240 17.438,33.800 17.880 C 33.360 18.322,32.893 18.519,32.762 18.319 C 32.452 17.844,29.530 20.764,29.830 21.249 C 29.956 21.453,29.911 21.594,29.730 21.563 C 28.870 21.413,28.480 21.660,28.572 22.292 C 28.628 22.673,28.260 23.309,27.755 23.707 C 27.231 24.119,26.933 24.681,27.061 25.015 C 27.185 25.337,27.086 25.600,26.843 25.600 C 26.599 25.600,26.400 25.787,26.400 26.016 C 26.400 26.483,24.818 28.840,24.200 29.294 C 23.952 29.476,23.990 29.590,24.300 29.594 C 24.575 29.597,24.800 29.810,24.800 30.067 C 24.800 30.323,24.683 30.416,24.540 30.273 C 24.396 30.130,24.052 30.323,23.774 30.704 C 23.474 31.114,23.422 31.490,23.646 31.628 C 23.854 31.757,23.659 32.325,23.212 32.894 C 22.386 33.944,22.104 35.030,22.763 34.623 C 22.962 34.500,22.917 34.848,22.663 35.396 C 22.408 35.945,22.065 36.395,21.900 36.397 C 21.345 36.403,21.535 363.512,22.090 363.697 C 22.377 363.792,22.538 364.417,22.479 365.199 C 22.423 365.936,22.557 366.650,22.778 366.787 C 22.999 366.923,23.240 367.427,23.313 367.907 C 23.386 368.387,23.571 368.904,23.723 369.056 C 23.875 369.209,24.000 369.674,24.000 370.090 C 24.000 370.507,24.180 370.736,24.400 370.600 C 24.627 370.460,24.800 370.796,24.800 371.376 C 24.800 371.939,24.980 372.400,25.200 372.400 C 25.420 372.400,25.603 372.805,25.606 373.300 C 25.611 374.028,25.686 374.085,26.000 373.600 C 26.331 373.087,26.389 373.102,26.394 373.700 C 26.397 374.085,26.574 374.400,26.787 374.400 C 27.001 374.400,27.084 374.637,26.973 374.926 C 26.862 375.215,27.273 375.992,27.886 376.654 C 28.499 377.315,29.047 378.073,29.103 378.338 C 29.373 379.598,33.727 383.016,34.473 382.555 C 34.728 382.397,34.814 382.455,34.670 382.687 C 34.373 383.167,35.533 384.541,36.396 384.732 C 36.724 384.805,37.109 385.053,37.251 385.283 C 37.394 385.514,37.709 385.580,37.951 385.430 C 38.237 385.253,38.302 385.410,38.137 385.879 C 37.939 386.440,37.993 386.498,38.381 386.140 C 38.762 385.789,39.063 385.863,39.655 386.455 C 40.081 386.881,40.584 387.134,40.773 387.017 C 40.962 386.900,41.219 387.074,41.346 387.402 C 41.472 387.731,42.020 388.000,42.564 388.000 C 43.108 388.000,43.654 388.164,43.778 388.364 C 43.902 388.565,44.317 388.677,44.702 388.614 C 45.086 388.551,45.726 388.785,46.124 389.134 C 46.754 389.685,46.897 389.692,47.218 389.184 C 47.513 388.718,47.589 388.711,47.594 389.147 C 47.598 389.495,47.890 389.618,48.400 389.484 C 48.839 389.369,49.302 389.441,49.427 389.644 C 49.553 389.847,49.810 389.917,50.000 389.800 C 50.190 389.683,50.457 389.769,50.595 389.992 C 50.994 390.638,196.276 390.541,196.537 389.896 C 196.691 389.514,196.744 389.518,196.768 389.914 C 196.792 390.300,196.996 390.323,197.585 390.008 C 198.017 389.777,198.955 389.520,199.671 389.436 C 200.386 389.353,201.027 389.118,201.096 388.913 C 201.164 388.709,201.753 388.620,202.405 388.715 C 203.222 388.835,203.664 388.698,203.827 388.274 C 203.959 387.929,204.401 387.723,204.832 387.806 C 205.254 387.887,205.600 387.784,205.600 387.577 C 205.600 387.370,205.834 387.200,206.120 387.200 C 206.856 387.200,208.793 386.259,208.797 385.900 C 208.799 385.735,209.083 385.600,209.429 385.600 C 210.174 385.600,211.269 384.603,210.914 384.248 C 210.778 384.111,211.012 384.000,211.433 384.000 C 212.318 383.999,214.400 382.336,214.400 381.630 C 214.400 381.367,214.580 381.264,214.800 381.400 C 215.020 381.536,215.200 381.337,215.200 380.957 C 215.200 380.577,215.308 380.375,215.441 380.507 C 215.752 380.819,217.549 379.095,217.324 378.700 C 217.230 378.535,217.444 378.400,217.800 378.400 C 218.156 378.400,218.336 378.220,218.200 378.000 C 218.064 377.780,218.253 377.600,218.619 377.600 C 219.047 377.600,219.203 377.385,219.055 377.000 C 218.915 376.635,219.055 376.400,219.413 376.400 C 219.736 376.400,220.000 376.170,220.000 375.888 C 220.000 375.607,220.360 375.117,220.800 374.800 C 221.240 374.483,221.600 373.903,221.600 373.512 C 221.600 373.120,221.735 372.799,221.900 372.797 C 222.213 372.794,223.200 370.895,223.200 370.297 C 223.200 370.108,222.975 370.088,222.700 370.253 C 222.356 370.460,222.370 370.344,222.745 369.881 C 223.045 369.511,223.464 369.316,223.676 369.447 C 223.906 369.589,223.983 369.188,223.868 368.455 C 223.741 367.652,223.835 367.255,224.137 367.312 C 224.420 367.366,224.577 366.895,224.541 366.102 C 224.509 365.388,224.624 364.891,224.798 364.998 C 224.971 365.106,225.133 363.845,225.158 362.197 C 225.184 360.429,225.038 359.200,224.801 359.200 C 224.581 359.200,224.421 359.065,224.447 358.900 C 224.573 358.104,224.351 357.600,223.875 357.600 C 223.587 357.600,223.002 357.275,222.575 356.878 C 221.661 356.027,217.765 355.781,217.011 356.526 C 216.748 356.787,216.063 357.350,215.490 357.777 C 214.917 358.204,214.538 358.699,214.648 358.877 C 214.757 359.055,214.567 359.200,214.224 359.200 C 213.861 359.200,213.600 359.544,213.600 360.024 C 213.600 360.509,213.777 360.738,214.030 360.582 C 214.266 360.436,214.222 360.695,213.933 361.158 C 213.644 361.621,213.267 362.000,213.096 362.000 C 212.925 362.000,212.865 362.447,212.965 362.993 C 213.064 363.540,212.982 364.088,212.783 364.210 C 212.188 364.579,211.109 367.130,211.370 367.552 C 211.504 367.768,211.402 368.075,211.145 368.234 C 210.852 368.415,210.784 368.350,210.962 368.062 C 211.119 367.808,211.036 367.600,210.777 367.600 C 210.504 367.600,210.394 367.935,210.516 368.401 C 210.631 368.841,210.562 369.100,210.363 368.977 C 210.163 368.854,210.000 369.033,210.000 369.376 C 210.000 369.719,209.850 370.000,209.668 370.000 C 209.485 370.000,209.094 370.450,208.800 370.999 C 208.506 371.549,208.182 371.915,208.080 371.813 C 207.978 371.711,207.396 372.162,206.787 372.814 C 206.178 373.466,205.480 374.000,205.236 374.000 C 204.992 374.000,204.237 374.495,203.557 375.100 C 202.876 375.705,202.113 376.224,201.860 376.254 C 201.607 376.283,201.164 376.328,200.876 376.354 C 200.588 376.379,200.464 376.580,200.600 376.800 C 200.739 377.026,200.415 377.200,199.857 377.200 C 199.312 377.200,198.776 377.425,198.665 377.700 C 198.542 378.005,198.451 378.026,198.432 377.754 C 198.410 377.445,197.877 377.409,196.700 377.636 C 195.765 377.817,194.854 377.973,194.676 377.983 C 194.498 377.992,194.436 378.135,194.538 378.300 C 194.640 378.465,162.718 378.600,123.600 378.600 C 84.482 378.600,52.560 378.465,52.662 378.300 C 52.853 377.990,52.775 377.960,51.355 377.806 C 50.891 377.756,50.037 377.596,49.457 377.450 C 48.878 377.305,48.268 377.176,48.102 377.164 C 47.936 377.152,47.218 376.782,46.507 376.343 C 45.796 375.903,45.030 375.658,44.804 375.797 C 44.579 375.937,44.286 375.769,44.154 375.425 C 44.022 375.081,43.574 374.800,43.157 374.800 C 42.741 374.800,42.400 374.620,42.400 374.400 C 42.400 374.180,42.130 374.000,41.800 374.000 C 41.470 374.000,41.245 373.842,41.300 373.649 C 41.355 373.455,40.860 372.765,40.200 372.114 C 38.422 370.360,37.200 368.846,37.200 368.397 C 37.200 368.179,37.020 368.000,36.800 368.000 C 36.580 368.000,36.400 367.730,36.400 367.400 C 36.400 367.070,36.220 366.800,36.000 366.800 C 35.780 366.800,35.600 366.440,35.600 366.000 C 35.600 365.540,35.333 365.200,34.973 365.200 C 34.537 365.200,34.420 364.966,34.589 364.434 C 34.723 364.012,34.645 363.552,34.416 363.410 C 34.187 363.269,34.000 362.659,34.000 362.056 C 34.000 361.453,33.805 360.765,33.567 360.527 C 33.328 360.288,33.133 359.261,33.133 358.244 C 33.133 356.952,32.993 356.473,32.667 356.656 C 32.365 356.825,32.377 356.727,32.700 356.379 C 33.418 355.606,33.437 44.397,32.720 43.680 C 32.405 43.365,32.389 43.200,32.673 43.200 C 32.911 43.200,33.116 42.467,33.128 41.571 C 33.141 40.675,33.357 39.692,33.610 39.388 C 33.862 39.084,33.956 38.652,33.818 38.429 C 33.680 38.205,33.864 37.569,34.227 37.014 C 34.591 36.460,34.784 35.735,34.657 35.403 C 34.511 35.023,34.658 34.800,35.055 34.800 C 35.446 34.800,35.600 34.576,35.459 34.211 C 35.335 33.886,35.464 33.481,35.747 33.311 C 36.249 33.007,36.971 31.639,36.883 31.157 C 36.858 31.024,37.283 30.677,37.826 30.386 C 38.370 30.095,38.975 29.304,39.171 28.629 C 39.367 27.953,39.544 27.654,39.564 27.965 C 39.585 28.289,40.275 27.821,41.184 26.865 C 42.055 25.949,43.026 25.200,43.341 25.200 C 43.656 25.200,44.022 24.919,44.154 24.575 C 44.286 24.231,44.561 24.052,44.765 24.178 C 44.969 24.304,45.379 24.181,45.677 23.904 C 46.302 23.323,47.089 23.072,48.134 23.121 C 48.549 23.141,48.789 22.947,48.685 22.676 C 48.449 22.063,49.694 21.989,62.000 21.884 C 69.877 21.816,71.779 21.902,71.693 22.321 C 71.566 22.937,72.594 24.073,72.952 23.714 C 73.089 23.578,73.200 24.217,73.200 25.133 C 73.200 26.050,73.359 26.800,73.553 26.800 C 73.934 26.800,74.376 27.885,74.775 29.800 C 74.929 30.535,75.241 30.953,75.581 30.877 C 76.038 30.776,76.045 30.864,75.619 31.377 C 75.191 31.893,75.203 32.000,75.689 32.000 C 76.082 32.000,76.251 32.364,76.198 33.100 C 76.153 33.737,76.474 34.606,76.960 35.165 C 77.422 35.695,77.575 35.999,77.300 35.841 C 77.025 35.682,76.800 35.743,76.800 35.976 C 76.800 36.209,76.944 36.400,77.120 36.400 C 77.295 36.400,77.674 37.050,77.962 37.844 C 78.566 39.515,79.088 40.209,81.720 42.840 C 82.885 44.005,83.868 44.672,84.220 44.537 C 84.578 44.399,84.800 44.560,84.800 44.957 C 84.800 45.333,85.132 45.600,85.600 45.600 C 86.040 45.600,86.400 45.799,86.400 46.043 C 86.400 46.286,86.657 46.387,86.971 46.267 C 87.285 46.146,87.757 46.307,88.020 46.624 C 88.328 46.995,89.264 47.200,90.649 47.200 C 91.832 47.200,92.800 47.380,92.800 47.600 C 92.800 48.184,154.891 48.149,155.476 47.564 C 155.716 47.324,156.817 47.103,157.923 47.073 C 159.029 47.042,159.848 46.878,159.743 46.708 C 159.578 46.441,160.824 46.214,161.700 46.353 C 161.865 46.379,162.000 46.220,162.000 46.000 C 162.000 45.780,162.286 45.600,162.636 45.600 C 162.986 45.600,163.629 45.195,164.066 44.700 C 164.503 44.205,164.747 44.025,164.607 44.300 C 164.467 44.575,164.543 44.800,164.776 44.800 C 165.009 44.800,165.200 44.530,165.200 44.200 C 165.200 43.870,165.380 43.600,165.600 43.600 C 165.820 43.600,166.013 43.195,166.028 42.700 C 166.055 41.841,166.072 41.837,166.400 42.600 C 166.699 43.295,166.747 43.307,166.772 42.691 C 166.787 42.302,167.236 41.784,167.768 41.542 C 168.400 41.254,168.655 40.886,168.500 40.485 C 168.345 40.081,168.425 39.968,168.732 40.158 C 169.016 40.333,169.200 40.192,169.200 39.800 C 169.200 39.444,169.360 39.252,169.556 39.373 C 169.940 39.610,170.967 37.688,171.413 35.900 C 171.563 35.295,171.808 34.800,171.956 34.800 C 172.104 34.800,172.473 33.960,172.776 32.934 C 173.079 31.907,173.581 30.560,173.890 29.939 C 174.200 29.318,174.349 28.640,174.220 28.433 C 174.092 28.225,174.173 27.940,174.400 27.800 C 174.627 27.660,174.709 27.377,174.583 27.172 C 174.456 26.968,174.543 26.800,174.776 26.800 C 175.009 26.800,175.200 26.440,175.200 26.000 C 175.200 25.560,175.380 25.200,175.600 25.200 C 175.820 25.200,176.000 24.694,176.000 24.076 C 176.000 21.661,176.167 21.617,185.526 21.579 C 190.870 21.557,194.237 21.699,194.550 21.959 C 194.825 22.187,195.702 22.310,196.500 22.233 C 197.470 22.139,198.020 22.275,198.162 22.646 C 198.279 22.951,198.713 23.200,199.126 23.200 C 199.539 23.200,200.400 23.459,201.039 23.775 C 201.677 24.092,202.695 24.538,203.300 24.766 C 203.905 24.994,204.400 25.365,204.400 25.590 C 204.400 25.816,204.760 26.000,205.200 26.000 C 205.640 26.000,206.000 26.180,206.000 26.400 C 206.000 26.620,206.300 26.800,206.667 26.800 C 207.033 26.800,207.220 26.914,207.081 27.053 C 206.942 27.192,207.320 27.777,207.920 28.353 C 208.521 28.929,209.224 29.879,209.481 30.463 C 211.134 34.216,219.600 35.332,219.600 31.797 C 219.600 31.427,219.836 31.316,220.269 31.482 C 220.774 31.675,220.876 31.576,220.686 31.080 C 220.532 30.678,220.692 30.276,221.098 30.049 C 221.684 29.721,221.694 29.593,221.181 28.962 C 220.826 28.525,220.794 28.363,221.100 28.547 C 221.455 28.760,221.600 28.503,221.600 27.657 C 221.600 27.002,221.465 26.407,221.300 26.333 C 221.135 26.260,220.571 25.353,220.046 24.318 C 219.522 23.283,218.955 22.473,218.786 22.518 C 218.618 22.563,218.466 22.461,218.448 22.292 C 218.394 21.765,217.415 20.875,217.100 21.066 C 216.935 21.165,216.800 20.967,216.800 20.624 C 216.800 20.281,216.500 20.000,216.133 20.000 C 215.767 20.000,215.578 19.889,215.714 19.752 C 216.007 19.460,215.475 18.908,213.695 17.656 C 212.978 17.152,212.502 16.558,212.639 16.337 C 212.781 16.107,212.553 15.992,212.105 16.067 C 211.675 16.140,211.260 16.020,211.184 15.800 C 210.958 15.151,210.221 14.471,209.932 14.646 C 209.785 14.735,209.384 14.527,209.041 14.184 C 208.698 13.841,208.156 13.615,207.835 13.680 C 207.515 13.746,207.286 13.650,207.326 13.468 C 207.503 12.671,202.074 10.743,199.400 10.653 C 198.520 10.624,197.695 10.459,197.568 10.286 C 197.159 9.733,195.097 9.509,195.434 10.054 C 195.648 10.401,195.517 10.446,194.966 10.214 C 193.908 9.770,86.063 9.487,67.600 9.880 C 59.350 10.056,52.499 10.064,52.375 9.898 C 52.037 9.444,50.000 9.710,50.000 10.209 M163.691 22.563 C 163.823 23.254,163.723 23.468,163.338 23.321 C 162.961 23.176,162.800 23.476,162.800 24.324 C 162.800 24.989,162.622 25.593,162.403 25.667 C 162.185 25.740,161.967 26.282,161.919 26.871 C 161.870 27.460,161.688 27.855,161.515 27.748 C 161.342 27.640,161.200 27.913,161.200 28.353 C 161.200 28.793,161.008 29.272,160.773 29.417 C 160.538 29.562,160.440 29.927,160.555 30.228 C 160.671 30.528,160.586 30.885,160.366 31.021 C 160.147 31.156,160.077 31.611,160.210 32.031 C 160.389 32.596,160.298 32.736,159.858 32.567 C 159.454 32.412,159.221 32.637,159.132 33.269 C 159.059 33.781,158.781 34.200,158.513 34.200 C 158.245 34.200,157.653 34.519,157.198 34.909 C 156.419 35.576,154.424 35.618,124.184 35.612 L 91.999 35.606 90.750 34.503 C 90.063 33.896,89.330 33.449,89.121 33.510 C 88.912 33.570,88.845 33.450,88.973 33.243 C 89.317 32.686,88.467 30.712,88.005 30.997 C 87.787 31.131,87.703 30.998,87.817 30.700 C 88.074 30.031,86.933 27.200,86.407 27.200 C 86.197 27.200,86.129 26.930,86.255 26.600 C 86.382 26.270,86.292 26.000,86.055 26.000 C 85.819 26.000,85.729 25.730,85.855 25.400 C 85.982 25.070,85.876 24.800,85.619 24.800 C 85.363 24.800,85.261 24.625,85.393 24.411 C 85.525 24.198,85.355 23.598,85.015 23.079 C 84.675 22.561,84.518 22.016,84.665 21.868 C 84.813 21.721,102.612 21.600,124.220 21.600 L 163.507 21.600 163.691 22.563 M217.298 43.470 C 217.021 43.579,216.901 43.840,217.031 44.050 C 217.170 44.276,216.869 44.332,216.295 44.188 C 215.674 44.032,214.792 44.243,213.850 44.772 C 213.039 45.227,212.188 45.600,211.959 45.600 C 211.403 45.600,210.624 46.418,210.256 47.389 C 210.030 47.986,209.878 48.051,209.634 47.655 C 209.379 47.242,209.261 47.264,209.071 47.760 C 208.931 48.124,208.573 48.288,208.215 48.150 C 207.877 48.021,207.600 48.102,207.600 48.330 C 207.600 48.559,207.237 48.861,206.794 49.002 C 206.351 49.143,206.090 49.423,206.215 49.624 C 206.340 49.826,206.162 49.884,205.821 49.753 C 205.479 49.622,205.200 49.693,205.200 49.911 C 205.200 50.128,204.822 50.406,204.360 50.526 C 203.898 50.647,203.637 50.936,203.781 51.168 C 203.939 51.425,203.798 51.497,203.421 51.353 C 203.079 51.222,202.800 51.314,202.800 51.557 C 202.800 51.801,202.506 52.000,202.146 52.000 C 201.786 52.000,201.105 52.418,200.631 52.928 C 200.158 53.439,199.552 53.784,199.285 53.695 C 199.018 53.606,198.800 53.728,198.800 53.967 C 198.800 54.205,198.530 54.400,198.200 54.400 C 197.870 54.400,197.600 54.580,197.600 54.800 C 197.600 55.020,197.330 55.200,197.000 55.200 C 196.670 55.200,196.400 55.380,196.400 55.600 C 196.400 55.820,196.040 56.000,195.600 56.000 C 195.160 56.000,194.800 56.180,194.800 56.400 C 194.800 56.620,194.530 56.800,194.200 56.800 C 193.870 56.800,193.600 56.959,193.600 57.154 C 193.600 57.349,192.976 57.805,192.213 58.167 C 191.450 58.529,190.662 59.118,190.462 59.475 C 190.233 59.884,189.843 60.025,189.405 59.857 C 188.886 59.658,188.772 59.749,188.951 60.216 C 189.083 60.560,189.026 60.740,188.825 60.616 C 188.380 60.340,186.400 61.196,186.400 61.664 C 186.400 61.849,186.124 62.000,185.787 62.000 C 185.451 62.000,185.072 62.269,184.946 62.598 C 184.819 62.926,184.524 63.077,184.290 62.932 C 184.022 62.767,183.960 62.918,184.121 63.339 C 184.335 63.897,184.201 63.965,183.324 63.745 C 182.441 63.524,182.311 63.592,182.530 64.161 C 182.673 64.535,182.628 64.741,182.430 64.618 C 182.231 64.495,181.977 64.621,181.866 64.898 C 181.707 65.290,181.656 65.292,181.632 64.904 C 181.610 64.561,181.359 64.614,180.820 65.075 C 180.392 65.442,180.113 65.860,180.202 66.003 C 180.290 66.146,179.977 66.235,179.506 66.200 C 179.034 66.166,178.308 66.421,177.891 66.769 C 177.474 67.116,176.765 67.711,176.315 68.092 C 175.865 68.472,175.373 68.707,175.221 68.613 C 175.070 68.519,174.693 68.793,174.385 69.221 C 174.076 69.650,173.503 70.000,173.112 70.000 C 172.720 70.000,172.400 70.180,172.400 70.400 C 172.400 70.620,172.106 70.800,171.747 70.800 C 171.388 70.800,170.803 71.116,170.447 71.503 C 170.091 71.889,169.305 72.460,168.700 72.770 C 168.095 73.081,167.600 73.485,167.600 73.668 C 167.600 73.850,167.324 74.000,166.987 74.000 C 166.651 74.000,166.276 74.259,166.154 74.575 C 166.027 74.907,165.666 75.047,165.297 74.905 C 164.838 74.729,164.728 74.835,164.901 75.285 C 165.072 75.732,164.946 75.859,164.455 75.730 C 164.078 75.632,163.281 76.003,162.685 76.556 C 162.088 77.109,161.600 77.356,161.600 77.104 C 161.600 76.853,161.336 76.996,161.013 77.424 C 160.690 77.851,160.420 78.037,160.413 77.839 C 160.406 77.640,160.085 77.820,159.700 78.239 C 159.315 78.657,158.730 79.059,158.400 79.130 C 158.070 79.202,157.740 79.427,157.667 79.630 C 157.593 79.834,157.265 80.000,156.938 80.000 C 156.352 80.000,155.253 80.877,155.086 81.479 C 155.039 81.648,154.685 81.734,154.300 81.668 C 153.915 81.603,153.600 81.741,153.600 81.975 C 153.600 82.209,153.364 82.400,153.075 82.400 C 152.787 82.400,152.115 82.805,151.583 83.300 C 151.051 83.795,150.471 84.153,150.295 84.096 C 150.119 84.039,149.587 84.354,149.112 84.796 C 148.638 85.238,148.025 85.600,147.752 85.600 C 147.478 85.600,147.132 85.984,146.983 86.453 C 146.771 87.123,146.637 87.187,146.362 86.753 C 146.110 86.354,146.011 86.339,146.006 86.700 C 146.003 86.975,145.730 87.200,145.400 87.200 C 145.070 87.200,144.800 87.380,144.800 87.600 C 144.800 87.820,144.446 88.000,144.013 88.000 C 143.474 88.000,143.299 88.191,143.457 88.605 C 143.612 89.009,143.504 89.138,143.130 88.995 C 142.823 88.877,142.209 89.100,141.766 89.490 C 140.939 90.218,140.411 90.546,137.232 92.307 C 136.224 92.865,135.310 93.439,135.200 93.583 C 135.090 93.727,134.406 94.086,133.679 94.380 C 132.921 94.687,132.440 95.126,132.549 95.412 C 132.671 95.729,132.481 95.842,132.025 95.722 C 131.541 95.596,131.238 95.812,131.086 96.392 C 130.963 96.864,130.623 97.199,130.331 97.136 C 129.520 96.964,127.200 98.128,127.200 98.708 C 127.200 98.989,126.660 99.328,126.000 99.460 C 125.340 99.592,124.800 99.858,124.800 100.050 C 124.800 100.243,124.509 100.400,124.153 100.400 C 123.797 100.400,122.969 100.985,122.313 101.700 C 121.657 102.415,121.238 102.775,121.383 102.500 C 121.529 102.225,121.457 102.000,121.224 102.000 C 120.991 102.000,120.800 102.180,120.800 102.400 C 120.800 102.620,120.564 102.800,120.275 102.800 C 119.987 102.800,119.364 103.160,118.892 103.600 C 118.420 104.040,117.822 104.400,117.564 104.400 C 117.305 104.400,116.799 104.739,116.440 105.154 C 116.080 105.569,114.948 106.302,113.924 106.784 C 112.901 107.265,111.960 107.927,111.834 108.255 C 111.709 108.582,111.415 108.733,111.182 108.589 C 110.948 108.444,110.407 108.731,109.979 109.224 C 109.550 109.718,109.194 109.960,109.187 109.761 C 109.180 109.563,108.927 109.727,108.624 110.127 C 108.321 110.526,107.966 110.841,107.836 110.827 C 107.128 110.747,106.807 110.848,106.329 111.300 C 106.038 111.575,105.305 112.055,104.700 112.368 C 104.095 112.680,103.600 113.158,103.600 113.430 C 103.600 113.728,103.282 113.842,102.800 113.716 C 102.353 113.599,102.000 113.704,102.000 113.953 C 102.000 114.199,101.764 114.400,101.475 114.400 C 101.187 114.400,100.564 114.760,100.092 115.200 C 99.620 115.640,99.046 116.000,98.817 116.000 C 98.588 116.000,98.400 116.289,98.400 116.643 C 98.400 117.059,98.182 117.202,97.779 117.047 C 97.423 116.911,97.263 116.978,97.403 117.205 C 97.641 117.589,97.114 117.761,96.100 117.630 C 95.825 117.594,95.600 117.753,95.600 117.982 C 95.600 118.212,95.358 118.400,95.062 118.400 C 94.766 118.400,94.198 118.760,93.800 119.200 C 93.402 119.640,92.834 120.000,92.538 120.000 C 92.033 120.000,91.815 120.528,91.975 121.368 C 92.014 121.570,91.795 121.528,91.490 121.275 C 91.058 120.916,90.724 121.011,89.975 121.707 C 89.447 122.198,88.858 122.549,88.667 122.486 C 88.475 122.424,88.000 122.739,87.612 123.186 C 87.224 123.634,86.624 124.000,86.280 124.000 C 85.936 124.000,85.532 124.384,85.383 124.853 C 85.181 125.491,85.031 125.573,84.787 125.179 C 84.519 124.746,84.349 124.744,83.835 125.171 C 83.491 125.457,83.326 125.881,83.470 126.113 C 83.633 126.377,83.480 126.440,83.066 126.281 C 82.700 126.140,82.400 126.210,82.400 126.436 C 82.400 126.662,82.220 126.736,82.000 126.600 C 81.780 126.464,81.600 126.509,81.600 126.699 C 81.600 126.890,80.918 127.347,80.084 127.715 C 79.251 128.083,78.178 128.747,77.701 129.192 C 77.224 129.636,76.545 130.000,76.193 130.000 C 75.841 130.000,75.664 130.180,75.800 130.400 C 75.936 130.620,75.767 130.800,75.424 130.800 C 75.081 130.800,74.800 130.980,74.800 131.200 C 74.800 131.420,74.524 131.600,74.187 131.600 C 73.851 131.600,73.476 131.859,73.354 132.175 C 73.233 132.491,72.917 132.666,72.653 132.565 C 72.388 132.463,71.732 132.790,71.194 133.290 C 70.656 133.791,70.055 134.148,69.859 134.084 C 69.662 134.020,69.600 134.224,69.721 134.538 C 69.877 134.945,69.719 135.052,69.170 134.908 C 68.747 134.797,68.400 134.908,68.400 135.153 C 68.400 135.399,68.117 135.600,67.771 135.600 C 67.026 135.600,65.931 136.597,66.286 136.952 C 66.422 137.089,66.183 137.200,65.756 137.200 C 64.970 137.200,63.600 138.474,63.600 139.205 C 63.600 139.422,63.409 139.600,63.176 139.600 C 62.943 139.600,62.855 139.765,62.980 139.968 C 63.105 140.170,62.935 140.608,62.602 140.941 C 62.209 141.333,62.042 142.109,62.124 143.150 C 62.200 144.115,62.096 144.660,61.863 144.515 C 61.620 144.365,61.589 144.783,61.782 145.638 C 61.951 146.387,62.070 147.360,62.046 147.800 C 61.976 149.127,62.920 151.929,63.378 151.753 C 63.613 151.663,63.984 151.996,64.203 152.495 C 64.421 152.993,64.810 153.400,65.067 153.400 C 65.323 153.400,65.683 153.564,65.867 153.764 C 66.060 153.976,65.990 154.008,65.700 153.841 C 65.051 153.467,65.056 153.913,65.708 154.565 C 66.662 155.519,68.029 156.045,68.865 155.779 C 69.425 155.602,69.610 155.660,69.426 155.957 C 69.276 156.201,69.343 156.423,69.576 156.450 C 69.809 156.478,70.180 156.545,70.400 156.600 C 70.620 156.655,78.000 156.722,86.800 156.750 L 102.800 156.800 102.800 209.800 L 102.800 262.800 97.500 262.841 C 94.585 262.863,91.615 262.849,90.900 262.810 C 89.986 262.760,89.600 262.915,89.600 263.332 C 89.600 263.732,89.334 263.856,88.783 263.711 C 88.334 263.594,88.019 263.656,88.083 263.849 C 88.147 264.042,88.040 264.230,87.845 264.266 C 87.649 264.302,87.337 264.572,87.151 264.866 C 86.873 265.304,86.811 265.299,86.806 264.839 C 86.802 264.468,86.539 264.578,86.030 265.165 C 85.607 265.653,85.157 266.041,85.030 266.026 C 84.213 265.933,84.000 266.087,84.000 266.773 C 84.000 267.198,83.640 267.660,83.200 267.800 C 82.760 267.940,82.400 268.312,82.400 268.627 C 82.400 268.942,82.190 269.200,81.933 269.200 C 81.677 269.200,81.578 269.311,81.714 269.448 C 81.850 269.584,81.700 269.957,81.381 270.276 C 81.061 270.596,80.800 271.204,80.800 271.629 C 80.800 272.053,80.622 272.400,80.405 272.400 C 79.796 272.400,79.917 299.102,80.527 299.495 C 80.787 299.663,81.010 299.980,81.022 300.200 C 81.076 301.166,81.718 302.800,82.043 302.800 C 82.240 302.800,82.400 303.070,82.400 303.400 C 82.400 303.730,82.580 304.000,82.800 304.000 C 83.020 304.000,83.210 304.225,83.223 304.500 C 83.246 304.995,86.962 307.600,87.645 307.600 C 87.840 307.600,88.000 307.741,88.000 307.914 C 88.000 308.487,89.089 308.503,136.120 308.652 C 185.366 308.808,184.388 308.838,185.436 307.141 C 185.615 306.852,185.549 306.784,185.262 306.962 C 185.008 307.119,184.800 307.100,184.800 306.920 C 184.800 306.740,185.161 306.367,185.602 306.092 C 187.561 304.868,186.056 298.000,183.829 298.000 C 183.483 298.000,183.200 297.823,183.200 297.607 C 183.200 297.351,167.489 297.210,138.379 297.203 L 93.557 297.194 92.579 296.215 L 91.600 295.236 91.600 285.851 C 91.600 276.174,91.695 275.200,92.643 275.200 C 92.949 275.200,93.200 275.065,93.200 274.900 C 93.200 274.735,113.398 274.639,138.084 274.687 C 173.015 274.755,183.035 274.667,183.270 274.287 C 183.435 274.019,183.725 273.800,183.914 273.800 C 184.103 273.800,184.572 273.485,184.957 273.100 C 185.342 272.715,185.520 272.400,185.352 272.400 C 185.184 272.400,185.346 272.175,185.710 271.900 C 186.849 271.042,186.448 266.145,185.131 264.827 C 183.376 263.072,182.878 262.800,181.417 262.800 L 180.000 262.800 180.000 209.817 L 180.000 156.833 187.500 156.717 L 195.000 156.600 194.915 184.129 C 194.850 205.094,194.946 211.863,195.315 212.515 C 195.781 213.336,197.184 214.687,197.600 214.714 C 197.710 214.721,198.587 215.041,199.549 215.426 C 201.101 216.047,201.336 216.057,201.639 215.517 C 201.855 215.131,202.342 214.976,202.966 215.096 C 204.036 215.300,205.397 214.200,206.303 212.400 C 206.696 211.620,206.784 205.385,206.703 184.000 L 206.600 156.600 219.900 156.710 L 233.200 156.821 233.200 183.434 C 233.200 198.071,233.345 209.958,233.521 209.849 C 233.698 209.739,233.861 210.292,233.883 211.078 C 233.906 211.863,234.089 212.617,234.291 212.753 C 234.493 212.889,234.775 213.315,234.917 213.700 C 235.059 214.085,235.451 214.400,235.787 214.400 C 236.124 214.400,236.400 214.580,236.400 214.800 C 236.400 215.020,236.925 215.200,237.567 215.200 C 238.208 215.200,238.809 215.425,238.901 215.700 C 239.068 216.197,239.522 216.062,242.095 214.753 C 242.477 214.559,243.062 214.400,243.395 214.400 C 243.728 214.400,244.000 214.119,244.000 213.776 C 244.000 213.433,244.142 213.240,244.315 213.348 C 244.488 213.455,244.670 213.068,244.717 212.489 C 244.765 211.909,244.984 211.256,245.202 211.038 C 245.458 210.782,245.600 201.028,245.600 183.720 L 245.600 156.800 252.805 156.800 L 260.011 156.800 259.995 183.500 C 259.980 208.897,260.095 213.036,260.806 212.596 C 260.976 212.491,261.227 212.854,261.365 213.403 C 261.503 213.951,261.882 214.400,262.208 214.400 C 262.533 214.400,262.800 214.601,262.800 214.847 C 262.800 215.092,263.148 215.202,263.574 215.091 C 264.000 214.980,264.735 215.159,265.208 215.491 C 265.840 215.934,266.185 215.975,266.514 215.646 C 266.759 215.401,267.297 215.200,267.709 215.200 C 268.120 215.200,268.719 214.938,269.040 214.617 C 269.361 214.296,269.865 214.127,270.160 214.240 C 270.769 214.474,271.339 213.349,270.939 212.702 C 270.784 212.451,270.866 212.394,271.138 212.562 C 271.430 212.742,271.600 212.544,271.600 212.024 C 271.600 211.571,271.780 211.200,272.000 211.200 C 272.263 211.200,272.400 201.867,272.400 184.000 L 272.400 156.800 285.600 156.800 L 298.800 156.800 298.846 183.100 C 298.871 197.565,298.857 209.735,298.814 210.143 C 298.679 211.419,299.190 212.853,299.674 212.555 C 299.947 212.386,300.012 212.456,299.840 212.735 C 299.471 213.333,301.473 215.334,302.172 215.066 C 302.467 214.953,303.114 215.144,303.610 215.492 C 304.318 215.988,304.669 216.025,305.250 215.662 C 305.657 215.408,306.364 215.200,306.823 215.200 C 307.748 215.200,308.800 214.328,308.800 213.562 C 308.800 213.290,308.911 213.178,309.048 213.314 C 309.541 213.808,310.300 212.526,310.311 211.179 C 310.317 210.420,310.339 197.875,310.361 183.300 L 310.400 156.800 317.785 156.800 L 325.169 156.800 325.285 184.531 L 325.400 212.262 326.600 213.701 C 327.517 214.801,328.076 215.126,328.970 215.080 C 329.613 215.046,330.213 215.240,330.303 215.510 C 330.528 216.185,332.400 216.136,332.400 215.455 C 332.400 215.104,332.774 214.951,333.448 215.025 C 334.607 215.152,336.372 213.717,336.092 212.876 C 336.000 212.601,336.167 212.426,336.463 212.488 C 336.908 212.581,337.018 207.826,337.107 184.826 C 337.167 169.550,337.268 156.999,337.333 156.934 C 337.398 156.869,344.712 156.805,353.586 156.791 C 369.098 156.767,372.800 156.519,372.800 155.503 C 372.800 155.336,373.035 155.200,373.322 155.200 C 374.097 155.200,376.800 152.593,376.800 151.846 C 376.800 151.491,376.936 151.200,377.102 151.200 C 377.268 151.200,377.599 150.577,377.837 149.816 C 378.149 148.820,378.148 148.501,377.835 148.675 C 377.596 148.808,377.625 148.675,377.900 148.379 C 378.506 147.726,378.595 142.000,378.000 142.000 C 377.780 142.000,377.600 141.640,377.600 141.200 C 377.600 140.760,377.420 140.400,377.200 140.400 C 376.980 140.400,376.800 140.128,376.800 139.796 C 376.800 138.927,374.425 136.576,373.703 136.730 C 373.320 136.811,373.171 136.654,373.303 136.309 C 373.431 135.974,373.089 135.569,372.432 135.278 C 371.837 135.015,370.953 134.429,370.466 133.976 C 369.980 133.523,369.182 133.208,368.691 133.276 C 368.085 133.360,367.677 133.120,367.416 132.525 C 367.024 131.632,366.098 131.156,364.515 131.032 C 364.028 130.994,363.488 130.808,363.315 130.618 C 363.142 130.428,363.315 130.386,363.700 130.524 C 364.816 130.924,364.509 130.192,363.300 129.568 C 362.695 129.255,361.951 128.764,361.647 128.476 C 361.343 128.187,360.398 127.673,359.547 127.332 C 358.696 126.992,358.000 126.565,358.000 126.384 C 358.000 126.202,357.609 125.930,357.131 125.778 C 356.653 125.626,355.899 125.164,355.455 124.751 C 355.012 124.338,354.413 124.000,354.125 124.000 C 353.836 124.000,353.600 123.820,353.600 123.600 C 353.600 123.380,353.280 123.200,352.888 123.200 C 352.497 123.200,351.917 122.840,351.600 122.400 C 351.283 121.960,350.718 121.600,350.345 121.600 C 349.972 121.600,349.604 121.412,349.527 121.182 C 349.451 120.952,348.994 120.735,348.511 120.698 C 348.029 120.662,347.708 120.559,347.798 120.469 C 348.053 120.214,346.915 119.200,346.375 119.200 C 346.111 119.200,345.567 118.823,345.168 118.363 C 344.769 117.903,344.252 117.644,344.018 117.789 C 343.785 117.933,343.493 117.786,343.368 117.462 C 343.244 117.138,342.615 116.655,341.971 116.388 C 341.327 116.121,340.800 115.745,340.800 115.551 C 340.800 115.358,340.629 115.200,340.420 115.200 C 340.211 115.200,339.238 114.659,338.259 113.998 C 337.279 113.336,336.208 112.899,335.879 113.025 C 335.550 113.151,335.145 113.034,334.979 112.765 C 334.773 112.433,334.856 112.370,335.238 112.569 C 335.547 112.729,335.350 112.487,334.800 112.031 C 334.250 111.574,333.575 111.013,333.300 110.784 C 333.025 110.556,332.800 110.478,332.800 110.613 C 332.800 110.747,332.525 110.582,332.188 110.246 C 331.852 109.909,331.330 109.729,331.029 109.844 C 330.728 109.960,330.345 109.834,330.179 109.565 C 329.973 109.232,330.043 109.179,330.400 109.400 C 330.760 109.622,330.827 109.568,330.617 109.227 C 330.448 108.954,329.952 108.824,329.515 108.938 C 329.078 109.052,328.820 109.047,328.941 108.925 C 329.275 108.591,328.144 107.600,327.429 107.600 C 327.083 107.600,326.800 107.409,326.800 107.176 C 326.800 106.943,326.620 106.864,326.400 107.000 C 326.180 107.136,326.000 106.967,326.000 106.624 C 326.000 106.267,325.658 106.000,325.200 106.000 C 324.760 106.000,324.400 105.820,324.400 105.600 C 324.400 105.380,324.130 105.200,323.800 105.200 C 323.470 105.200,323.200 105.020,323.200 104.800 C 323.200 104.580,322.930 104.400,322.600 104.400 C 322.270 104.400,322.000 104.220,322.000 104.000 C 322.000 103.780,321.629 103.600,321.176 103.600 C 320.723 103.600,320.464 103.420,320.600 103.200 C 320.736 102.980,320.567 102.800,320.224 102.800 C 319.881 102.800,319.600 102.620,319.600 102.400 C 319.600 102.180,319.330 102.000,319.000 102.000 C 318.670 102.000,318.400 101.801,318.400 101.557 C 318.400 101.314,318.132 101.217,317.805 101.343 C 317.477 101.468,316.713 101.131,316.105 100.592 C 314.269 98.965,314.047 98.800,313.692 98.800 C 313.505 98.800,312.948 98.424,312.455 97.965 C 311.962 97.506,311.298 97.230,310.979 97.353 C 310.629 97.487,310.400 97.333,310.400 96.964 C 310.400 96.628,310.235 96.455,310.034 96.579 C 309.833 96.703,309.608 96.669,309.534 96.502 C 309.267 95.901,305.962 93.976,305.591 94.206 C 305.371 94.341,305.322 94.148,305.474 93.751 C 305.669 93.243,305.579 93.122,305.132 93.294 C 304.784 93.428,304.289 93.201,303.974 92.764 C 303.284 91.807,302.633 91.766,302.958 92.700 C 303.161 93.284,303.102 93.271,302.601 92.624 C 302.270 92.196,302.000 91.701,302.000 91.524 C 302.000 91.346,301.640 91.200,301.200 91.200 C 300.760 91.200,300.400 91.020,300.400 90.800 C 300.400 90.580,300.119 90.400,299.776 90.400 C 299.433 90.400,299.264 90.220,299.400 90.000 C 299.536 89.780,299.359 89.600,299.007 89.600 C 298.655 89.600,297.980 89.240,297.508 88.800 C 297.036 88.360,296.413 88.000,296.125 88.000 C 295.836 88.000,295.600 87.820,295.600 87.600 C 295.600 87.380,295.227 87.200,294.771 87.200 C 293.871 87.200,292.685 86.248,293.086 85.848 C 293.222 85.711,293.026 85.600,292.650 85.600 C 292.274 85.600,291.580 85.240,291.108 84.800 C 290.636 84.360,289.744 83.776,289.125 83.503 C 288.506 83.229,288.000 82.869,288.000 82.702 C 288.000 82.536,287.745 82.400,287.433 82.400 C 287.122 82.400,286.804 82.212,286.727 81.982 C 286.651 81.752,286.198 81.535,285.722 81.499 C 285.245 81.463,284.944 81.291,285.051 81.117 C 285.244 80.804,284.580 80.629,283.800 80.786 C 283.580 80.830,283.534 80.733,283.697 80.569 C 284.073 80.194,282.524 79.076,282.041 79.375 C 281.845 79.496,281.576 79.315,281.445 78.972 C 281.313 78.630,281.020 78.464,280.793 78.604 C 280.566 78.745,280.430 78.635,280.490 78.361 C 280.552 78.082,279.894 77.649,279.000 77.379 C 278.120 77.113,277.449 76.681,277.510 76.418 C 277.570 76.155,277.435 76.055,277.210 76.194 C 276.984 76.333,276.800 76.237,276.800 75.981 C 276.800 75.724,276.545 75.612,276.233 75.732 C 275.921 75.852,275.552 75.651,275.412 75.286 C 275.192 74.714,275.106 74.704,274.785 75.211 C 274.490 75.677,274.411 75.611,274.406 74.900 C 274.403 74.369,274.154 74.000,273.800 74.000 C 273.470 74.000,273.200 73.820,273.200 73.600 C 273.200 73.380,272.880 73.200,272.488 73.200 C 272.097 73.200,271.517 72.840,271.200 72.400 C 270.883 71.960,270.386 71.600,270.095 71.600 C 269.804 71.600,269.180 71.240,268.708 70.800 C 268.236 70.360,267.613 70.000,267.325 70.000 C 267.036 70.000,266.800 69.812,266.800 69.582 C 266.800 69.353,266.575 69.194,266.300 69.230 C 265.238 69.368,264.764 69.182,265.039 68.737 C 265.236 68.418,265.050 68.346,264.440 68.506 C 263.709 68.697,263.637 68.638,264.026 68.169 C 264.409 67.708,264.337 67.600,263.649 67.600 C 263.182 67.600,262.800 67.420,262.800 67.200 C 262.800 66.980,262.530 66.800,262.200 66.800 C 261.870 66.800,261.600 66.620,261.600 66.400 C 261.600 66.180,261.229 66.000,260.776 66.000 C 260.323 66.000,260.064 65.820,260.200 65.600 C 260.336 65.380,260.077 65.200,259.624 65.200 C 259.171 65.200,258.800 65.001,258.800 64.757 C 258.800 64.514,258.521 64.422,258.179 64.553 C 257.821 64.690,257.662 64.622,257.805 64.393 C 257.940 64.174,257.724 63.875,257.325 63.729 C 256.926 63.583,256.120 63.089,255.532 62.632 C 253.908 61.366,251.146 59.788,250.751 59.900 C 250.558 59.955,250.400 59.811,250.400 59.579 C 250.400 59.348,249.860 58.970,249.200 58.740 C 248.540 58.510,248.000 58.159,248.000 57.961 C 248.000 57.762,247.680 57.600,247.288 57.600 C 246.897 57.600,246.317 57.240,246.000 56.800 C 245.683 56.360,245.003 56.000,244.488 56.000 C 243.966 56.000,243.662 55.823,243.800 55.600 C 243.936 55.380,243.743 55.200,243.371 55.200 C 242.998 55.200,242.363 54.819,241.959 54.353 C 241.544 53.874,240.963 53.605,240.625 53.735 C 240.295 53.862,239.929 53.808,239.810 53.617 C 239.692 53.425,239.821 53.177,240.098 53.066 C 240.374 52.954,240.195 52.849,239.700 52.832 C 239.205 52.814,238.800 52.609,238.800 52.376 C 238.800 52.143,238.639 52.052,238.442 52.174 C 238.245 52.296,237.981 52.126,237.854 51.798 C 237.728 51.469,237.349 51.200,237.013 51.200 C 236.676 51.200,236.400 51.009,236.400 50.776 C 236.400 50.543,236.220 50.464,236.000 50.600 C 235.780 50.736,235.600 50.556,235.600 50.200 C 235.600 49.844,235.443 49.650,235.252 49.768 C 235.060 49.887,234.499 49.632,234.004 49.204 C 233.510 48.775,232.766 48.316,232.352 48.185 C 231.939 48.054,231.600 47.778,231.600 47.573 C 231.600 47.368,231.240 47.200,230.800 47.200 C 230.360 47.200,229.997 46.975,229.994 46.700 C 229.990 46.367,229.858 46.400,229.600 46.800 C 229.271 47.309,229.211 47.290,229.206 46.676 C 229.203 46.278,229.025 46.061,228.811 46.193 C 228.597 46.326,228.114 46.076,227.739 45.638 C 227.364 45.199,226.930 44.920,226.774 45.016 C 226.618 45.112,226.268 44.923,225.996 44.596 C 225.724 44.268,225.085 44.000,224.575 44.000 C 224.065 44.000,223.526 43.804,223.378 43.564 C 223.208 43.289,222.573 43.234,221.654 43.416 C 219.847 43.774,219.594 43.781,218.600 43.498 C 218.160 43.373,217.574 43.361,217.298 43.470 M140.130 47.500 C 131.731 47.560,117.871 47.560,109.330 47.500 C 100.788 47.440,107.660 47.390,124.600 47.390 C 141.540 47.390,148.528 47.440,140.130 47.500 M220.800 55.600 C 220.800 55.820,221.160 56.000,221.600 56.000 C 222.040 56.000,222.400 56.168,222.400 56.373 C 222.400 56.578,222.739 56.854,223.152 56.985 C 223.566 57.116,224.318 57.582,224.824 58.020 C 225.370 58.494,225.842 58.655,225.989 58.417 C 226.130 58.189,226.480 58.356,226.806 58.809 C 227.120 59.244,227.607 59.600,227.888 59.600 C 228.170 59.600,228.403 59.825,228.406 60.100 C 228.410 60.433,228.542 60.400,228.800 60.000 C 229.156 59.449,229.379 59.723,229.236 60.534 C 229.204 60.718,229.542 60.964,229.989 61.081 C 230.435 61.198,230.800 61.452,230.800 61.647 C 230.800 61.841,230.935 61.979,231.100 61.953 C 232.097 61.795,232.778 62.101,233.002 62.806 C 233.143 63.249,233.413 63.516,233.603 63.398 C 233.793 63.281,234.404 63.640,234.961 64.197 C 235.517 64.754,236.114 65.186,236.286 65.157 C 237.277 64.993,238.000 65.280,238.000 65.837 C 238.000 66.188,238.360 66.569,238.800 66.684 C 239.240 66.799,239.600 67.052,239.600 67.247 C 239.600 67.441,240.067 67.600,240.637 67.600 C 241.345 67.600,241.743 67.859,241.888 68.416 C 242.006 68.865,242.288 69.171,242.515 69.095 C 242.742 69.019,243.381 69.377,243.934 69.889 C 244.699 70.598,245.017 70.699,245.264 70.311 C 245.497 69.943,245.589 70.007,245.594 70.537 C 245.597 70.943,245.960 71.369,246.400 71.484 C 246.840 71.599,247.200 71.823,247.200 71.982 C 247.200 72.246,248.957 73.200,249.442 73.200 C 249.555 73.200,249.519 72.992,249.362 72.738 C 249.185 72.452,249.252 72.385,249.538 72.562 C 249.792 72.719,250.000 73.117,250.000 73.447 C 250.000 73.777,250.168 73.944,250.372 73.817 C 250.577 73.691,250.860 73.773,251.000 74.000 C 251.140 74.227,251.427 74.307,251.638 74.177 C 251.848 74.047,251.970 74.179,251.910 74.470 C 251.849 74.762,252.123 75.002,252.517 75.003 C 252.911 75.005,253.361 75.203,253.517 75.442 C 253.673 75.681,254.295 75.998,254.900 76.146 C 255.505 76.294,256.000 76.682,256.000 77.008 C 256.000 77.408,256.421 77.602,257.300 77.606 C 258.286 77.611,258.455 77.706,258.000 78.000 C 257.496 78.326,257.520 78.389,258.153 78.394 C 258.567 78.397,259.233 78.777,259.632 79.237 C 260.031 79.697,260.535 79.964,260.751 79.830 C 260.968 79.696,261.275 79.798,261.434 80.055 C 261.615 80.348,261.550 80.416,261.262 80.238 C 261.008 80.081,260.800 80.122,260.800 80.330 C 260.800 80.640,261.564 81.026,262.809 81.346 C 262.925 81.376,263.453 81.805,263.985 82.300 C 264.516 82.795,265.187 83.200,265.475 83.200 C 265.764 83.200,266.000 83.380,266.000 83.600 C 266.000 83.820,266.270 84.000,266.600 84.000 C 266.930 84.000,267.200 84.180,267.200 84.400 C 267.200 84.620,267.470 84.800,267.800 84.800 C 268.130 84.800,268.400 84.980,268.400 85.200 C 268.400 85.420,268.861 85.600,269.424 85.600 C 269.987 85.600,270.365 85.735,270.266 85.900 C 270.047 86.260,270.804 86.949,271.616 87.130 C 271.937 87.201,272.267 87.447,272.348 87.675 C 272.436 87.921,272.638 87.868,272.842 87.545 C 273.118 87.111,273.189 87.134,273.194 87.657 C 273.197 88.019,273.479 88.422,273.821 88.553 C 274.177 88.689,274.337 88.622,274.197 88.395 C 274.063 88.178,274.214 88.000,274.534 88.000 C 274.853 88.000,275.222 88.279,275.353 88.621 C 275.507 89.022,275.429 89.142,275.134 88.959 C 274.843 88.779,274.786 88.854,274.979 89.165 C 275.145 89.434,275.533 89.558,275.840 89.440 C 276.148 89.322,276.400 89.451,276.400 89.726 C 276.400 90.378,278.478 91.600,279.585 91.600 C 280.059 91.600,280.336 91.780,280.200 92.000 C 280.064 92.220,280.244 92.400,280.600 92.400 C 280.992 92.400,281.133 92.584,280.958 92.868 C 280.762 93.185,280.889 93.252,281.350 93.075 C 281.777 92.911,282.118 93.042,282.267 93.430 C 282.397 93.769,282.748 93.952,283.047 93.837 C 283.346 93.723,283.548 93.847,283.495 94.114 C 283.443 94.381,283.630 94.553,283.911 94.496 C 284.192 94.439,284.527 94.664,284.654 94.996 C 284.781 95.328,285.226 95.600,285.643 95.600 C 286.059 95.600,286.400 95.768,286.400 95.973 C 286.400 96.178,286.805 96.471,287.300 96.623 C 287.795 96.775,288.526 97.241,288.924 97.659 C 289.322 98.076,289.817 98.313,290.024 98.185 C 290.231 98.057,290.400 98.154,290.400 98.400 C 290.400 98.646,290.580 98.736,290.800 98.600 C 291.020 98.464,291.200 98.633,291.200 98.976 C 291.200 99.319,291.470 99.600,291.800 99.600 C 292.130 99.600,292.400 99.759,292.400 99.954 C 292.400 100.149,292.988 100.588,293.706 100.929 C 294.425 101.270,295.697 102.013,296.534 102.581 C 297.371 103.149,298.448 103.673,298.928 103.747 C 299.407 103.820,299.800 104.089,299.800 104.345 C 299.800 104.602,300.250 105.045,300.800 105.330 C 301.350 105.616,302.256 106.149,302.813 106.514 C 303.371 106.880,304.271 107.253,304.813 107.344 C 305.356 107.435,305.759 107.699,305.708 107.930 C 305.658 108.162,306.018 108.476,306.508 108.630 C 306.999 108.783,307.506 109.073,307.636 109.274 C 307.766 109.475,308.261 109.669,308.736 109.705 C 309.211 109.741,309.702 110.092,309.827 110.485 C 309.952 110.878,310.278 111.200,310.552 111.200 C 310.825 111.200,311.407 111.515,311.845 111.900 C 312.962 112.883,314.285 113.600,314.980 113.600 C 315.306 113.600,315.765 113.960,316.000 114.400 C 316.235 114.840,316.615 115.200,316.843 115.200 C 317.071 115.200,317.529 115.472,317.861 115.804 C 318.193 116.136,318.630 116.305,318.832 116.180 C 319.035 116.055,319.200 116.154,319.200 116.400 C 319.200 116.646,319.380 116.736,319.600 116.600 C 319.820 116.464,320.000 116.633,320.000 116.976 C 320.000 117.333,320.342 117.600,320.800 117.600 C 321.240 117.600,321.600 117.774,321.600 117.987 C 321.600 118.201,321.872 118.271,322.205 118.143 C 322.649 117.972,322.739 118.094,322.544 118.602 C 322.328 119.165,322.438 119.242,323.139 119.019 C 323.749 118.826,324.000 118.915,324.000 119.323 C 324.000 119.647,324.538 120.008,325.227 120.145 C 325.962 120.292,326.346 120.563,326.186 120.822 C 326.037 121.063,326.291 121.351,326.760 121.474 C 327.222 121.594,327.600 121.840,327.600 122.020 C 327.600 122.352,328.829 122.868,329.210 122.695 C 329.325 122.643,329.955 123.101,330.610 123.712 C 331.264 124.324,332.250 124.938,332.800 125.076 C 333.350 125.215,334.070 125.614,334.400 125.964 C 334.730 126.314,335.270 126.659,335.600 126.730 C 335.930 126.802,336.260 127.027,336.333 127.230 C 336.407 127.434,336.992 127.600,337.633 127.600 C 338.275 127.600,338.779 127.735,338.753 127.900 C 338.619 128.743,338.866 129.200,339.453 129.200 C 339.812 129.200,340.433 129.577,340.832 130.037 C 341.231 130.497,341.748 130.756,341.982 130.611 C 342.215 130.467,342.514 130.631,342.646 130.975 C 342.778 131.319,343.136 131.600,343.443 131.600 C 343.749 131.600,344.000 131.791,344.000 132.024 C 344.000 132.257,344.181 132.335,344.403 132.198 C 344.624 132.061,344.914 132.231,345.046 132.575 C 345.178 132.919,345.523 133.200,345.814 133.200 C 346.105 133.200,346.624 133.481,346.968 133.826 C 347.312 134.170,347.777 134.338,348.000 134.200 C 348.223 134.062,348.519 134.244,348.657 134.605 C 348.893 135.221,350.654 136.202,351.286 136.069 C 351.443 136.037,351.468 136.277,351.343 136.605 C 351.185 137.016,351.375 137.200,351.957 137.200 C 352.421 137.200,352.800 137.401,352.800 137.647 C 352.800 137.896,353.153 138.001,353.601 137.884 C 354.041 137.769,354.306 137.829,354.189 138.017 C 353.991 138.338,355.421 139.355,356.115 139.386 C 356.288 139.394,356.584 139.651,356.774 139.958 C 356.964 140.265,357.402 140.408,357.747 140.276 C 358.092 140.143,358.498 140.235,358.649 140.479 C 358.827 140.767,358.739 140.810,358.400 140.600 C 358.043 140.379,357.973 140.432,358.179 140.765 C 358.345 141.034,358.701 141.170,358.969 141.067 C 359.238 140.964,359.668 141.217,359.925 141.629 C 360.195 142.061,360.648 142.280,360.996 142.146 C 361.400 141.991,361.602 142.160,361.606 142.657 C 361.611 143.283,361.673 143.306,362.000 142.800 C 362.227 142.448,362.390 142.395,362.394 142.671 C 362.397 142.931,362.691 143.434,363.048 143.790 C 363.404 144.147,363.609 144.524,363.504 144.630 C 363.355 144.779,191.491 144.894,91.276 144.813 C 80.899 144.804,75.637 144.664,75.800 144.400 C 75.936 144.180,76.397 144.000,76.824 144.000 C 77.251 144.000,77.600 143.820,77.600 143.600 C 77.600 143.380,77.883 143.200,78.229 143.200 C 78.974 143.200,80.069 142.203,79.714 141.848 C 79.578 141.711,79.936 141.600,80.511 141.600 C 81.085 141.600,81.790 141.264,82.077 140.854 C 82.365 140.443,82.780 140.081,83.000 140.049 C 84.148 139.881,84.782 139.495,84.544 139.109 C 84.391 138.861,84.462 138.791,84.711 138.945 C 84.949 139.092,85.260 139.027,85.400 138.800 C 85.540 138.573,85.823 138.491,86.028 138.617 C 86.232 138.744,86.400 138.701,86.400 138.521 C 86.400 138.342,86.931 137.960,87.581 137.673 C 88.231 137.385,88.880 136.777,89.025 136.322 C 89.207 135.749,89.380 135.644,89.588 135.981 C 89.810 136.340,89.952 136.303,90.129 135.840 C 90.270 135.473,90.626 135.312,90.989 135.451 C 91.456 135.630,91.541 135.512,91.335 134.975 C 91.120 134.415,91.210 134.318,91.751 134.526 C 92.162 134.684,92.343 134.631,92.197 134.395 C 92.063 134.178,92.332 134.000,92.795 134.000 C 93.258 134.000,94.090 133.547,94.644 132.992 C 95.198 132.438,95.820 132.089,96.026 132.216 C 96.232 132.343,96.400 132.159,96.400 131.806 C 96.400 131.453,96.625 131.201,96.900 131.246 C 97.671 131.370,98.822 130.759,98.574 130.358 C 98.452 130.161,98.813 130.000,99.376 130.000 C 99.939 130.000,100.400 129.820,100.400 129.600 C 100.400 129.380,100.670 129.200,101.000 129.200 C 101.330 129.200,101.600 129.020,101.600 128.800 C 101.600 128.580,101.870 128.400,102.200 128.400 C 102.530 128.400,102.800 128.220,102.800 128.000 C 102.800 127.780,103.171 127.600,103.624 127.600 C 104.077 127.600,104.336 127.420,104.200 127.200 C 104.064 126.980,104.154 126.800,104.400 126.800 C 104.646 126.800,104.759 126.657,104.651 126.483 C 104.544 126.309,104.845 126.137,105.322 126.101 C 105.798 126.065,106.251 125.848,106.327 125.618 C 106.404 125.388,106.722 125.200,107.033 125.200 C 107.345 125.200,107.960 124.840,108.400 124.400 C 108.840 123.960,109.290 123.600,109.400 123.600 C 110.509 123.600,110.562 123.561,110.000 123.159 C 109.516 122.814,109.572 122.768,110.286 122.924 C 110.806 123.038,111.137 122.936,111.086 122.678 C 111.039 122.435,111.270 122.219,111.600 122.197 C 112.679 122.124,114.400 121.231,114.400 120.743 C 114.400 120.481,114.511 120.378,114.648 120.514 C 114.784 120.650,115.158 120.499,115.480 120.177 C 115.801 119.856,116.195 119.674,116.355 119.772 C 116.515 119.871,116.973 119.516,117.373 118.984 C 117.773 118.451,118.258 118.112,118.450 118.231 C 118.643 118.350,118.800 118.269,118.800 118.051 C 118.800 117.834,119.205 117.594,119.700 117.518 C 120.195 117.443,120.551 117.147,120.490 116.861 C 120.430 116.575,120.574 116.460,120.811 116.607 C 121.048 116.754,121.566 116.500,121.962 116.044 C 122.357 115.588,122.827 115.346,123.004 115.507 C 123.182 115.668,123.214 115.485,123.076 115.100 C 122.938 114.715,122.999 114.400,123.213 114.400 C 123.426 114.400,123.614 114.625,123.632 114.900 C 123.657 115.300,123.704 115.300,123.865 114.900 C 123.976 114.625,124.322 114.400,124.633 114.400 C 124.945 114.400,125.200 114.220,125.200 114.000 C 125.200 113.780,125.476 113.600,125.813 113.600 C 126.149 113.600,126.528 113.331,126.654 113.002 C 126.781 112.674,127.045 112.504,127.242 112.626 C 127.439 112.748,127.600 112.657,127.600 112.424 C 127.600 112.191,127.941 112.000,128.357 112.000 C 128.774 112.000,129.222 111.719,129.354 111.375 C 129.486 111.031,129.767 110.856,129.977 110.986 C 130.188 111.116,130.555 110.857,130.794 110.411 C 131.033 109.965,131.454 109.600,131.729 109.600 C 132.331 109.600,134.378 108.561,136.692 107.082 C 137.623 106.487,138.540 106.000,138.730 106.000 C 138.920 106.000,139.402 105.640,139.800 105.200 C 140.198 104.760,140.766 104.400,141.062 104.400 C 141.358 104.400,141.600 104.220,141.600 104.000 C 141.600 103.780,141.836 103.600,142.125 103.600 C 142.413 103.600,143.085 103.195,143.617 102.700 C 144.149 102.205,144.746 101.853,144.943 101.917 C 145.140 101.981,145.559 101.666,145.873 101.217 C 146.188 100.768,146.718 100.400,147.051 100.400 C 147.384 100.400,147.929 100.128,148.261 99.796 C 148.593 99.464,149.058 99.312,149.294 99.458 C 149.549 99.615,149.607 99.536,149.438 99.262 C 149.267 98.985,149.413 98.800,149.800 98.800 C 150.156 98.800,150.355 98.650,150.242 98.468 C 150.129 98.285,150.650 97.894,151.400 97.600 C 152.150 97.306,152.671 96.915,152.558 96.732 C 152.445 96.550,152.813 96.400,153.376 96.400 C 153.939 96.400,154.400 96.241,154.400 96.047 C 154.400 95.852,154.797 95.589,155.283 95.463 C 155.768 95.336,156.040 95.107,155.888 94.955 C 155.736 94.802,156.488 94.258,157.560 93.745 C 158.633 93.232,159.605 92.565,159.721 92.263 C 159.836 91.961,160.499 91.600,161.192 91.462 C 161.895 91.321,162.342 91.030,162.203 90.805 C 162.065 90.582,162.311 90.400,162.748 90.400 C 163.185 90.400,163.804 90.139,164.124 89.819 C 164.443 89.500,164.816 89.350,164.952 89.486 C 165.089 89.622,165.200 89.523,165.200 89.267 C 165.200 89.010,165.560 88.800,166.000 88.800 C 166.440 88.800,166.800 88.641,166.800 88.447 C 166.800 88.252,167.178 87.994,167.640 87.874 C 168.102 87.753,168.369 87.474,168.234 87.255 C 168.098 87.035,168.198 86.725,168.455 86.566 C 168.748 86.385,168.816 86.450,168.638 86.738 C 168.230 87.398,168.748 87.309,169.461 86.596 C 169.793 86.264,170.261 86.114,170.500 86.262 C 170.782 86.436,170.842 86.286,170.670 85.839 C 170.458 85.287,170.565 85.199,171.203 85.401 C 171.641 85.540,172.000 85.492,172.000 85.295 C 172.000 85.097,172.495 84.680,173.100 84.368 C 173.705 84.055,174.435 83.485,174.723 83.100 C 175.010 82.715,175.606 82.400,176.046 82.400 C 176.487 82.400,176.758 82.256,176.649 82.080 C 176.541 81.904,176.819 81.531,177.268 81.251 C 177.938 80.832,178.027 80.835,177.765 81.270 C 177.384 81.904,178.646 80.985,179.647 79.901 C 180.003 79.515,180.598 79.200,180.971 79.200 C 181.343 79.200,181.536 79.020,181.400 78.800 C 181.181 78.445,182.029 78.238,182.628 78.500 C 182.754 78.555,183.035 78.281,183.253 77.892 C 183.471 77.502,183.809 77.282,184.005 77.403 C 184.200 77.524,184.555 77.257,184.794 76.811 C 185.050 76.333,185.633 76.000,186.214 76.000 C 186.756 76.000,187.200 75.841,187.200 75.647 C 187.200 75.452,187.578 75.194,188.040 75.074 C 188.502 74.953,188.763 74.664,188.619 74.432 C 188.469 74.188,188.588 74.097,188.902 74.218 C 189.201 74.332,189.975 73.970,190.623 73.414 C 191.270 72.857,192.031 72.401,192.313 72.400 C 192.594 72.400,192.928 72.131,193.054 71.802 C 193.181 71.474,193.425 71.292,193.597 71.398 C 193.769 71.504,194.130 71.325,194.400 71.000 C 194.670 70.675,195.050 70.507,195.245 70.628 C 195.440 70.749,195.600 70.572,195.600 70.236 C 195.600 69.900,195.831 69.714,196.114 69.822 C 196.397 69.931,197.019 69.655,197.497 69.210 C 197.975 68.764,198.663 68.400,199.026 68.400 C 199.460 68.400,199.603 68.186,199.445 67.774 C 199.269 67.314,199.391 67.207,199.905 67.370 C 200.324 67.503,201.069 67.194,201.755 66.605 C 202.387 66.062,203.089 65.731,203.314 65.870 C 203.539 66.010,203.639 65.961,203.535 65.762 C 203.431 65.563,203.792 64.950,204.336 64.400 C 204.881 63.850,205.197 63.625,205.039 63.900 C 204.882 64.175,204.924 64.400,205.134 64.400 C 205.343 64.400,205.628 64.104,205.767 63.743 C 205.905 63.381,206.129 63.196,206.264 63.331 C 206.399 63.466,207.008 63.222,207.617 62.788 C 208.225 62.355,208.931 62.000,209.185 62.000 C 209.439 62.000,209.536 61.820,209.400 61.600 C 209.264 61.380,209.354 61.200,209.600 61.200 C 209.846 61.200,209.936 61.020,209.800 60.800 C 209.564 60.418,210.383 60.220,211.540 60.379 C 211.837 60.420,211.962 60.261,211.817 60.027 C 211.660 59.774,211.910 59.600,212.429 59.600 C 212.912 59.600,213.629 59.228,214.023 58.774 C 214.417 58.319,214.843 57.959,214.970 57.974 C 215.763 58.064,216.000 57.932,216.000 57.400 C 216.000 56.804,216.403 56.650,217.651 56.771 C 218.009 56.805,218.412 56.545,218.548 56.191 C 218.683 55.838,218.963 55.654,219.170 55.781 C 219.376 55.909,219.658 55.830,219.796 55.607 C 220.119 55.084,220.800 55.079,220.800 55.600 M216.800 73.660 C 216.800 73.847,215.889 74.000,214.776 74.000 C 213.663 74.000,212.851 74.160,212.972 74.355 C 213.093 74.550,212.909 74.943,212.565 75.229 C 212.090 75.623,211.869 75.635,211.647 75.276 C 211.250 74.633,209.210 75.569,209.197 76.400 C 209.191 76.802,209.091 76.850,208.894 76.545 C 208.690 76.230,208.176 76.382,207.211 77.045 C 206.447 77.570,206.053 78.000,206.335 78.000 C 206.617 78.000,206.734 78.183,206.596 78.407 C 206.458 78.630,206.191 78.718,206.002 78.601 C 205.423 78.243,203.716 79.236,203.176 80.244 C 202.895 80.770,202.515 81.200,202.332 81.200 C 202.150 81.200,202.000 81.470,202.000 81.800 C 202.000 82.130,201.809 82.400,201.576 82.400 C 201.343 82.400,201.264 82.580,201.400 82.800 C 201.536 83.020,201.367 83.200,201.024 83.200 C 200.667 83.200,200.400 83.542,200.400 84.000 C 200.400 84.440,200.249 84.800,200.064 84.800 C 199.880 84.800,199.518 85.261,199.261 85.825 C 198.948 86.512,198.937 86.763,199.226 86.584 C 199.464 86.437,199.422 86.695,199.133 87.158 C 198.844 87.621,198.463 88.000,198.286 88.000 C 198.110 88.000,197.994 88.225,198.030 88.500 C 198.199 89.804,197.968 90.828,197.562 90.577 C 197.258 90.389,197.166 91.053,197.262 92.754 C 197.347 94.266,197.242 95.201,196.985 95.201 C 196.421 95.200,196.268 97.671,196.811 98.007 C 197.051 98.155,197.281 99.429,197.323 100.838 C 197.371 102.449,197.564 103.370,197.841 103.320 C 198.098 103.273,198.207 103.628,198.103 104.173 C 198.005 104.686,198.122 105.228,198.362 105.377 C 198.603 105.525,198.800 105.982,198.800 106.390 C 198.800 106.799,198.967 107.193,199.170 107.267 C 199.374 107.340,199.599 107.670,199.670 108.000 C 199.742 108.330,200.115 108.891,200.500 109.247 C 200.885 109.603,201.200 110.106,201.200 110.365 C 201.200 110.948,203.011 112.800,203.582 112.800 C 203.812 112.800,204.000 112.952,204.000 113.139 C 204.000 113.721,205.351 114.997,206.500 115.501 C 207.105 115.766,207.600 116.167,207.600 116.391 C 207.600 116.616,207.960 116.800,208.400 116.800 C 208.840 116.800,209.200 116.959,209.200 117.153 C 209.200 117.578,210.631 118.097,211.966 118.157 C 212.498 118.181,213.008 118.425,213.100 118.700 C 213.192 118.975,213.691 119.200,214.210 119.200 C 214.728 119.200,215.248 119.353,215.363 119.541 C 215.656 120.014,224.400 120.050,224.400 119.578 C 224.400 119.370,224.895 119.194,225.500 119.186 C 226.105 119.178,227.041 118.927,227.580 118.629 C 228.119 118.331,228.792 118.176,229.076 118.285 C 229.361 118.394,229.706 118.189,229.844 117.830 C 230.008 117.402,230.359 117.260,230.857 117.418 C 231.340 117.571,231.580 117.484,231.510 117.182 C 231.450 116.919,231.996 116.496,232.723 116.242 C 233.451 115.988,233.916 115.650,233.757 115.490 C 233.597 115.331,233.767 115.200,234.133 115.200 C 234.500 115.200,234.800 115.020,234.800 114.800 C 234.800 114.580,234.993 114.400,235.229 114.400 C 235.691 114.400,236.551 113.647,236.829 113.000 C 236.923 112.780,237.135 112.645,237.300 112.700 C 237.580 112.793,237.756 112.186,237.647 111.500 C 237.621 111.335,237.793 111.200,238.029 111.200 C 238.753 111.200,239.668 110.035,239.361 109.503 C 239.202 109.226,239.214 109.129,239.389 109.286 C 239.563 109.444,240.012 109.174,240.385 108.686 C 241.356 107.418,241.668 106.401,241.087 106.394 C 240.757 106.390,240.738 106.293,241.029 106.094 C 241.518 105.759,241.985 104.661,242.259 103.200 C 242.363 102.650,242.616 102.140,242.824 102.067 C 243.307 101.895,243.321 91.311,242.838 91.133 C 242.639 91.060,242.414 90.550,242.338 90.000 C 242.262 89.450,241.930 88.781,241.600 88.513 C 241.270 88.245,241.157 88.020,241.349 88.013 C 241.541 88.006,241.451 87.695,241.149 87.323 C 240.683 86.749,240.684 86.697,241.152 86.979 C 241.536 87.210,241.642 87.142,241.502 86.756 C 241.391 86.450,241.084 86.250,240.820 86.310 C 240.527 86.377,240.426 86.143,240.561 85.710 C 240.826 84.859,240.458 84.237,239.475 83.874 C 239.076 83.726,238.865 83.419,239.006 83.191 C 239.147 82.963,238.720 82.159,238.058 81.406 C 237.318 80.562,236.780 80.221,236.659 80.517 C 236.551 80.783,236.449 80.664,236.432 80.253 C 236.402 79.552,234.158 77.220,233.500 77.206 C 232.898 77.194,232.589 77.047,232.068 76.525 C 231.775 76.232,231.389 76.083,231.210 76.194 C 231.030 76.305,230.776 76.115,230.645 75.772 C 230.513 75.430,230.237 75.254,230.030 75.381 C 229.824 75.509,229.542 75.430,229.404 75.207 C 229.266 74.983,228.623 74.800,227.976 74.800 C 227.329 74.800,226.800 74.620,226.800 74.400 C 226.800 74.177,225.696 73.997,224.300 73.994 C 222.693 73.990,222.000 73.861,222.359 73.634 C 222.711 73.411,221.782 73.287,219.859 73.299 C 218.177 73.310,216.800 73.473,216.800 73.660 M223.924 85.971 C 224.002 86.207,224.412 86.400,224.833 86.400 C 225.255 86.400,225.600 86.599,225.600 86.843 C 225.600 87.086,225.877 87.179,226.215 87.050 C 226.565 86.915,226.928 87.069,227.057 87.404 C 227.182 87.729,227.473 87.879,227.704 87.736 C 227.935 87.593,228.022 87.641,227.897 87.843 C 227.655 88.234,228.504 89.605,229.064 89.727 C 229.249 89.767,229.375 90.025,229.344 90.300 C 229.314 90.575,229.520 90.800,229.802 90.800 C 230.084 90.800,230.422 91.079,230.553 91.421 C 230.712 91.837,230.628 91.950,230.295 91.762 C 229.909 91.544,229.910 91.601,230.300 92.021 C 230.575 92.318,230.800 92.884,230.800 93.280 C 230.800 93.676,231.025 94.000,231.300 94.000 C 231.642 94.000,231.800 94.727,231.800 96.300 C 231.800 97.703,231.605 98.725,231.300 98.920 C 231.025 99.096,230.800 99.604,230.800 100.048 C 230.800 100.493,230.520 101.137,230.177 101.480 C 229.834 101.823,229.664 102.389,229.798 102.739 C 229.932 103.089,229.921 103.255,229.774 103.107 C 229.458 102.791,228.826 103.373,227.827 104.900 C 227.432 105.505,226.769 106.000,226.354 106.000 C 225.939 106.000,225.600 106.146,225.600 106.325 C 225.600 106.748,222.818 107.835,222.129 107.682 C 221.838 107.618,221.600 107.753,221.600 107.982 C 221.600 108.212,220.880 108.400,220.000 108.400 C 219.120 108.400,218.400 108.220,218.400 108.000 C 218.400 107.780,217.860 107.600,217.200 107.600 C 216.540 107.600,216.000 107.420,216.000 107.200 C 216.000 106.980,215.539 106.800,214.976 106.800 C 214.413 106.800,214.035 106.665,214.134 106.500 C 214.234 106.335,214.077 105.979,213.785 105.710 C 213.362 105.318,213.218 105.358,213.074 105.910 C 212.968 106.313,212.874 106.133,212.846 105.476 C 212.820 104.838,212.627 104.460,212.400 104.600 C 212.180 104.736,212.000 104.606,212.000 104.312 C 212.000 104.017,211.640 103.517,211.200 103.200 C 210.760 102.883,210.400 102.387,210.400 102.099 C 210.400 101.811,210.150 101.479,209.844 101.362 C 209.523 101.238,209.374 100.822,209.491 100.374 C 209.602 99.948,209.492 99.600,209.247 99.600 C 208.679 99.600,208.631 93.324,209.197 93.133 C 209.415 93.060,209.633 92.514,209.682 91.919 C 209.731 91.324,209.831 90.897,209.903 90.970 C 210.092 91.159,213.592 87.608,213.545 87.276 C 213.433 86.494,213.666 86.356,214.265 86.851 C 214.784 87.279,214.967 87.290,215.098 86.900 C 215.191 86.625,215.612 86.400,216.033 86.400 C 216.455 86.400,216.800 86.233,216.800 86.029 C 216.800 85.260,223.668 85.204,223.924 85.971 M103.500 236.269 C 103.442 250.971,103.394 239.060,103.394 209.800 C 103.394 180.540,103.442 168.511,103.500 183.069 C 103.558 197.627,103.558 221.567,103.500 236.269 M129.697 209.900 L 129.800 263.000 122.300 262.883 L 114.800 262.767 114.800 209.783 L 114.800 156.800 122.197 156.800 L 129.594 156.800 129.697 209.900 M168.497 209.900 L 168.600 263.000 154.900 262.890 L 141.200 262.780 141.200 209.790 L 141.200 156.800 154.797 156.800 L 168.394 156.800 168.497 209.900 M204.400 223.600 C 204.400 223.820,204.040 224.000,203.600 224.000 C 203.160 224.000,202.800 224.180,202.800 224.400 C 202.800 224.620,202.440 224.800,202.000 224.800 C 201.560 224.800,201.200 224.980,201.200 225.200 C 201.200 225.420,200.975 225.600,200.700 225.600 C 199.587 225.602,196.110 229.607,196.572 230.355 C 196.695 230.554,196.526 230.819,196.198 230.946 C 195.849 231.079,195.600 231.681,195.600 232.387 C 195.600 233.054,195.465 233.600,195.300 233.600 C 194.711 233.600,194.741 333.914,195.330 334.464 C 195.621 334.735,195.782 335.360,195.688 335.851 C 195.584 336.394,195.848 337.099,196.359 337.648 C 196.821 338.144,197.200 338.697,197.200 338.875 C 197.200 339.054,197.481 339.200,197.824 339.200 C 198.167 339.200,198.331 339.388,198.189 339.618 C 197.807 340.237,198.831 341.274,199.552 340.997 C 199.895 340.865,200.057 340.876,199.912 341.021 C 199.416 341.517,201.549 343.200,202.682 343.206 C 203.551 343.211,203.666 343.299,203.200 343.600 C 202.745 343.894,202.914 343.989,203.900 343.994 C 204.615 343.997,205.200 344.177,205.200 344.394 C 205.200 344.652,232.910 344.792,285.200 344.797 C 338.638 344.803,365.200 344.672,365.200 344.403 C 365.200 344.181,365.740 344.000,366.400 344.000 C 367.060 344.000,367.600 343.820,367.600 343.600 C 367.600 343.380,367.960 343.200,368.400 343.200 C 368.840 343.200,369.200 343.020,369.200 342.800 C 369.200 342.580,369.571 342.400,370.024 342.400 C 370.477 342.400,370.736 342.220,370.600 342.000 C 370.464 341.780,370.551 341.600,370.793 341.600 C 371.572 341.600,372.902 340.089,372.581 339.569 C 372.397 339.272,372.442 339.179,372.693 339.334 C 372.922 339.475,373.332 339.323,373.604 338.996 C 373.876 338.668,373.973 338.400,373.820 338.400 C 373.668 338.400,373.810 338.133,374.137 337.806 C 374.464 337.479,374.682 336.764,374.622 336.217 C 374.559 335.651,374.680 335.326,374.902 335.463 C 375.143 335.612,375.224 334.929,375.114 333.668 C 374.988 332.215,375.089 331.575,375.468 331.429 C 376.095 331.189,376.270 236.400,375.643 236.400 C 375.449 236.400,375.220 235.185,375.135 233.700 C 375.016 231.630,374.749 230.678,373.990 229.620 C 372.653 227.755,370.521 225.600,370.013 225.600 C 369.786 225.600,369.600 225.420,369.600 225.200 C 369.600 224.980,369.229 224.800,368.776 224.800 C 368.323 224.800,368.064 224.620,368.200 224.400 C 368.344 224.167,367.937 224.000,367.224 224.000 C 366.551 224.000,366.000 223.823,366.000 223.606 C 366.000 223.348,338.415 223.209,286.400 223.203 C 224.491 223.196,206.800 223.302,206.800 223.677 C 206.800 224.053,206.693 224.053,206.320 223.680 C 205.739 223.099,204.400 223.043,204.400 223.600 M363.126 235.775 C 363.711 235.960,363.783 236.520,363.673 239.994 L 363.547 244.000 285.201 244.000 L 206.855 244.000 206.727 240.199 C 206.657 238.109,206.746 236.399,206.924 236.399 C 207.102 236.400,207.118 236.175,206.959 235.900 C 206.801 235.625,206.821 235.535,207.003 235.701 C 207.186 235.866,207.633 235.732,207.998 235.402 C 208.890 234.594,362.115 234.276,362.326 235.081 C 362.395 235.346,362.755 235.658,363.126 235.775 M363.683 263.198 L 363.567 270.796 285.083 270.898 L 206.600 271.000 206.717 263.501 L 206.833 256.002 285.317 255.900 C 328.483 255.844,363.800 255.753,363.800 255.699 C 363.800 255.644,363.747 259.018,363.683 263.198 M363.600 306.976 C 363.600 324.510,363.473 331.631,363.157 331.826 C 362.848 332.018,362.878 332.217,363.257 332.488 C 363.674 332.785,363.640 332.824,363.113 332.655 C 362.735 332.534,362.319 332.608,362.188 332.819 C 362.037 333.063,333.794 333.202,284.954 333.198 C 242.606 333.195,208.048 333.047,208.157 332.869 C 208.267 332.691,208.007 332.293,207.579 331.985 C 206.822 331.439,206.800 330.740,206.800 306.912 L 206.800 282.400 285.200 282.400 L 363.600 282.400 363.600 306.976 M227.799 288.402 C 227.699 288.564,227.061 288.808,226.382 288.944 C 225.703 289.079,225.243 289.347,225.361 289.538 C 225.479 289.728,225.126 289.799,224.577 289.694 C 223.868 289.558,223.338 289.778,222.751 290.451 C 222.296 290.973,221.653 291.343,221.322 291.273 C 220.978 291.201,220.833 291.329,220.983 291.573 C 221.129 291.808,220.957 292.000,220.600 292.000 C 220.244 292.000,220.064 292.180,220.200 292.400 C 220.336 292.620,220.167 292.800,219.824 292.800 C 219.481 292.800,219.200 292.991,219.200 293.224 C 219.200 293.457,219.020 293.536,218.800 293.400 C 218.580 293.264,218.400 293.421,218.400 293.749 C 218.400 294.078,218.057 294.455,217.637 294.588 C 217.217 294.721,216.790 295.049,216.688 295.315 C 216.586 295.582,216.434 295.974,216.351 296.187 C 216.268 296.400,215.795 297.012,215.300 297.546 C 214.805 298.080,214.400 298.761,214.400 299.058 C 214.400 299.356,214.220 299.600,214.000 299.600 C 213.780 299.600,213.600 300.140,213.600 300.800 C 213.600 301.460,213.425 302.000,213.212 302.000 C 212.999 302.000,212.839 302.585,212.858 303.300 C 212.876 304.015,212.691 305.107,212.446 305.726 C 211.864 307.195,211.882 307.718,212.500 307.347 C 212.811 307.160,212.782 307.315,212.424 307.756 C 211.952 308.337,211.939 308.611,212.354 309.274 C 212.636 309.727,212.670 309.967,212.430 309.818 C 211.850 309.460,211.881 310.521,212.467 311.107 C 212.723 311.363,212.933 312.381,212.933 313.369 C 212.933 314.357,213.057 315.088,213.208 314.995 C 213.359 314.902,213.691 315.281,213.945 315.838 C 214.215 316.431,214.239 316.748,214.003 316.602 C 213.781 316.465,213.600 316.537,213.600 316.762 C 213.600 316.988,213.984 317.378,214.454 317.629 C 215.138 317.995,215.198 318.157,214.754 318.443 C 214.376 318.687,214.337 318.895,214.630 319.100 C 214.867 319.265,215.513 320.074,216.066 320.898 C 216.619 321.722,217.190 322.277,217.335 322.131 C 217.481 321.986,217.600 322.175,217.600 322.551 C 217.600 322.978,217.860 323.191,218.291 323.118 C 218.683 323.051,218.994 323.260,219.009 323.600 C 219.024 323.930,219.267 324.151,219.548 324.090 C 219.829 324.030,219.965 324.133,219.850 324.319 C 219.615 324.699,221.038 326.053,221.511 325.899 C 221.678 325.845,222.251 326.205,222.783 326.700 C 223.315 327.195,224.066 327.600,224.452 327.600 C 224.837 327.600,225.264 327.780,225.400 328.000 C 225.536 328.220,225.999 328.400,226.429 328.400 C 226.859 328.400,227.574 328.625,228.018 328.900 C 228.683 329.312,228.891 329.295,229.206 328.800 C 229.460 328.401,229.590 328.368,229.594 328.700 C 229.602 329.325,238.616 329.421,239.000 328.800 C 239.136 328.580,239.737 328.400,240.335 328.400 C 240.965 328.400,241.667 328.063,242.000 327.600 C 242.317 327.160,242.792 326.800,243.055 326.800 C 243.318 326.800,243.624 326.575,243.735 326.300 C 243.896 325.900,243.943 325.900,243.968 326.300 C 243.986 326.575,244.180 326.800,244.400 326.800 C 244.620 326.800,244.755 326.575,244.700 326.300 C 244.645 326.025,244.825 325.845,245.100 325.900 C 245.375 325.955,245.600 325.820,245.600 325.600 C 245.600 325.380,245.891 325.200,246.246 325.200 C 247.094 325.200,249.674 322.370,249.423 321.716 C 249.309 321.419,249.645 321.104,250.232 320.956 C 250.783 320.818,251.166 320.501,251.082 320.252 C 250.998 320.004,251.216 319.578,251.565 319.308 C 252.126 318.872,252.130 318.766,251.600 318.391 C 251.101 318.038,251.135 317.986,251.800 318.083 C 252.411 318.172,252.630 317.941,252.727 317.100 C 252.796 316.495,253.021 316.000,253.227 316.000 C 253.432 316.000,253.600 315.460,253.600 314.800 C 253.600 314.110,253.812 313.597,254.100 313.594 C 254.433 313.590,254.400 313.458,254.000 313.200 C 253.670 312.987,253.588 312.809,253.818 312.806 C 254.071 312.802,254.251 311.534,254.274 309.604 C 254.300 307.323,254.181 306.481,253.855 306.663 C 253.586 306.813,253.605 306.697,253.900 306.379 C 254.563 305.665,254.513 304.383,253.785 303.421 C 253.461 302.993,253.306 302.295,253.441 301.871 C 253.602 301.364,253.534 301.194,253.243 301.374 C 252.799 301.648,252.650 301.186,252.775 299.925 C 252.812 299.554,252.467 299.050,252.010 298.805 C 251.552 298.560,251.273 298.205,251.390 298.016 C 251.759 297.419,251.158 296.441,250.562 296.670 C 250.191 296.812,250.066 296.694,250.204 296.333 C 250.469 295.644,247.787 292.637,247.220 292.988 C 246.976 293.138,246.906 292.990,247.047 292.621 C 247.211 292.195,247.049 292.000,246.531 292.000 C 246.116 292.000,245.517 291.640,245.200 291.200 C 244.883 290.760,244.318 290.400,243.945 290.400 C 243.572 290.400,243.204 290.212,243.127 289.982 C 243.051 289.752,242.331 289.527,241.527 289.482 C 240.724 289.437,240.141 289.326,240.231 289.236 C 240.321 289.146,240.046 288.827,239.619 288.528 C 238.782 287.942,228.153 287.828,227.799 288.402 M280.006 291.500 C 280.003 291.775,279.734 292.000,279.409 292.000 C 278.575 292.000,277.534 293.741,277.829 294.644 C 278.032 295.266,277.999 295.294,277.644 294.800 C 277.170 294.142,277.137 294.257,277.128 296.600 C 277.123 298.176,277.758 300.400,278.214 300.400 C 278.342 300.400,278.319 300.192,278.162 299.938 C 277.984 299.650,278.052 299.585,278.345 299.766 C 278.602 299.925,278.709 300.224,278.581 300.431 C 278.239 300.985,279.412 302.000,280.395 302.000 C 280.864 302.000,281.136 302.180,281.000 302.400 C 280.645 302.974,281.738 302.894,282.379 302.300 C 282.810 301.900,282.861 301.900,282.635 302.300 C 282.410 302.698,289.358 302.800,316.800 302.800 C 335.746 302.800,351.158 302.656,351.049 302.480 C 350.941 302.304,351.219 301.931,351.668 301.651 C 352.204 301.315,352.387 301.298,352.200 301.600 C 352.011 301.906,352.186 301.891,352.724 301.555 C 355.754 299.662,355.593 292.000,352.523 292.000 C 351.978 292.000,351.661 291.825,351.800 291.600 C 351.964 291.334,340.071 291.200,316.424 291.200 C 288.195 291.200,280.799 291.304,280.794 291.700 C 280.790 292.033,280.658 292.000,280.400 291.600 C 280.142 291.200,280.010 291.167,280.006 291.500 M235.866 300.055 C 236.343 300.451,236.533 300.435,236.824 299.974 C 237.153 299.456,237.370 299.726,237.247 300.500 C 237.221 300.665,237.365 300.800,237.567 300.800 C 238.156 300.800,241.200 303.884,241.200 304.480 C 241.200 304.779,241.560 305.283,242.000 305.600 C 242.868 306.226,243.117 307.026,242.300 306.565 C 241.900 306.339,241.900 306.390,242.300 306.821 C 242.894 307.462,242.974 310.000,242.400 310.000 C 242.180 310.000,242.000 310.439,242.000 310.976 C 242.000 311.513,241.820 312.064,241.600 312.200 C 241.380 312.336,241.200 312.802,241.200 313.236 C 241.200 313.670,240.885 314.144,240.500 314.290 C 239.655 314.610,238.770 315.437,239.013 315.680 C 239.110 315.776,238.561 316.101,237.794 316.402 C 237.027 316.703,236.397 317.141,236.394 317.375 C 236.391 317.609,236.213 317.530,236.000 317.200 C 235.742 316.800,235.610 316.767,235.606 317.100 C 235.602 317.444,234.850 317.600,233.200 317.600 C 231.867 317.600,230.800 317.422,230.800 317.200 C 230.800 316.980,230.440 316.800,230.000 316.800 C 229.560 316.800,229.200 316.590,229.200 316.333 C 229.200 316.077,229.089 315.978,228.952 316.114 C 228.816 316.250,228.442 316.099,228.120 315.777 C 227.799 315.456,227.370 315.295,227.168 315.420 C 226.965 315.545,226.800 315.367,226.800 315.024 C 226.800 314.681,226.654 314.400,226.475 314.400 C 226.296 314.400,225.902 313.770,225.600 313.000 C 225.298 312.230,224.948 311.600,224.822 311.600 C 224.697 311.600,224.660 310.767,224.741 309.749 C 224.859 308.276,224.778 307.961,224.344 308.208 C 223.905 308.457,223.897 308.413,224.300 307.979 C 224.897 307.336,224.967 306.650,224.400 307.000 C 224.180 307.136,224.000 306.956,224.000 306.600 C 224.000 306.244,224.175 306.061,224.388 306.193 C 224.602 306.325,224.891 305.975,225.032 305.416 C 225.172 304.857,225.447 304.400,225.643 304.400 C 225.840 304.400,226.000 303.920,226.000 303.333 C 226.000 302.747,226.111 302.378,226.248 302.514 C 226.541 302.807,227.600 301.830,227.600 301.266 C 227.600 301.051,227.960 300.969,228.400 301.084 C 228.847 301.201,229.200 301.096,229.200 300.847 C 229.200 300.601,229.483 300.400,229.829 300.400 C 230.174 300.400,230.696 300.161,230.987 299.870 C 231.637 299.221,235.015 299.349,235.866 300.055 M281.200 310.772 C 281.200 310.977,280.833 311.202,280.384 311.272 C 279.935 311.342,279.565 311.580,279.560 311.800 C 279.556 312.020,279.199 312.331,278.767 312.490 C 277.739 312.871,277.336 313.976,278.042 314.478 C 278.480 314.790,278.449 314.827,277.900 314.650 C 277.499 314.521,277.187 314.633,277.170 314.913 C 277.153 315.181,277.098 316.082,277.047 316.915 C 276.995 317.774,277.180 318.617,277.473 318.861 C 277.758 319.097,277.909 319.424,277.808 319.587 C 277.523 320.048,279.487 321.717,279.966 321.421 C 280.225 321.261,280.299 321.399,280.154 321.775 C 279.942 322.328,283.639 322.392,315.803 322.391 L 351.689 322.391 353.090 320.990 C 354.027 320.053,354.424 319.336,354.291 318.825 C 354.143 318.260,354.251 318.122,354.705 318.296 C 355.217 318.492,355.286 318.236,355.118 316.750 C 354.850 314.375,353.659 311.892,352.923 312.174 C 352.613 312.293,352.460 312.227,352.583 312.027 C 352.707 311.827,352.239 311.379,351.543 311.031 C 350.072 310.297,281.200 310.044,281.200 310.772 M73.006 358.124 C 72.569 358.386,71.918 358.915,71.559 359.300 C 71.200 359.685,70.702 360.000,70.453 360.000 C 70.204 360.000,70.000 360.450,70.000 361.000 C 70.000 361.550,69.820 362.000,69.600 362.000 C 69.380 362.000,69.200 362.281,69.200 362.624 C 69.200 362.967,69.393 363.128,69.630 362.982 C 69.866 362.836,69.825 363.091,69.540 363.548 C 69.130 364.205,69.123 364.483,69.510 364.870 C 69.780 365.140,70.000 365.586,70.000 365.862 C 70.000 366.484,71.868 368.398,72.176 368.091 C 72.299 367.968,72.400 368.165,72.400 368.530 C 72.400 369.145,76.159 369.194,123.400 369.194 C 156.864 369.194,174.400 369.057,174.400 368.797 C 174.400 368.579,174.683 368.400,175.029 368.400 C 175.837 368.400,176.800 367.437,176.800 366.629 C 176.800 366.283,176.989 366.000,177.221 366.000 C 177.774 366.000,177.653 361.743,177.058 360.300 C 176.809 359.695,176.413 359.200,176.178 359.200 C 175.943 359.200,175.357 358.833,174.875 358.384 C 174.351 357.896,174.000 357.768,174.000 358.064 C 174.000 358.450,173.893 358.453,173.520 358.080 C 172.827 357.387,74.162 357.430,73.006 358.124 M157.900 389.900 C 139.035 389.957,108.165 389.957,89.300 389.900 C 70.435 389.842,85.870 389.795,123.600 389.795 C 161.330 389.795,176.765 389.842,157.900 389.900 " stroke="none" fill="#248cbc" fill-rule="evenodd"></path><path id="path1" d="M33.124 17.358 C 32.758 17.627,32.580 18.034,32.729 18.265 C 32.903 18.534,33.260 18.433,33.727 17.982 C 34.584 17.157,34.094 16.650,33.124 17.358 M26.168 25.784 C 26.033 26.325,25.669 26.977,25.361 27.233 C 25.052 27.489,24.800 27.880,24.800 28.103 C 24.800 28.326,25.160 28.050,25.600 27.491 C 26.040 26.931,26.400 26.277,26.400 26.037 C 26.400 25.797,26.580 25.600,26.800 25.600 C 27.020 25.600,27.200 25.420,27.200 25.200 C 27.200 24.385,26.407 24.834,26.168 25.784 M219.377 43.562 C 219.500 43.762,219.961 43.831,220.400 43.716 C 221.501 43.428,221.402 43.200,220.176 43.200 C 219.613 43.200,219.254 43.363,219.377 43.562 M104.800 47.493 C 133.463 47.769,155.507 47.772,155.338 47.500 C 155.236 47.335,141.348 47.242,124.476 47.293 C 107.604 47.345,98.750 47.434,104.800 47.493 M231.626 62.231 C 232.154 62.868,232.800 62.986,232.800 62.447 C 232.800 62.252,232.430 61.996,231.977 61.878 C 231.302 61.702,231.239 61.765,231.626 62.231 M277.149 76.500 C 277.451 76.885,278.081 77.179,278.549 77.154 C 279.357 77.110,279.360 77.097,278.600 76.911 C 278.160 76.802,277.530 76.508,277.200 76.257 C 276.678 75.860,276.672 75.891,277.149 76.500 M274.494 88.552 C 274.875 88.842,275.055 89.225,274.894 89.404 C 274.732 89.582,274.817 89.604,275.083 89.451 C 275.740 89.074,275.271 87.997,274.457 88.013 C 273.865 88.024,273.869 88.078,274.494 88.552 M130.800 96.121 C 130.800 96.517,130.579 96.690,130.240 96.560 C 129.933 96.442,129.585 96.500,129.468 96.690 C 129.351 96.879,129.613 97.061,130.049 97.094 C 130.835 97.153,131.530 96.196,131.049 95.716 C 130.912 95.579,130.800 95.761,130.800 96.121 M97.200 117.078 L 96.200 118.071 97.300 117.571 C 97.905 117.296,98.400 116.830,98.400 116.536 C 98.400 115.875,98.419 115.867,97.200 117.078 M103.394 209.800 C 103.394 239.060,103.442 250.971,103.500 236.269 C 103.558 221.567,103.558 197.627,103.500 183.069 C 103.442 168.511,103.394 180.540,103.394 209.800 M114.994 209.800 C 114.994 239.060,115.042 250.971,115.100 236.269 C 115.158 221.567,115.158 197.627,115.100 183.069 C 115.042 168.511,114.994 180.540,114.994 209.800 M129.296 209.676 C 129.243 238.868,129.335 262.836,129.500 262.938 C 129.771 263.106,129.770 226.575,129.496 175.800 C 129.439 165.240,129.349 180.484,129.296 209.676 M141.394 209.800 C 141.394 239.060,141.442 250.971,141.500 236.269 C 141.558 221.567,141.558 197.627,141.500 183.069 C 141.442 168.511,141.394 180.540,141.394 209.800 M259.789 183.400 C 259.789 198.140,259.839 204.112,259.900 196.671 C 259.961 189.230,259.961 177.170,259.900 169.871 C 259.839 162.572,259.789 168.660,259.789 183.400 M194.980 263.200 C 194.980 270.790,195.034 273.895,195.099 270.100 C 195.165 266.305,195.165 260.095,195.099 256.300 C 195.034 252.505,194.980 255.610,194.980 263.200 M82.813 267.491 C 82.289 268.082,82.303 268.123,82.946 267.876 C 83.342 267.724,83.741 267.600,83.833 267.600 C 83.925 267.600,84.000 267.420,84.000 267.200 C 84.000 266.612,83.481 266.739,82.813 267.491 M71.002 359.198 C 70.603 359.639,70.407 360.000,70.567 360.000 C 70.988 360.000,72.128 358.795,71.912 358.579 C 71.811 358.478,71.402 358.756,71.002 359.198 M26.053 373.600 C 25.992 374.507,26.640 375.382,26.974 374.843 C 27.124 374.599,27.070 374.400,26.853 374.400 C 26.636 374.400,26.376 374.085,26.276 373.700 C 26.146 373.204,26.081 373.175,26.053 373.600 M198.406 377.500 C 198.410 377.950,198.517 378.036,198.706 377.740 C 198.868 377.488,199.450 377.197,200.000 377.095 C 200.847 376.937,200.801 376.901,199.700 376.854 C 198.706 376.813,198.401 376.965,198.406 377.500 M33.145 382.646 C 33.851 383.141,34.177 383.182,34.534 382.823 C 34.890 382.464,34.844 382.412,34.340 382.604 C 33.978 382.742,33.562 382.662,33.417 382.427 C 33.272 382.192,32.943 382.000,32.687 382.000 C 32.431 382.000,32.637 382.291,33.145 382.646 M89.300 389.900 C 108.165 389.957,139.035 389.957,157.900 389.900 C 176.765 389.842,161.330 389.795,123.600 389.795 C 85.870 389.795,70.435 389.842,89.300 389.900 " stroke="none" fill="#248cc4" fill-rule="evenodd"></path><path id="path2" d="M59.123 9.899 C 61.831 9.968,66.151 9.968,68.723 9.899 C 71.295 9.829,69.080 9.772,63.800 9.773 C 58.520 9.773,56.415 9.830,59.123 9.899 M179.723 9.899 C 182.320 9.969,186.460 9.968,188.923 9.898 C 191.385 9.828,189.260 9.771,184.200 9.772 C 179.140 9.772,177.125 9.829,179.723 9.899 " stroke="none" fill="#288cbc" fill-rule="evenodd"></path><path id="path3" d="M59.123 9.899 C 61.831 9.968,66.151 9.968,68.723 9.899 C 71.295 9.829,69.080 9.772,63.800 9.773 C 58.520 9.773,56.415 9.830,59.123 9.899 M179.723 9.899 C 182.320 9.969,186.460 9.968,188.923 9.898 C 191.385 9.828,189.260 9.771,184.200 9.772 C 179.140 9.772,177.125 9.829,179.723 9.899 " stroke="none" fill="#288cbc" fill-rule="evenodd"></path><path id="path4" d="M59.123 9.899 C 61.831 9.968,66.151 9.968,68.723 9.899 C 71.295 9.829,69.080 9.772,63.800 9.773 C 58.520 9.773,56.415 9.830,59.123 9.899 M179.723 9.899 C 182.320 9.969,186.460 9.968,188.923 9.898 C 191.385 9.828,189.260 9.771,184.200 9.772 C 179.140 9.772,177.125 9.829,179.723 9.899 " stroke="none" fill="#288cbc" fill-rule="evenodd"></path></g></svg>